<svg width="72" height="72" viewBox="0 0 72 72" fill="none" xmlns="http://www.w3.org/2000/svg">
<path d="M60.8502 35.7228H48.2466C47.4979 35.7225 46.7683 35.9597 46.1629 36.4004C45.5575 36.8411 45.1075 37.4624 44.8778 38.1751C44.2759 40.0556 43.0913 41.6959 41.4955 42.8586C39.8997 44.0213 37.9754 44.6462 36.0009 44.6429C34.0263 44.6464 32.1019 44.0216 30.506 42.8589C28.9102 41.6961 27.7257 40.0557 27.124 38.1751C26.8939 37.4623 26.4437 36.8409 25.8381 36.4002C25.2325 35.9596 24.5027 35.7224 23.7537 35.7228H11.1501C10.685 35.7227 10.2244 35.8142 9.79462 35.9922C9.36488 36.1701 8.97442 36.431 8.64552 36.7599C8.31663 37.0888 8.05575 37.4793 7.8778 37.909C7.69985 38.3387 7.6083 38.7993 7.6084 39.2645V59.4633C7.60897 60.4023 7.98234 61.3027 8.64645 61.9665C9.31056 62.6304 10.2111 63.0034 11.1501 63.0036H60.8502C61.3152 63.0037 61.7757 62.9122 62.2054 62.7343C62.635 62.5564 63.0254 62.2957 63.3543 61.967C63.6832 61.6382 63.9441 61.2479 64.1221 60.8183C64.3001 60.3888 64.3918 59.9283 64.3919 59.4633V39.2645C64.3919 37.3068 62.8079 35.7228 60.8502 35.7228Z" fill="#F69964"/>
<path d="M35.2571 37.6106C35.4349 37.8597 35.7258 38.0087 36.0318 38.0087H36.0339C36.3421 38.0087 36.6287 37.8597 36.8087 37.607L46.6035 23.8312C46.7043 23.6883 46.7639 23.5206 46.7761 23.3462C46.7883 23.1718 46.7525 22.9974 46.6727 22.8419C46.5926 22.6863 46.4711 22.5557 46.3216 22.4647C46.172 22.3738 46.0003 22.3259 45.8252 22.3264H41.2179V9.95106C41.2179 9.42186 40.791 8.99634 40.2654 8.99634H31.7363C31.2092 8.99634 30.7837 9.42186 30.7837 9.95106V22.3264H26.1728C25.9981 22.3267 25.8268 22.375 25.6776 22.4661C25.5285 22.5572 25.4073 22.6876 25.3273 22.843C25.2473 22.9983 25.2116 23.1727 25.2241 23.347C25.2366 23.5213 25.2968 23.6888 25.3981 23.8312L35.2571 37.6106Z" fill="#F69964"/>
</svg>
