<svg width="32" height="32" viewBox="0 0 32 32" fill="none" xmlns="http://www.w3.org/2000/svg">
<path d="M30.72 0H1.28C0.572 0 0 0.572 0 1.28V30.72C0 31.428 0.572 32 1.28 32H30.72C31.428 32 32 31.428 32 30.72V1.28C32 0.572 31.428 0 30.72 0ZM9.492 27.268H4.744V11.996H9.492V27.268ZM7.12 9.908C6.57571 9.908 6.04363 9.7466 5.59107 9.4442C5.13851 9.14181 4.78578 8.71201 4.57748 8.20914C4.36919 7.70628 4.31469 7.15295 4.42088 6.61911C4.52707 6.08528 4.78917 5.59492 5.17404 5.21004C5.55892 4.82517 6.04928 4.56307 6.58311 4.45688C7.11695 4.35069 7.67028 4.40519 8.17314 4.61348C8.67601 4.82178 9.10581 5.17451 9.4082 5.62707C9.7106 6.07963 9.872 6.61171 9.872 7.156C9.868 8.676 8.636 9.908 7.12 9.908ZM27.268 27.268H22.524V19.84C22.524 18.068 22.492 15.792 20.056 15.792C17.588 15.792 17.208 17.72 17.208 19.712V27.268H12.468V11.996H17.02V14.084H17.084C17.716 12.884 19.264 11.616 21.576 11.616C26.384 11.616 27.268 14.78 27.268 18.892V27.268Z" fill="#0E76A8"/>
</svg>
