<svg width="480" height="312" viewBox="0 0 480 312" fill="none" xmlns="http://www.w3.org/2000/svg">
<path opacity="0.1" d="M327.516 312C354.293 312 376 309.179 376 305.699C376 302.218 354.293 299.397 327.516 299.397C300.739 299.397 279.032 302.218 279.032 305.699C279.032 309.179 300.739 312 327.516 312Z" fill="black"/>
<path d="M146.371 42.2462H0V133.699H146.371V42.2462Z" fill="#F2F2F2"/>
<path d="M155.603 33.3362H9.23193V124.79H155.603V33.3362Z" stroke="#1E3953" stroke-width="2" stroke-miterlimit="10"/>
<path d="M104.9 101.243C109.314 96.823 112.319 91.1915 113.537 85.0606C114.754 78.9298 114.129 72.5751 111.741 66.8C109.352 61.0249 105.308 56.0889 100.118 52.6161C94.9286 49.1432 88.8273 47.2896 82.5859 47.2896V78.8948L104.9 101.243Z" fill="#3F3D56"/>
<path d="M82.5855 47.2896C75.5714 47.2904 68.7574 49.6313 63.2196 53.9426C57.6818 58.2539 53.7358 64.2898 52.0047 71.0973C50.2736 77.9048 50.856 85.0958 53.66 91.5349C56.4641 97.9739 61.3299 103.294 67.4891 106.655L82.5855 78.8948V47.2896Z" fill="#F69964"/>
<path d="M104.9 101.243L82.5857 78.8948L67.4893 106.655C73.4734 109.916 80.35 111.151 87.0926 110.175C93.8351 109.2 100.082 106.066 104.9 101.243Z" fill="#575A89"/>
<path d="M20.8143 105.793H14.7715V111.845H20.8143V105.793Z" fill="#F69964"/>
<path d="M29.5429 105.793H23.5V111.845H29.5429V105.793Z" fill="#3F3D56"/>
<path d="M38.2714 105.793H32.2285V111.845H38.2714V105.793Z" fill="#575A89"/>
<path d="M144.022 107.138H119.179V108.146H144.022V107.138Z" fill="#3F3D56"/>
<path d="M144.022 110.164H119.179V111.172H144.022V110.164Z" fill="#3F3D56"/>
<path d="M144.022 113.19H119.179V114.198H144.022V113.19Z" fill="#3F3D56"/>
<path d="M129.25 169.676H45.9927V261.129H129.25V169.676Z" fill="#F2F2F2"/>
<path d="M137.643 160.934H54.3857V252.387H137.643V160.934Z" stroke="#1E3953" stroke-width="2" stroke-miterlimit="10"/>
<path d="M63.239 242.07H58.75V246.566H63.239V242.07Z" fill="#F69964"/>
<path d="M69.7229 242.07H65.2339V246.566H69.7229V242.07Z" fill="#3F3D56"/>
<path d="M76.2073 242.07H71.7183V246.566H76.2073V242.07Z" fill="#575A89"/>
<path d="M126.564 244.022H109.107V244.731H126.564V244.022Z" fill="#3F3D56"/>
<path d="M126.564 246.149H109.107V246.857H126.564V246.149Z" fill="#3F3D56"/>
<path d="M126.564 248.275H109.107V248.984H126.564V248.275Z" fill="#3F3D56"/>
<path d="M96.0142 177.073V184.47C100.396 184.47 104.68 185.771 108.324 188.209C111.968 190.648 114.808 194.113 116.485 198.168C118.162 202.223 118.601 206.685 117.746 210.99C116.891 215.294 114.78 219.248 111.682 222.352L116.904 227.582C121.036 223.444 123.849 218.172 124.989 212.433C126.129 206.693 125.544 200.744 123.308 195.338C121.072 189.931 117.286 185.31 112.427 182.059C107.569 178.808 101.857 177.073 96.0142 177.073Z" fill="#3F3D56"/>
<path d="M116.904 227.582L111.682 222.352C107.894 226.146 102.861 228.437 97.5151 228.8C92.1696 229.163 86.8739 227.574 82.609 224.326L78.1387 230.217C83.8262 234.546 90.8874 236.665 98.0148 236.18C105.142 235.696 111.853 232.641 116.904 227.582Z" fill="#575A89"/>
<path d="M73.8574 206.66C73.8574 200.775 76.1918 195.131 80.3471 190.969C84.5023 186.807 90.1381 184.47 96.0145 184.47V177.073C89.8301 177.073 83.8015 179.016 78.7787 182.63C73.7558 186.243 69.9919 191.345 68.0176 197.214C66.0432 203.084 65.9579 209.426 67.7738 215.347C69.5896 221.268 73.215 226.469 78.1389 230.217L82.6092 224.326C79.8873 222.258 77.6806 219.587 76.1622 216.522C74.6438 213.457 73.8549 210.082 73.8574 206.66Z" fill="#F69964"/>
<path d="M312.76 80.4055C312.76 80.4055 311.39 90.5967 314.912 91.7726C318.435 92.9486 317.456 101.964 317.456 101.964L306.889 109.999L297.496 110.783L295.148 98.6321L296.518 95.4963C296.518 95.4963 301.801 89.2248 298.083 82.7574C294.365 76.2899 312.76 80.4055 312.76 80.4055Z" fill="#FFB9B9"/>
<path opacity="0.1" d="M312.76 80.4055C312.76 80.4055 311.39 90.5967 314.912 91.7726C318.435 92.9486 317.456 101.964 317.456 101.964L306.889 109.999L297.496 110.783L295.148 98.6321L296.518 95.4963C296.518 95.4963 301.801 89.2248 298.083 82.7574C294.365 76.2899 312.76 80.4055 312.76 80.4055Z" fill="black"/>
<path d="M302.975 159.779L290.647 188.785C290.647 188.785 281.058 183.297 275.383 183.885C269.708 184.473 262.664 177.614 262.664 177.614L269.708 143.513L282.819 107.255L301.018 118.819L302.975 159.779Z" fill="#575A89"/>
<path opacity="0.1" d="M302.975 159.779L290.647 188.785C290.647 188.785 281.058 183.297 275.383 183.885C269.708 184.473 262.664 177.614 262.664 177.614L269.708 143.513L282.819 107.255L301.018 118.819L302.975 159.779Z" fill="black"/>
<path d="M322.348 283.053V292.461H313.542L314.912 281.486L322.348 283.053Z" fill="#575A89"/>
<path d="M345.244 266.787L351.701 270.707L347.005 281.486L342.113 280.898L337.416 274.234L345.244 266.787Z" fill="#575A89"/>
<path d="M324.109 157.035L335.655 184.277C335.655 184.277 331.546 214.459 331.741 217.007C331.937 219.555 332.133 220.534 331.154 222.69C330.176 224.846 329.784 226.218 330.371 228.766C330.958 231.314 331.154 232.294 330.763 233.273C330.371 234.253 327.632 274.626 326.262 277.37C324.892 280.114 327.045 284.621 325.675 285.013C324.305 285.405 314.129 284.425 313.542 282.074C312.955 279.722 315.499 274.038 314.129 272.274C312.76 270.511 314.325 207.012 312.368 202.7C310.411 198.388 288.886 194.469 288.886 194.469C288.886 194.469 286.929 181.926 288.103 179.966C289.277 178.006 290.843 165.659 290.843 165.659L324.109 157.035Z" fill="#2F2E41"/>
<path d="M312.76 290.893C312.76 290.893 318.239 284.425 322.935 290.893C322.935 290.893 323.327 298.536 326.653 300.104C329.98 301.672 328.415 307.944 323.718 308.14C319.022 308.336 312.955 309.119 312.76 306.572C312.564 304.024 313.542 302.456 311.781 301.672C310.02 300.888 311.781 296.38 311.781 296.38L312.76 290.893Z" fill="#2F2E41"/>
<path d="M313.347 197.212C313.347 197.212 313.151 211.323 311.781 213.283C310.411 215.243 309.629 216.419 310.411 218.575C311.194 220.73 312.368 224.65 311.781 225.434C311.194 226.218 312.368 230.334 312.368 230.334C312.368 230.334 327.436 237.585 334.481 252.676C334.481 252.676 341.721 264.631 343.874 264.827C346.026 265.023 348.57 263.455 347.396 267.963C346.222 272.47 341.721 278.35 338.395 277.762C335.068 277.174 332.524 271.49 332.524 271.49C332.524 271.49 306.498 245.033 303.758 244.249C301.018 243.465 293.191 237.193 291.821 233.273C290.451 229.354 287.516 196.624 288.886 194.469C290.256 192.313 295.343 189.373 295.343 189.373L313.347 197.212Z" fill="#2F2E41"/>
<path d="M347.2 266.003C347.2 266.003 359.333 266.395 359.529 269.335C359.724 272.274 354.441 289.717 355.224 293.833C356.006 297.948 349.157 307.356 344.657 305.396C340.156 303.436 343.678 293.245 343.678 293.245C343.678 293.245 339.177 279.33 339.96 279.134C340.743 278.938 348.57 276.586 348.179 274.234C347.788 271.882 347.2 266.003 347.2 266.003Z" fill="#2F2E41"/>
<path d="M303.66 90.8907C310.361 90.8907 315.792 85.4505 315.792 78.7397C315.792 72.0288 310.361 66.5886 303.66 66.5886C296.959 66.5886 291.527 72.0288 291.527 78.7397C291.527 85.4505 296.959 90.8907 303.66 90.8907Z" fill="#FFB9B9"/>
<path d="M315.891 97.4562C315.891 97.4562 309.237 104.512 304.345 103.336C299.453 102.16 296.909 93.7325 296.909 93.7325L288.103 92.1646C288.103 92.1646 281.841 119.994 281.841 122.738C281.841 125.482 288.103 155.076 288.103 160.367C288.103 165.659 283.015 168.795 290.843 168.599C298.67 168.403 294.952 165.855 306.302 165.659C317.652 165.463 319.413 168.011 321.761 163.895C323.363 161.21 325.34 158.768 327.632 156.644L323.523 142.141L322.935 101.18C322.935 101.18 317.918 91.3806 315.633 92.1646C315.633 92.1646 316.869 96.4762 315.891 97.4562Z" fill="white"/>
<path d="M313.48 90.4312C313.48 90.4312 323.914 91.5766 326.849 93.7325C329.784 95.8883 338.003 97.4562 337.808 99.0241C337.612 100.592 328.219 122.934 328.219 122.934C328.219 122.934 323.914 140.573 327.632 144.688C331.35 148.804 345.244 193.685 342.895 197.408C340.547 201.132 333.111 186.041 333.111 186.041C333.111 186.041 323.131 153.704 317.652 148.216C312.173 142.729 311.781 113.135 311.781 111.763C311.781 110.391 313.48 90.4312 313.48 90.4312Z" fill="#575A89"/>
<path d="M298.219 92.7044C298.219 92.7044 285.364 87.8529 280.863 89.8128C276.362 91.7726 273.622 92.1646 273.622 92.1646L272.057 111.371C272.057 111.371 271.47 139.005 266.382 145.668C261.294 152.332 257.967 180.162 258.75 182.905C259.533 185.649 257.38 190.353 260.707 189.177C264.034 188.001 273.231 160.955 273.231 160.955C273.231 160.955 273.231 145.472 278.71 141.161C284.189 136.849 293.191 119.014 293.582 114.703C293.974 110.391 297.692 98.4361 297.692 98.4361L298.219 92.7044Z" fill="#575A89"/>
<path d="M342.308 154.488C342.308 154.488 336.438 165.463 335.655 167.423C334.872 169.382 329.393 182.709 321.566 179.77C313.738 176.83 329.197 162.523 329.197 162.523L332.72 150.568C332.72 150.568 341.917 148.608 342.308 154.488Z" fill="#FFB9B9"/>
<path d="M275.579 92.1646H273.622C273.622 92.1646 271.665 90.5967 269.317 91.5766C266.969 92.5566 261.49 91.1847 261.49 91.7726C261.49 92.3606 255.423 90.0088 252.88 91.1847C250.336 92.3606 241.138 92.7525 241.138 92.7525C241.138 92.7525 237.42 102.16 239.964 103.924C242.508 105.688 246.226 104.316 247.987 105.688C249.749 107.059 253.075 105.492 254.249 107.255C255.423 109.019 259.729 112.155 260.707 110.195C261.685 108.235 259.729 106.471 263.838 108.627C267.947 110.783 274.405 110.783 274.405 110.783L275.579 92.1646Z" fill="#575A89"/>
<path d="M304.754 69.7619C303.112 69.382 301.408 69.803 299.745 70.0759C298.082 70.3489 296.25 70.4388 294.843 69.5096C293.804 68.8234 293.165 67.6881 292.566 66.5961C292.315 66.2061 292.149 65.7684 292.076 65.3105C292.005 64.5029 292.518 63.766 293.063 63.1664C295.593 60.3808 299.291 58.8562 303.02 58.3719C306.085 57.9738 309.281 58.2404 312.111 59.4838C314.942 60.7272 317.375 63.0042 318.488 65.8922C319.001 67.3703 319.321 68.9084 319.44 70.4685C319.609 71.6164 319.63 72.781 319.505 73.9343C319.355 74.7893 319.13 75.6295 318.834 76.4452L316.99 82.0201C316.858 82.5469 316.61 83.0377 316.266 83.4571C316.088 83.6626 315.85 83.805 315.585 83.8631C315.32 83.9212 315.044 83.8918 314.797 83.7794C314.945 83.1738 314.967 82.5445 314.863 81.93C314.805 81.6237 314.658 81.3417 314.438 81.1204C314.219 80.8991 313.939 80.7486 313.634 80.6882C312.954 80.616 312.374 81.1435 311.729 81.3707C311.419 81.4628 311.094 81.4896 310.773 81.4494C310.452 81.4092 310.143 81.303 309.865 81.1373C309.587 80.9717 309.346 80.7502 309.158 80.4869C308.97 80.2236 308.838 79.9241 308.771 79.6073C308.669 78.97 308.84 78.2877 308.599 77.6891C308.316 76.9879 307.567 76.6204 307.004 76.1165C306.49 75.6417 306.123 75.0298 305.944 74.3529C305.766 73.676 305.784 72.962 305.997 72.2951C306.147 71.8312 306.573 71.6202 306.488 71.0872C306.376 70.388 305.347 69.8991 304.754 69.7619Z" fill="#2F2E41"/>
<path d="M253.464 112.517H170.207V203.971H253.464V112.517Z" fill="#F2F2F2"/>
<path d="M261.857 103.775H178.6V195.229H261.857V103.775Z" stroke="#1E3953" stroke-width="2" stroke-miterlimit="10"/>
<path d="M186.657 109.491V179.426H254.136" stroke="#3F3D56" stroke-width="2" stroke-miterlimit="10"/>
<path d="M205.457 154.882H190.35V179.09H205.457V154.882Z" fill="#575A89"/>
<path d="M227.279 138.407H212.171V179.09H227.279V138.407Z" fill="#3F3D56"/>
<path d="M249.1 119.242H233.993V179.09H249.1V119.242Z" fill="#F69964"/>
<path d="M190.139 184.911H185.65V189.407H190.139V184.911Z" fill="#F69964"/>
<path d="M196.623 184.911H192.134V189.407H196.623V184.911Z" fill="#3F3D56"/>
<path d="M203.107 184.911H198.618V189.407H203.107V184.911Z" fill="#575A89"/>
<path d="M253.464 186.864H236.007V187.573H253.464V186.864Z" fill="#3F3D56"/>
<path d="M253.464 188.99H236.007V189.699H253.464V188.99Z" fill="#3F3D56"/>
<path d="M253.464 191.117H236.007V191.826H253.464V191.117Z" fill="#3F3D56"/>
<path d="M243.16 92.7413C246.728 92.8967 249.38 96.1374 248.994 99.6934C248.644 102.915 247.354 106.924 243.291 108.464C236.05 111.207 236.442 95.7246 237.812 95.1366C238.725 94.7447 240.16 92.6106 243.16 92.7413Z" fill="#FFB9B9"/>
<path d="M335.655 97.977L337.808 99.024C337.808 99.024 342.504 108.627 342.7 109.999C342.896 111.371 346.027 116.467 344.852 117.839C343.678 119.21 341.917 122.738 343.091 124.11C344.265 125.482 347.005 130.97 347.005 132.929C347.005 134.889 344.07 140.181 346.027 140.769C347.983 141.357 347.396 149 347.005 149.588C346.614 150.176 341.526 159.779 341.526 159.779C341.526 159.779 340.547 148.804 330.959 153.312C330.959 153.312 330.176 147.824 330.959 147.432C331.741 147.04 333.698 144.688 332.133 144.296C330.567 143.904 328.415 139.201 328.806 138.613C329.198 138.025 330.176 137.241 329.198 136.653C328.219 136.065 327.436 132.733 327.632 132.145C327.828 131.557 325.479 128.814 325.479 128.814L335.655 97.977Z" fill="#575A89"/>
</svg>
