<svg width="480" height="312" viewBox="0 0 480 312" fill="none" xmlns="http://www.w3.org/2000/svg">
<path opacity="0.1" d="M148.742 163.134H107.224C105.753 163.134 104.562 164.324 104.562 165.793V174.619C104.562 176.087 105.753 177.278 107.224 177.278H148.742C150.212 177.278 151.404 176.087 151.404 174.619V165.793C151.404 164.324 150.212 163.134 148.742 163.134Z" fill="#6C63FF"/>
<path opacity="0.1" d="M148.742 141.914H107.224C105.753 141.914 104.562 143.105 104.562 144.573V153.399C104.562 154.868 105.753 156.058 107.224 156.058H148.742C150.212 156.058 151.404 154.868 151.404 153.399V144.573C151.404 143.105 150.212 141.914 148.742 141.914Z" fill="#6C63FF"/>
<path opacity="0.1" d="M148.742 113.623H107.224C105.753 113.623 104.562 114.813 104.562 116.282V125.107C104.562 126.576 105.753 127.767 107.224 127.767H148.742C150.212 127.767 151.404 126.576 151.404 125.107V116.282C151.404 114.813 150.212 113.623 148.742 113.623Z" fill="#6C63FF"/>
<path opacity="0.1" d="M148.742 92.4065H107.224C105.753 92.4065 104.562 93.597 104.562 95.0657V103.891C104.562 105.36 105.753 106.55 107.224 106.55H148.742C150.212 106.55 151.404 105.36 151.404 103.891V95.0657C151.404 93.597 150.212 92.4065 148.742 92.4065Z" fill="#6C63FF"/>
<path opacity="0.1" d="M196 312C304.248 312 392 296.057 392 276.389C392 256.722 304.248 240.779 196 240.779C87.7522 240.779 0 256.722 0 276.389C0 296.057 87.7522 312 196 312Z" fill="black"/>
<path d="M85.9963 154.884L69.5137 255.81L144.044 247.937L140.819 239.347L82.5923 244.179L96.2084 154.705L85.9963 154.884Z" fill="#3F3D56"/>
<path d="M66.6475 40.3579L166.977 40L196 259.389L95.3129 272.989L66.6475 40.3579Z" fill="#3F3D56"/>
<path d="M77.5762 48.7684H158.556L186.863 252.768L103.375 264.221L77.5762 48.7684Z" fill="white"/>
<path d="M153.948 243.592C154.457 244.565 154.836 245.618 155.499 246.494C157.434 249.078 161.107 249.483 163.862 251.169C164 251.239 164.114 251.348 164.189 251.484C164.314 251.781 164.034 252.092 163.766 252.278C161.677 253.742 158.936 253.774 156.381 253.756C155.522 253.787 154.663 253.705 153.826 253.513C152.475 253.155 151.318 252.214 149.985 251.831C149.294 251.658 148.586 251.559 147.874 251.534L145.076 251.344C144.331 251.333 143.593 251.196 142.894 250.94C142.545 250.806 142.236 250.587 141.996 250.302C141.755 250.018 141.591 249.677 141.518 249.311C141.439 248.717 141.693 248.141 141.844 247.561C142.202 246.187 142.091 244.526 143.162 243.588C143.604 243.251 144.11 243.007 144.649 242.873C146.597 242.217 148.585 241.689 150.601 241.291C152.26 240.965 153.213 242.182 153.948 243.592Z" fill="#3F3D56"/>
<path d="M122.294 251.333C122.366 252.096 122.387 252.969 121.835 253.502C121.492 253.787 121.077 253.973 120.635 254.039C117.987 254.654 115.035 254.697 112.731 253.259C112.491 253.122 112.279 252.941 112.107 252.725C111.915 252.432 111.806 252.092 111.792 251.741C111.709 250.728 112.021 249.73 112.304 248.753C112.974 246.434 113.483 244.073 113.827 241.684C113.856 241.488 120.589 242.758 121.036 243.424C121.599 244.247 121.603 246.223 121.753 247.203C121.98 248.573 122.16 249.949 122.294 251.333Z" fill="#3F3D56"/>
<path d="M147.355 158.202L149.146 174.84C149.504 178.24 149.881 181.658 149.633 185.069C149.347 189.006 148.243 192.943 148.709 196.844C148.892 198.361 149.307 199.85 149.368 201.378C149.38 202.395 149.328 203.411 149.214 204.42C148.404 214.517 150.966 224.534 152.4 234.559C152.63 235.795 152.681 237.059 152.55 238.309C152.364 239.58 151.991 241.248 153.123 241.849L142.489 245.7C141.131 244 142.03 241.355 141.772 239.197C141.535 237.254 140.468 235.521 139.898 233.65C139.382 231.968 139.274 230.196 139.106 228.449C138.178 218.94 135.329 209.678 134.663 200.147C134.641 199.227 134.521 198.311 134.305 197.416C133.946 196.232 133.23 195.197 132.706 194.084C131.904 192.413 131.51 190.581 131.123 188.77L128.847 178.122C126.547 181.544 126.64 185.996 126.185 190.097C125.547 195.824 124.121 201.453 122.96 207.108C122.691 208.325 122.488 209.556 122.355 210.795C122.054 214.112 122.652 217.462 122.333 220.776C121.975 224.616 120.359 228.364 120.749 232.204C120.964 234.33 121.781 236.341 122.333 238.403C122.885 240.464 123.157 242.726 122.315 244.691C119.372 243.612 116.211 243.263 113.103 243.674C109.688 240.185 109.083 235.317 108.85 230.432C108.617 225.547 109.179 220.655 108.57 215.816C108.391 214.384 108.112 212.988 108.065 211.56C107.914 206.983 110.118 202.699 111.215 198.25C112.201 194.246 112.295 190.073 111.49 186.028C110.953 183.355 110.029 180.76 109.699 178.051C109.251 174.253 110.011 170.428 110.774 166.677C111.286 164.147 111.795 161.616 112.376 159.1C112.999 156.398 113.741 153.639 115.407 151.427C118.073 147.887 122.806 146.316 127.231 146.66C131.657 147.003 135.788 149.015 139.443 151.52C142.323 153.443 144.977 155.684 147.355 158.202Z" fill="#192534"/>
<path d="M135.466 94.4895C135.265 94.8119 135.125 95.1686 135.054 95.5417C134.964 96.2754 135.412 96.9482 135.77 97.5888C136.229 98.4119 136.582 99.2898 136.82 100.201C136.991 100.766 137.043 101.359 136.974 101.944C136.887 102.384 136.729 102.807 136.508 103.197C135.817 104.528 134.792 105.76 133.398 106.314C132.319 106.711 131.142 106.759 130.034 106.45C128.933 106.139 127.892 105.646 126.956 104.99C126.166 104.49 125.456 103.875 124.849 103.165C124.269 102.388 123.781 101.548 123.394 100.66C122.649 99.1027 121.893 97.4385 122.029 95.7314C122.036 95.5766 122.065 95.4235 122.115 95.2768C122.231 95.0117 122.394 94.7694 122.595 94.561C124.124 92.7516 124.907 90.4298 124.788 88.0652L130.008 89.2499C131.159 89.5111 132.309 89.7724 133.445 90.0981C134.376 90.3665 135.81 90.7387 136.415 91.569C137.021 92.3994 135.878 93.7307 135.466 94.4895Z" fill="#FBBEBE"/>
<path d="M132.671 93.6019C137.911 93.6019 142.159 89.3589 142.159 84.1248C142.159 78.8908 137.911 74.6478 132.671 74.6478C127.431 74.6478 123.183 78.8908 123.183 84.1248C123.183 89.3589 127.431 93.6019 132.671 93.6019Z" fill="#FBBEBE"/>
<path d="M131.144 103.244C131.545 102.367 132.413 101.812 133.204 101.261C133.996 100.71 134.799 100.005 134.953 99.0491C134.963 98.8329 135.016 98.621 135.111 98.4263C135.415 97.9682 136.139 98.1973 136.573 98.5337C137.626 99.3533 138.343 100.516 139.041 101.651C139.945 103.031 140.719 104.491 141.353 106.014C142.36 108.666 142.481 111.561 142.592 114.392C142.693 116.969 142.789 119.585 142.162 122.083C141.768 123.665 141.087 125.2 141.048 126.829C140.93 132.745 138.873 138.4 138.73 144.316C138.719 146.026 138.805 147.736 138.988 149.437L139.325 153.277C134.115 152.979 128.919 152.522 123.738 151.907C123.587 150.139 123.082 148.424 122.62 146.713C120.727 139.719 119.514 132.559 118.997 125.333C118.721 121.496 118.438 117.674 118.012 113.852C117.628 110.376 116.876 106.88 117.327 103.412C117.564 101.835 118.06 100.309 118.797 98.8952C119.029 98.3318 119.429 97.8534 119.943 97.5244C120.2 97.4006 120.472 97.3126 120.753 97.2632C121.565 97.0988 122.39 97.0018 123.218 96.9733C123.421 96.9562 123.625 96.9756 123.82 97.0305C124.169 97.2044 124.456 97.4819 124.641 97.8251C126.237 100.222 128.497 102.105 131.144 103.244Z" fill="#F2F2F2"/>
<path d="M126.744 102.485C127.411 103.437 128.822 103.662 129.439 104.632C129.646 105.038 129.804 105.467 129.908 105.91C130.284 107.109 131.044 108.15 131.506 109.321C132.173 111.003 132.191 112.864 132.198 114.671C132.263 116.111 132.153 117.553 131.868 118.966C131.653 119.85 131.302 120.691 131.044 121.564C130.606 123.049 130.443 124.602 130.564 126.145C130.564 126.479 130.653 126.806 130.822 127.094C131.065 127.381 131.382 127.597 131.739 127.716C132.789 128.178 133.889 128.651 135.036 128.543C135.271 128.536 135.499 128.46 135.691 128.325C135.824 128.204 135.934 128.06 136.014 127.899L136.73 126.689C137.379 125.583 138.056 124.345 137.805 123.082C137.623 122.43 137.349 121.807 136.992 121.231C136.534 120.298 136.144 119.333 135.824 118.343C134.681 115.061 133.524 111.733 133.266 108.268C133.114 106.95 133.261 105.614 133.696 104.36C134.032 103.588 134.455 102.857 134.957 102.181C134.843 102.029 134.686 101.915 134.506 101.854C134.327 101.793 134.132 101.789 133.95 101.841C133.589 101.952 133.24 102.097 132.907 102.274C131.854 102.717 130.686 102.556 129.621 102.252C129.206 102.131 128.546 101.715 128.116 101.744C127.97 101.762 126.769 102.528 126.744 102.485Z" fill="#6C63FF"/>
<path d="M135.132 102.445C134.917 102.274 134.584 102.116 134.394 102.317C134.33 102.404 134.284 102.502 134.258 102.607C134.072 103.108 133.524 103.355 133.025 103.548C132.527 103.741 131.99 103.848 131.689 103.48C131.594 103.336 131.547 103.166 131.556 102.994C131.564 102.823 131.627 102.658 131.736 102.524C131.956 102.259 132.222 102.035 132.52 101.862C134.168 100.7 135.291 98.9356 135.645 96.9518C136.107 97.3187 136.413 97.8468 136.501 98.4299C136.619 98.9989 136.634 99.5859 136.752 100.155C136.928 100.971 137.318 101.733 137.408 102.56C137.454 103 137.408 103.444 137.408 103.884C137.424 104.315 137.474 104.743 137.558 105.165C136.72 104.278 136.129 103.236 135.132 102.445Z" fill="#F2F2F2"/>
<path d="M127.88 100.015C127.521 99.6753 127.163 99.3532 126.805 99.0061C125.232 97.4732 124.045 95.5908 123.34 93.5124C122.881 93.8703 122.376 94.3427 122.365 94.944C122.406 95.3694 122.57 95.7737 122.838 96.1071C124.193 98.2385 125.088 100.629 125.465 103.125C125.658 102.823 125.926 102.576 126.243 102.408C126.56 102.239 126.915 102.155 127.274 102.163C127.84 102.163 130.381 103.666 130.564 103.286C130.832 102.692 128.31 100.42 127.88 100.015Z" fill="#F2F2F2"/>
<path d="M135.881 97.1665C139.252 100.518 143.378 103.013 147.914 104.443C148.365 104.541 148.783 104.753 149.128 105.058C149.387 105.38 149.56 105.762 149.634 106.168C150.508 109.582 150.802 113.114 151.092 116.625C151.168 117.206 151.156 117.795 151.056 118.372C150.845 119.309 150.178 120.068 149.522 120.773C147.466 122.974 145.119 125.276 144.771 128.268C144.745 128.844 144.676 129.418 144.567 129.985C144.388 130.651 143.99 131.238 143.746 131.886C142.55 135.075 145.255 138.936 143.607 141.907C144.499 143.619 145.111 145.463 145.42 147.368C145.475 148.091 145.641 148.8 145.911 149.473C146.402 150.496 147.412 151.148 148.207 151.978C150.633 154.462 150.931 158.263 151.074 161.731C151.164 163.685 151.135 165.929 149.641 167.21C148.777 167.958 147.598 168.201 146.47 168.388C144.968 168.638 143.334 168.817 142.005 168.076C141.052 167.547 140.403 166.62 139.783 165.725C138.608 164.018 137.429 162.314 136.315 160.564C134.552 157.805 132.889 154.652 133.398 151.416C133.255 154.727 132.556 158.062 130.929 160.947C129.303 163.832 126.683 166.24 123.505 167.192C120.327 168.144 116.611 167.471 114.242 165.152C113.469 164.357 112.805 163.463 112.268 162.493C110.92 160.187 109.936 157.687 109.351 155.081C109.197 154.405 109.083 153.649 109.423 153.045C109.584 152.758 109.832 152.533 110 152.25C110.566 151.287 110.021 150.074 109.473 149.093C108.638 149.172 108.04 148.192 108.115 147.354C108.19 146.517 108.692 145.79 109.047 145.028C110.086 142.78 109.857 140.164 109.355 137.741C108.853 135.318 108.104 132.909 108.162 130.436C108.223 127.82 106.338 125.465 104.901 123.279C104.098 122.047 103.163 120.902 102.465 119.61C101.008 116.891 100.671 113.712 101.526 110.749C102.028 109.227 102.686 107.761 103.489 106.375L104.672 104.16C104.892 103.63 105.234 103.16 105.669 102.787C106.105 102.414 106.623 102.149 107.18 102.012L115.36 98.7914C116.406 98.4345 117.4 97.9385 118.313 97.3168C119.313 96.5653 120.058 95.5274 121.011 94.7257C121.15 94.58 121.317 94.4634 121.501 94.3829C121.686 94.3024 121.885 94.2595 122.086 94.2568C122.853 94.3248 123.125 95.2912 123.204 96.0463C123.383 97.7356 124.637 99.1672 125.064 100.81C127.371 109.883 132.255 118.25 133.595 127.512C135.1 123.901 136.605 120.283 138.533 116.883C138.837 116.395 139.093 115.878 139.296 115.34C139.527 114.565 139.614 113.753 139.55 112.946C139.454 110.616 138.834 108.34 138.221 106.089C137.426 103.025 136.709 100.201 135.881 97.1665Z" fill="#3F3D56"/>
<path d="M151.472 124.889C151.63 126.414 151.784 127.942 152.067 129.449C152.396 131.192 152.898 132.895 153.396 134.599C153.639 135.556 153.988 136.484 154.435 137.365C154.597 137.621 154.726 137.896 154.819 138.185C154.994 138.901 154.593 139.616 154.421 140.332C153.905 142.48 155.453 144.867 154.478 146.846C154.184 147.447 153.672 147.945 153.478 148.589C153.253 149.33 153.478 150.121 153.597 150.887C153.901 153.034 153.167 155.217 152.443 157.282L151.21 160.768C150.085 158.678 148.949 156.566 147.394 154.773C146.839 154.129 146.233 153.531 145.721 152.851C144.957 151.783 144.353 150.608 143.929 149.365C142.835 146.412 142.21 143.306 142.077 140.16C141.988 139.266 142.092 138.363 142.381 137.512C142.618 137.02 142.884 136.542 143.177 136.08C144.137 134.352 144.334 132.305 144.316 130.329C144.298 128.353 144.087 126.371 144.316 124.406C144.503 122.765 144.989 121.173 145.75 119.707C146.198 118.757 146.865 117.927 147.695 117.284C148.315 116.82 149.071 116.575 149.845 116.586C151.017 116.654 150.748 117.66 150.848 118.629L151.472 124.889Z" fill="#3F3D56"/>
<path d="M98.7673 120.018C98.0364 122.165 97.377 124.332 96.7894 126.517C96.2161 128.665 95.7037 130.824 95.2522 132.995C95.0203 133.95 94.8906 134.927 94.8652 135.909C94.9111 137.052 95.1075 138.184 95.4493 139.276C97.7569 147.583 101.964 155.246 106.7 162.45C108.054 160.764 109.662 159.298 111.466 158.105C111.614 158.018 111.737 157.895 111.824 157.747C111.87 157.608 111.883 157.461 111.863 157.316C111.843 157.17 111.791 157.032 111.71 156.91C110.402 154.233 108.331 151.874 107.679 148.965C107.406 147.755 107.396 146.495 107.087 145.293C106.69 143.736 105.801 142.311 105.597 140.715C105.378 138.976 105.955 137.079 105.138 135.536C106.804 134.889 107.768 133.174 108.474 131.532C109.228 129.851 109.768 128.082 110.079 126.267C110.57 122.787 109.888 119.243 108.141 116.192C107.288 114.671 106.192 113.297 104.898 112.127C104.472 111.744 103.465 110.645 102.845 110.656C102.017 110.673 101.752 112.012 101.516 112.613C100.559 115.068 99.613 117.527 98.7673 120.018Z" fill="#3F3D56"/>
<path d="M113.609 160.077C113.716 160.156 113.838 160.263 113.809 160.392C113.781 160.521 113.677 160.553 113.584 160.607C113.099 160.95 112.738 161.439 112.552 162.003C111.956 163.343 111.437 164.716 110.997 166.115C110.195 164.915 109.252 163.816 108.187 162.84C107.37 162.089 106.457 161.376 106.02 160.36C106.02 160.331 107.897 158.946 108.069 158.796C108.596 158.327 109.259 157.028 109.803 156.742C110.42 156.42 111.007 157.683 111.477 158.191C112.122 158.889 112.837 159.521 113.609 160.077Z" fill="#FBBEBE"/>
<path d="M142.747 82.6432C142.721 82.1743 142.661 81.6554 142.302 81.3512C141.988 81.1339 141.609 81.0292 141.227 81.0541C139.138 80.9861 136.978 81.3369 135.007 80.6354C133.71 80.1737 132.603 79.2861 131.338 78.735C130.073 78.1838 128.453 78.0371 127.432 78.964C126.658 79.6798 126.447 80.7786 126.178 81.7914C125.586 84.0268 124.533 86.1139 123.086 87.9186C122.115 87.6179 121.419 86.7518 120.972 85.8428C119.449 82.7434 120.198 79.0428 121.28 75.7573C121.638 74.655 122.036 73.5634 122.433 72.4754L123.308 70.0703C124.455 69.9578 125.521 69.4279 126.303 68.5815L126.68 69.4941C127.651 69.4592 128.589 69.1283 129.367 68.5457C129.668 69.1112 130.442 69.2615 131.069 69.079C131.696 68.8965 132.237 68.5457 132.861 68.3632C134.527 67.8263 136.304 68.6531 138.053 68.7461C138.792 68.7281 139.533 68.7496 140.271 68.8106C142.334 69.1434 143.793 71.0832 144.423 73.0731C144.843 74.3973 145.19 76.0257 146.498 76.4946C146.527 76.9956 145.638 77.0922 145.563 77.5682C145.554 77.7269 145.591 77.8848 145.67 78.0228L146.871 80.596C146.297 80.7399 145.693 80.71 145.136 80.5101C144.595 81.7807 142.8 83.6131 142.747 82.6432Z" fill="#192534"/>
<path d="M203.575 88.2442C204.184 90.2066 204.662 92.2068 205.009 94.2318C205.267 95.7493 205.417 97.4349 204.546 98.7019C207.864 93.7164 211.329 88.5806 216.371 85.3632C215.344 84.2513 214.563 82.9362 214.079 81.5033C213.594 80.0703 213.417 78.5516 213.558 77.0457C213.587 76.745 209.419 78.3162 209.101 78.4952C207.639 79.3076 206.299 80.3168 204.872 81.1865C204.134 81.6339 201.06 82.6933 201.031 83.3339C201.031 83.7455 202.253 85.0053 202.482 85.4383C202.932 86.338 203.298 87.2773 203.575 88.2442Z" fill="#FBBEBE"/>
<path d="M218.994 276.275C218.174 275.699 217.214 275.354 216.215 275.279C215.216 275.203 214.215 275.399 213.318 275.845C211.695 276.683 210.602 278.268 209.125 279.342C206.589 281.182 203.238 281.328 200.268 282.323C199.48 282.588 198.641 282.982 198.308 283.755C198.196 284.08 198.152 284.424 198.177 284.767C198.202 285.109 198.297 285.443 198.455 285.748C198.951 286.854 199.821 287.75 200.913 288.279C202.246 288.916 203.779 288.944 205.256 288.962L218.083 289.113C222.025 289.159 225.991 289.206 229.908 289.696C230.822 289.811 231.811 289.936 232.617 289.488C233.928 288.773 234.079 286.962 233.978 285.469C233.714 281.688 232.868 277.97 231.47 274.446C231.316 274.056 231.112 273.612 230.678 273.541C230.371 273.527 230.068 273.623 229.826 273.813C226.206 275.96 221.624 277.173 217.775 275.455" fill="#3F3D56"/>
<path d="M225.414 194.532C223.981 202.846 224.916 211.389 226.528 219.667C226.825 221.315 227.216 222.945 227.7 224.548C228.277 226.374 229.054 228.127 229.595 229.963C230.971 234.616 230.778 239.591 230.574 244.447L229.635 266.547C229.556 268.401 229.484 270.298 230.043 272.066C230.269 272.782 230.545 273.677 229.975 274.16C229.752 274.32 229.492 274.42 229.219 274.45C226.655 274.922 224.007 274.525 221.695 273.322L221.44 250.997C221.361 244.115 221.279 237.204 220.218 230.407C219.376 225.003 217.914 219.67 217.818 214.202C217.717 208.475 219.122 202.824 220.555 197.273C220.863 196.085 221.988 195.215 222.913 194.41C223.235 194.092 223.628 193.855 224.059 193.716C224.489 193.598 225.149 194.17 225.414 194.532Z" fill="#3F3D56"/>
<path d="M225.414 194.532C223.981 202.846 224.916 211.389 226.528 219.667C226.825 221.315 227.216 222.945 227.7 224.548C228.277 226.374 229.054 228.127 229.595 229.963C230.971 234.616 230.778 239.591 230.574 244.447L229.635 266.547C229.556 268.401 229.484 270.298 230.043 272.066C230.269 272.782 230.545 273.677 229.975 274.16C229.752 274.32 229.492 274.42 229.219 274.45C226.655 274.922 224.007 274.525 221.695 273.322L221.44 250.997C221.361 244.115 221.279 237.204 220.218 230.407C219.376 225.003 217.914 219.67 217.818 214.202C217.717 208.475 219.122 202.824 220.555 197.273C220.863 196.085 221.988 195.215 222.913 194.41C223.235 194.092 223.628 193.855 224.059 193.716C224.489 193.598 225.149 194.17 225.414 194.532Z" fill="#192534"/>
<path d="M198.508 168.549C197.978 170.728 199.103 172.987 198.978 175.227C198.906 176.583 198.372 177.936 198.619 179.268C198.867 180.599 199.82 181.601 200.328 182.821C200.7 183.841 200.896 184.915 200.909 186C201.056 188.677 200.938 191.368 200.837 194.034C200.669 198.508 200.543 203.007 201.135 207.441C201.649 211.283 202.695 215.035 204.241 218.589C204.71 219.557 205.097 220.561 205.399 221.592C205.597 222.553 205.728 223.527 205.793 224.506C206.133 227.689 206.989 230.797 208.326 233.707C209.24 235.7 210.834 237.286 211.34 239.401C211.82 241.427 211.497 243.563 211.845 245.614C212.099 247.135 212.719 248.574 213.063 250.077C213.511 252.02 213.5 254.035 213.726 256.018C214.371 261.744 216.976 267.471 215.421 273.025C215.109 274.142 214.625 275.276 214.844 276.415C214.951 276.973 215.224 277.524 215.102 278.079C215.002 278.551 214.636 278.916 214.45 279.364C214.091 280.201 214.471 281.196 215.109 281.844C215.789 282.448 216.58 282.914 217.438 283.218C220.079 284.346 222.813 285.491 225.679 285.466C226.027 285.484 226.375 285.42 226.693 285.28C227.209 285.011 227.464 284.428 227.682 283.891L229.152 280.262C229.331 279.822 229.51 279.306 229.263 278.898C229.09 278.675 228.882 278.481 228.646 278.326C227.46 277.327 227.729 275.463 228.044 273.963C228.85 270.111 229.296 266.194 229.377 262.26C229.535 254.415 228.241 246.616 226.951 238.875C226.504 236.187 226.052 233.481 225.16 230.905C224.268 228.328 222.953 225.848 223.168 223.171C223.397 220.279 222.645 217.247 223.168 214.395C223.691 211.543 224.519 208.751 225.052 205.902C225.744 202.205 225.916 198.436 226.127 194.686C226.217 193.154 226.332 191.572 227.048 190.212C227.467 189.417 228.077 188.737 228.546 187.968C229.757 185.967 229.951 183.487 231.108 181.454C231.656 180.492 232.412 179.643 232.814 178.613C233.095 177.8 233.243 176.946 233.251 176.086C233.364 173.926 233.244 171.76 232.892 169.626C226.793 166.526 220.028 164.958 213.185 165.059C210.566 165.102 207.918 165.367 205.46 166.272C203.116 167.142 200.981 168.363 198.508 168.549Z" fill="#192534"/>
<path d="M213.199 281.937C212.146 283.247 212.217 285.119 211.544 286.661C210.727 288.533 208.907 289.732 207.179 290.823L196.43 297.623C195.842 297.981 195.212 298.421 194.997 299.087C194.894 299.512 194.913 299.957 195.05 300.372C195.307 301.27 195.785 302.089 196.441 302.755C197.097 303.42 197.91 303.91 198.806 304.18C199.757 304.406 200.734 304.506 201.711 304.477L206.545 304.541C208.018 304.599 209.493 304.542 210.956 304.37C212.296 304.176 213.6 303.793 214.933 303.55C217.359 303.11 219.853 303.149 222.283 302.723C223.77 302.431 225.239 302.052 226.683 301.589C228.438 301.063 230.226 300.515 231.731 299.474C232.146 299.222 232.482 298.86 232.702 298.429C232.957 297.838 232.817 297.162 232.674 296.535L230.366 286.407C230.236 285.564 229.928 284.757 229.463 284.041C228.951 283.361 228.03 282.91 227.231 283.2C226.901 283.35 226.59 283.538 226.303 283.759C225.12 284.535 223.605 284.664 222.207 284.421C221.304 284.26 220.111 284.013 219.384 283.415C218.832 282.96 218.667 282.255 218.198 281.74C217.869 281.402 217.472 281.138 217.034 280.963C216.596 280.789 216.126 280.708 215.655 280.726C215.183 280.745 214.721 280.862 214.298 281.071C213.875 281.279 213.501 281.574 213.199 281.937Z" fill="#3F3D56"/>
<path d="M206.23 86.8484C213.38 86.8484 219.176 81.0591 219.176 73.9177C219.176 66.7762 213.38 60.9869 206.23 60.9869C199.08 60.9869 193.284 66.7762 193.284 73.9177C193.284 81.0591 199.08 86.8484 206.23 86.8484Z" fill="#FBBEBE"/>
<path d="M196.244 74.6764C197.484 73.9821 197.484 71.9814 198.752 71.3158C200.021 70.6501 201.461 71.8061 202.275 72.9728C203.46 74.6815 204.283 76.6144 204.693 78.6526C204.808 79.2324 204.916 79.8659 205.353 80.2703C205.79 80.6747 206.363 80.7248 206.922 80.7821C208.558 80.9443 210.197 81.0923 211.838 81.2259C213.666 81.3726 215.593 81.4907 217.252 80.7069C217.907 80.4145 218.47 79.9493 218.879 79.3612C219.208 78.7966 219.442 78.1826 219.574 77.5431C220.431 74.2899 221.294 70.9972 221.366 67.633C221.395 66.2444 221.273 64.8057 220.603 63.5888C220.212 62.873 219.639 62.2503 219.478 61.4629C219.316 60.6755 219.836 59.6734 220.653 59.7593C219.914 59.7897 219.179 59.6501 218.503 59.3513C217.854 58.9934 217.374 58.224 217.604 57.5225C215.783 57.7551 214.458 55.9585 213.039 54.7953C212.808 54.5669 212.496 54.4383 212.172 54.4374C211.922 54.4996 211.682 54.5921 211.455 54.713C210.738 54.9635 209.989 54.4875 209.255 54.28C207.284 53.7288 204.779 55.0602 203.317 53.6286C203.457 54.5412 202.336 55.1532 201.411 55.1353C200.487 55.1174 199.534 54.7774 198.659 55.0852C198.786 55.3166 198.86 55.573 198.876 55.8361C198.892 56.0993 198.849 56.3627 198.751 56.6076C198.653 56.8524 198.502 57.0726 198.309 57.2524C198.116 57.4322 197.886 57.5672 197.635 57.6478L198.068 58.5926C197.621 58.6818 197.209 58.8939 196.876 59.2051C196.544 59.5162 196.305 59.914 196.187 60.3534C195.71 62.2324 195.829 64.9023 195.943 66.8349C196.001 67.6831 196.828 74.3579 196.244 74.6764Z" fill="#192534"/>
<path d="M207.29 90.5848C200.787 97.8895 199.131 108.172 197.745 117.853L195.702 132.147C195.172 135.855 194.627 139.563 194.165 143.281C193.843 145.826 193.542 148.41 193.893 150.951C194.169 152.955 194.839 154.888 195.398 156.817C196.852 161.877 197.576 167.118 197.548 172.382C197.981 171.108 199.483 170.592 200.801 170.306C211.865 167.908 223.409 169.139 233.716 173.817C235.526 168.753 235.185 163.212 235.691 157.858C236.407 150.224 238.876 142.827 239.607 135.207C239.876 132.369 239.908 129.517 239.937 126.664C239.958 124.571 239.98 122.455 239.543 120.405C239.055 118.136 238.027 116.02 236.963 113.963C234.021 108.242 230.752 102.695 227.173 97.3491C225.372 94.6577 223.493 92.02 221.537 89.436C220.546 88.1261 219.534 86.8305 218.502 85.5493C217.502 84.3074 217.069 83.2301 215.481 83.9745C212.482 85.3775 209.472 88.1333 207.29 90.5848Z" fill="#3F3D56"/>
<path d="M211.017 151.384C209.43 151.441 207.842 151.391 206.262 151.234C205.09 151.119 203.894 150.947 202.751 151.234C202.254 151.359 201.788 151.587 201.385 151.903C201.236 152.036 201.129 152.209 201.076 152.402C201.024 152.595 201.029 152.799 201.091 152.988C201.153 153.178 201.269 153.346 201.425 153.471C201.581 153.596 201.77 153.673 201.969 153.692L203.195 153.8C203.972 153.868 204.782 153.947 205.388 154.516C205.636 154.739 205.795 155.046 205.832 155.378C205.907 156.212 205.184 156.667 204.535 157.014C203.613 157.446 202.76 158.013 202.005 158.696C201.414 159.266 201.042 160.027 200.955 160.843C200.953 160.916 200.969 160.988 201.003 161.053C201.037 161.117 201.088 161.171 201.149 161.21C201.211 161.249 201.282 161.271 201.355 161.274C201.428 161.276 201.5 161.26 201.565 161.226C202.998 160.51 203.933 158.388 205.506 158.742C204.075 159.195 202.85 160.136 202.045 161.401C201.846 161.704 201.755 162.064 201.788 162.424C201.82 162.784 201.973 163.122 202.221 163.385C202.47 163.647 202.801 163.817 203.159 163.869C203.517 163.92 203.882 163.849 204.195 163.667C204.427 163.531 204.652 163.381 204.868 163.22C205.934 162.358 206.888 161.367 207.71 160.271C206.563 162.686 205.402 165.514 206.721 167.915C206.786 168.047 206.889 168.157 207.016 168.232C207.144 168.307 207.29 168.344 207.437 168.337C207.853 168.295 207.975 167.904 208.043 167.561C208.258 166.455 208.312 165.288 208.856 164.304C210.118 162.021 213.228 161.799 215.596 160.686C218.438 159.369 220.383 156.534 221.168 153.506C221.443 152.623 221.491 151.686 221.308 150.779C220.781 148.743 218.266 148.274 216.65 149.258C214.668 150.514 213.518 151.305 211.017 151.384Z" fill="#FBBEBE"/>
<path opacity="0.1" d="M208.501 111.325C211.01 115.194 215.363 117.373 219.097 120.09C220.008 120.682 220.802 121.437 221.44 122.316C222.383 123.769 222.515 125.616 222.322 127.326C222.078 129.585 221.351 131.757 220.63 133.912L219.065 138.582C218.072 141.545 217.047 144.57 215.159 147.061C214.675 147.694 214.113 148.371 214.134 149.165C214.176 149.624 214.334 150.065 214.593 150.446C215.197 151.431 215.994 152.285 216.935 152.956C217.876 153.628 218.943 154.103 220.072 154.355C220.748 154.526 221.456 154.526 222.132 154.355C223.099 154.068 223.827 153.281 224.5 152.536C227.725 148.983 230.95 145.379 233.279 141.209C235.554 137.14 236.916 132.62 238.17 128.142C238.687 126.494 239.047 124.801 239.245 123.085C239.51 119.864 238.665 116.643 237.282 113.733C235.898 110.824 233.996 108.19 232.036 105.631C230.186 103.117 228.13 100.761 225.891 98.5874C221.992 94.9476 217.223 92.8074 212.006 94.8724C208.322 96.3326 206.943 99.3783 206.613 103.279C206.334 106.096 206.998 108.926 208.501 111.325Z" fill="black"/>
<path d="M209.806 110.344C212.315 114.213 216.672 116.393 220.402 119.109C221.31 119.707 222.1 120.467 222.735 121.349C223.677 122.803 223.81 124.646 223.616 126.36C223.369 128.618 222.645 130.791 221.921 132.945L220.355 137.598C219.363 140.561 218.338 143.582 216.45 146.076C215.97 146.71 215.407 147.383 215.428 148.181C215.468 148.639 215.626 149.08 215.887 149.459C216.491 150.444 217.286 151.298 218.227 151.97C219.167 152.642 220.234 153.118 221.362 153.37C222.039 153.542 222.749 153.542 223.426 153.37C224.394 153.088 225.117 152.297 225.795 151.556C229.019 147.998 232.244 144.398 234.573 140.228C236.849 136.159 238.21 131.639 239.464 127.158C239.982 125.511 240.342 123.819 240.539 122.105C240.805 118.884 239.959 115.663 238.579 112.749C237.2 109.836 235.294 107.205 233.334 104.647C231.477 102.146 229.417 99.8035 227.174 97.6425C223.279 94.0063 218.51 91.8625 213.293 93.9312C209.606 95.3914 208.23 98.4335 207.897 102.338C207.634 105.144 208.305 107.958 209.806 110.344Z" fill="#3F3D56"/>
<path d="M289.038 238.717C289.04 239.651 288.944 240.582 288.751 241.495C288.715 241.667 288.676 241.853 288.636 241.999C287.619 246.076 284.748 249.057 281.323 249.247C281.208 249.247 281.094 249.247 280.965 249.247C277.342 249.247 274.278 246.126 273.268 241.828C273.239 241.713 273.214 241.599 273.189 241.47C272.996 240.557 272.9 239.626 272.902 238.692C272.902 232.869 276.511 228.152 280.965 228.152C285.418 228.152 289.038 232.905 289.038 238.717Z" fill="#3F3D56"/>
<path opacity="0.1" d="M289.037 238.717C289.04 239.651 288.943 240.582 288.75 241.495C288.714 241.667 288.675 241.853 288.636 241.999C288.514 241.999 288.395 241.999 288.277 241.999C287.39 241.952 286.508 241.832 285.64 241.641C284.871 241.879 284.085 242.058 283.289 242.178C282.679 242.27 282.064 242.327 281.448 242.35H280.824C280.086 242.35 279.349 242.301 278.617 242.203C277.434 242.046 276.272 241.758 275.152 241.344C274.539 241.548 273.914 241.716 273.282 241.845C273.253 241.731 273.228 241.616 273.203 241.488C273.009 240.575 272.913 239.644 272.916 238.71C272.916 232.887 276.524 228.17 280.978 228.17C285.432 228.17 289.037 232.905 289.037 238.717Z" fill="black"/>
<path d="M306.236 219.083C306.239 216.521 305.638 213.994 304.48 211.707L294.999 214.653L303.323 209.764C301.927 207.75 300.095 206.075 297.965 204.862C295.834 203.649 293.457 202.93 291.011 202.756C290.622 202.166 290.194 201.602 289.732 201.067L276.116 205.301L287.285 198.741C285.148 197.103 282.64 196.016 279.983 195.577C277.326 195.138 274.602 195.36 272.051 196.223C269.5 197.086 267.202 198.564 265.359 200.525C263.516 202.487 262.186 204.872 261.486 207.47L273.149 220.88L260.497 211.739C257.292 214.01 255.01 217.355 254.067 221.165C253.125 224.975 253.584 228.996 255.361 232.497C257.139 235.997 260.116 238.743 263.751 240.234C267.385 241.725 271.435 241.863 275.163 240.621C278.534 241.859 282.219 241.961 285.654 240.911C288.049 241.438 290.531 241.421 292.919 240.863C295.307 240.305 297.538 239.219 299.45 237.686C301.362 236.152 302.906 234.21 303.967 232.002C305.029 229.794 305.581 227.377 305.584 224.928C305.584 224.57 305.584 224.212 305.548 223.854C306.012 222.307 306.244 220.699 306.236 219.083Z" fill="#57B894"/>
<path opacity="0.1" d="M305.953 222.118C300.946 221.17 295.812 221.105 290.782 221.925C285.088 222.866 279.269 224.935 273.701 223.425C270.433 222.537 267.61 220.483 264.417 219.341C261.337 218.268 258.018 218.069 254.832 218.768C253.618 221.67 253.265 224.859 253.817 227.955C254.369 231.051 255.802 233.923 257.944 236.228C260.086 238.532 262.847 240.172 265.898 240.951C268.948 241.73 272.158 241.616 275.145 240.622C278.517 241.859 282.201 241.961 285.637 240.911C288.031 241.438 290.514 241.421 292.901 240.863C295.289 240.305 297.521 239.219 299.433 237.686C301.345 236.152 302.888 234.21 303.95 232.002C305.011 229.794 305.564 227.377 305.566 224.928C305.566 224.57 305.566 224.212 305.53 223.854C305.703 223.284 305.844 222.704 305.953 222.118Z" fill="black"/>
</svg>
