<svg width="480" height="312" viewBox="0 0 480 312" fill="none" xmlns="http://www.w3.org/2000/svg">
<g clip-path="url(#clip0)">
<path d="M34.3437 163.864C27.3087 169.625 38.8206 220.19 38.8206 220.19C38.8206 220.19 41.3788 297.317 46.815 300.838C52.2512 304.358 64.4027 300.518 69.1993 299.877C73.9959 299.237 69.8388 251.553 62.8038 233.951C55.7687 216.349 61.2049 190.747 61.2049 190.747L99.2583 198.108C99.2583 198.108 76.2344 217.629 77.1937 221.79C78.153 225.95 102.776 240.032 107.253 240.672C111.73 241.312 120.363 215.069 128.038 197.147C135.713 179.226 75.5949 167.704 75.5949 167.704L67.2807 152.023C67.2807 152.023 41.3788 158.104 34.3437 163.864Z" fill="#2F2E41"/>
<path d="M53.4425 302.166C53.4425 302.166 51.122 310.294 53.4425 310.294C55.7629 310.294 60.0171 312.616 66.5918 311.842C73.1665 311.068 71.2327 302.94 66.5918 301.779C61.9509 300.617 63.1111 291.328 63.1111 291.328C61.5641 288.232 54.2159 292.102 54.2159 292.102L53.4425 302.166Z" fill="#2F2E41"/>
<path d="M86.3865 237.53C86.3865 237.53 82.4055 244.986 84.6737 245.475C86.942 245.965 90.6112 249.133 97.2011 249.764C103.791 250.395 103.614 242.041 99.3217 239.927C95.0298 237.812 98.1213 228.977 98.1213 228.977C97.2616 225.624 89.2631 227.856 89.2631 227.856L86.3865 237.53Z" fill="#2F2E41"/>
<path d="M38.6608 94.5773C39.3003 95.8574 36.4224 111.859 36.4224 111.859L38.9806 116.339C38.9806 116.339 53.6903 110.579 51.4519 109.619C49.2134 108.659 49.5332 96.8176 49.5332 96.8176C49.5332 96.8176 38.0213 93.2972 38.6608 94.5773Z" fill="#FFB9B9"/>
<path d="M44.1973 99.5098C55.0257 99.5098 63.8039 90.7245 63.8039 79.8874C63.8039 69.0503 55.0257 60.2651 44.1973 60.2651C33.3688 60.2651 24.5906 69.0503 24.5906 79.8874C24.5906 90.7245 33.3688 99.5098 44.1973 99.5098Z" fill="#2F2E41"/>
<path d="M42.845 69.6373C47.3258 69.6373 50.9581 66.002 50.9581 61.5177C50.9581 57.0334 47.3258 53.3981 42.845 53.3981C38.3643 53.3981 34.7319 57.0334 34.7319 61.5177C34.7319 66.002 38.3643 69.6373 42.845 69.6373Z" fill="#2F2E41"/>
<path d="M46.3945 65.1953C46.6753 65.2245 46.9574 65.2391 47.2397 65.2392C48.3051 65.2392 49.3601 65.0292 50.3444 64.6211C51.3287 64.2131 52.2231 63.615 52.9765 62.861C53.7299 62.107 54.3275 61.212 54.7352 60.2268C55.1429 59.2417 55.3528 58.1859 55.3528 57.1196C55.3528 56.0533 55.1429 54.9975 54.7352 54.0124C54.3275 53.0272 53.7299 52.1322 52.9765 51.3782C52.2231 50.6242 51.3287 50.0261 50.3444 49.6181C49.3601 49.21 48.3051 49 47.2397 49C46.9574 49.0001 46.6753 49.0147 46.3945 49.0439C48.3891 49.253 50.2355 50.194 51.5777 51.6853C52.9198 53.1766 53.6625 55.1126 53.6625 57.1196C53.6625 59.1266 52.9198 61.0626 51.5777 62.5539C50.2355 64.0452 48.3891 64.9862 46.3945 65.1953Z" fill="#2F2E41"/>
<path d="M44.7365 102.898C52.154 102.898 58.1671 96.8803 58.1671 89.4568C58.1671 82.0334 52.154 76.0155 44.7365 76.0155C37.319 76.0155 31.3059 82.0334 31.3059 89.4568C31.3059 96.8803 37.319 102.898 44.7365 102.898Z" fill="#FFB9B9"/>
<path d="M25.3899 110.099C21.2328 111.059 14.1978 121.3 14.1978 121.3L25.3899 132.501C25.3899 132.501 33.3843 162.584 34.3437 163.864C40.6285 172.251 68.8795 153.623 68.8795 153.623C68.8795 153.623 67.7602 144.502 68.3998 140.022C69.0149 135.713 66.0015 127.061 66.0015 127.061C66.0015 127.061 76.5541 122.58 74.3157 118.1C72.0773 113.619 58.3269 103.378 52.5709 106.899C46.815 110.419 35.303 106.899 35.303 106.899C35.303 106.899 29.547 109.139 25.3899 110.099Z" fill="#E6E6E6"/>
<path d="M107.093 174.585C107.093 174.585 125.32 190.267 129.797 187.066C134.274 183.866 112.529 172.665 112.529 172.665L107.093 174.585Z" fill="#FFB9B9"/>
<path d="M25.2302 169.145C27.7885 172.025 39.94 164.664 38.3821 161.395C36.8242 158.127 27.1489 164.664 27.1489 164.664C27.1489 164.664 22.672 166.264 25.2302 169.145Z" fill="#FFB9B9"/>
<path d="M25.3901 125.78L11.9595 150.743C11.9595 150.743 27.3087 163.544 29.2273 163.864C31.146 164.184 25.39 172.505 25.39 172.505C25.39 172.505 8.12213 160.344 1.40683 154.263C-5.30846 148.183 14.1979 121.3 14.1979 121.3L19.9539 117.78L25.3901 125.78Z" fill="#E6E6E6"/>
<path d="M64.4028 124.82L80.0719 149.143C80.0719 149.143 104.055 176.025 107.253 177.306C110.451 178.586 114.288 172.505 114.288 172.505L85.5081 137.622L74.6357 118.1L70.4786 116.5L64.4028 124.82Z" fill="#E6E6E6"/>
<path d="M44.1971 81.6064C51.6651 81.6064 57.719 77.9711 57.719 73.4868C57.719 69.0025 51.6651 65.3672 44.1971 65.3672C36.7292 65.3672 30.6753 69.0025 30.6753 73.4868C30.6753 77.9711 36.7292 81.6064 44.1971 81.6064Z" fill="#2F2E41"/>
<path d="M82.1306 248.676C81.6874 248.677 81.2625 248.853 80.9492 249.167C80.6358 249.48 80.4595 249.905 80.459 250.349V307.407C80.4595 307.85 80.6358 308.276 80.9492 308.589C81.2625 308.903 81.6874 309.079 82.1306 309.08H276.532C276.975 309.079 277.4 308.903 277.714 308.589C278.027 308.275 278.203 307.85 278.204 307.407V250.349C278.203 249.905 278.027 249.48 277.714 249.167C277.4 248.853 276.975 248.677 276.532 248.676L82.1306 248.676Z" fill="#E6E6E6"/>
<path d="M84.6479 304.887H274.015V252.868H84.6479V304.887Z" fill="white"/>
<path d="M250.112 294.096C249.748 294.095 249.388 294.167 249.051 294.306C248.715 294.445 248.409 294.649 248.152 294.906C247.895 295.164 247.69 295.469 247.551 295.806C247.412 296.142 247.34 296.503 247.34 296.867C247.34 297.231 247.412 297.592 247.551 297.928C247.69 298.265 247.895 298.57 248.152 298.828C248.409 299.085 248.715 299.289 249.051 299.428C249.388 299.567 249.748 299.638 250.112 299.638H261.188C261.922 299.638 262.626 299.346 263.146 298.826C263.665 298.307 263.957 297.602 263.957 296.867C263.957 296.132 263.665 295.427 263.146 294.907C262.626 294.388 261.922 294.096 261.188 294.096H250.112Z" fill="#F69964"/>
<path d="M263.957 288.721H136.102V289.45H263.957V288.721Z" fill="#E6E6E6"/>
<path d="M109.376 295.018C118.283 295.018 125.504 287.792 125.504 278.878C125.504 269.964 118.283 262.738 109.376 262.738C100.47 262.738 93.249 269.964 93.249 278.878C93.249 287.792 100.47 295.018 109.376 295.018Z" fill="#F69964"/>
<path d="M104.108 276.456C104.524 274.664 105.316 273.312 106.484 272.4C107.652 271.488 109.148 271.032 110.972 271.032C111.692 271.032 112.308 271.088 112.82 271.2C113.332 271.312 113.844 271.464 114.356 271.656L113.612 274.44C113.228 274.312 112.836 274.208 112.436 274.128C112.036 274.032 111.54 273.984 110.948 273.984C109.988 273.984 109.236 274.192 108.692 274.608C108.164 275.024 107.78 275.64 107.54 276.456H112.868L112.412 278.832H107.228C107.212 279.008 107.204 279.16 107.204 279.288C107.204 279.4 107.204 279.52 107.204 279.648C107.204 279.776 107.204 279.888 107.204 279.984C107.204 280.08 107.212 280.216 107.228 280.392H112.124L111.668 282.768H107.54C107.812 283.728 108.22 284.4 108.764 284.784C109.308 285.152 109.988 285.336 110.804 285.336C111.332 285.336 111.868 285.288 112.412 285.192C112.956 285.096 113.5 284.936 114.044 284.712L114.74 287.472C114.308 287.696 113.748 287.888 113.06 288.048C112.388 288.224 111.596 288.312 110.684 288.312C108.684 288.312 107.156 287.832 106.1 286.872C105.044 285.896 104.348 284.528 104.012 282.768H102.284V280.392H103.796C103.78 280.216 103.772 280.08 103.772 279.984C103.772 279.888 103.772 279.776 103.772 279.648C103.772 279.52 103.772 279.384 103.772 279.24C103.772 279.096 103.78 278.96 103.796 278.832H102.284V276.456H104.108Z" fill="white"/>
<path d="M136.304 284.65L135.9 284.043L149.186 275.178L158.297 279.555L171.401 271.176L197.469 282.305L218.228 272.099L238.386 280.278L263.715 257.826L264.198 258.372L238.531 281.124L218.257 272.897L197.49 283.107L171.469 271.998L158.347 280.388L149.245 276.016L136.304 284.65Z" fill="#3F3D56"/>
<path d="M138.47 294.477C138.159 294.477 137.85 294.538 137.563 294.657C137.275 294.775 137.014 294.95 136.794 295.17C136.573 295.39 136.399 295.651 136.28 295.939C136.16 296.227 136.099 296.535 136.099 296.847C136.099 297.158 136.16 297.466 136.28 297.754C136.399 298.042 136.573 298.303 136.794 298.523C137.014 298.743 137.275 298.918 137.563 299.037C137.85 299.156 138.159 299.217 138.47 299.216H163.239C163.867 299.215 164.468 298.965 164.912 298.521C165.355 298.077 165.604 297.475 165.604 296.847C165.604 296.219 165.355 295.616 164.912 295.172C164.468 294.728 163.867 294.478 163.239 294.477H138.47Z" fill="#E6E6E6"/>
<path d="M107.445 65.9148C107.002 65.9153 106.577 66.0917 106.264 66.4054C105.95 66.719 105.774 67.1442 105.773 67.5877V124.645C105.774 125.089 105.95 125.514 106.264 125.828C106.577 126.141 107.002 126.318 107.445 126.318H301.847C302.29 126.318 302.715 126.141 303.028 125.828C303.341 125.514 303.518 125.089 303.518 124.645V67.5877C303.518 67.1442 303.341 66.719 303.028 66.4054C302.715 66.0917 302.29 65.9153 301.847 65.9148L107.445 65.9148Z" fill="#E6E6E6"/>
<path d="M109.962 122.126H299.329V70.1071H109.962V122.126Z" fill="white"/>
<path d="M275.427 111.335C274.692 111.335 273.988 111.626 273.469 112.146C272.949 112.666 272.658 113.371 272.658 114.106C272.658 114.841 272.949 115.545 273.469 116.065C273.988 116.585 274.692 116.877 275.427 116.877H286.502C287.237 116.877 287.941 116.585 288.46 116.065C288.979 115.545 289.271 114.841 289.271 114.106C289.271 113.371 288.979 112.666 288.46 112.146C287.941 111.626 287.237 111.335 286.502 111.335H275.427Z" fill="#F69964"/>
<path d="M289.271 105.959H161.417V106.689H289.271V105.959Z" fill="#E6E6E6"/>
<path d="M135.127 112.281C144.034 112.281 151.255 105.054 151.255 96.1403C151.255 87.2263 144.034 80 135.127 80C126.22 80 119 87.2263 119 96.1403C119 105.054 126.22 112.281 135.127 112.281Z" fill="#F69964"/>
<path d="M134.3 95.544H138.284V98.448H134.3C134.284 99.008 134.244 99.608 134.18 100.248C134.132 100.888 134.068 101.472 133.988 102H140.252V105H130.052C130.34 103.72 130.532 102.536 130.628 101.448C130.724 100.36 130.788 99.36 130.82 98.448H128.732V95.544H130.82V94.272C130.82 93.072 130.964 92.08 131.252 91.296C131.54 90.496 131.932 89.856 132.428 89.376C132.94 88.896 133.548 88.56 134.252 88.368C134.956 88.16 135.724 88.056 136.556 88.056C137.196 88.056 137.796 88.12 138.356 88.248C138.916 88.376 139.46 88.552 139.988 88.776L139.1 91.584C138.732 91.408 138.38 91.28 138.044 91.2C137.724 91.12 137.332 91.072 136.868 91.056C136.484 91.056 136.132 91.096 135.812 91.176C135.508 91.256 135.244 91.408 135.02 91.632C134.796 91.856 134.62 92.16 134.492 92.544C134.364 92.928 134.3 93.408 134.3 93.984V95.544Z" fill="white"/>
<path d="M161.618 101.888L161.215 101.281L174.5 92.417L183.611 96.7937L196.716 88.4148L196.892 88.4901L222.783 99.5435L243.542 89.3379L263.7 97.5167L289.03 75.0641L289.513 75.61L263.845 98.3621L243.571 90.1361L222.805 100.345L196.784 89.2364L183.662 97.6267L174.559 93.2539L161.618 101.888Z" fill="#3F3D56"/>
<path d="M163.784 111.716C163.157 111.717 162.555 111.967 162.112 112.411C161.668 112.855 161.419 113.457 161.419 114.085C161.419 114.713 161.668 115.316 162.112 115.76C162.555 116.204 163.157 116.454 163.784 116.455H188.554C189.182 116.455 189.784 116.205 190.228 115.761C190.672 115.316 190.921 114.714 190.921 114.085C190.921 113.457 190.672 112.854 190.228 112.41C189.784 111.965 189.182 111.716 188.554 111.716H163.784Z" fill="#E6E6E6"/>
<path d="M183.927 157.295C183.484 157.296 183.059 157.472 182.745 157.786C182.432 158.1 182.256 158.525 182.255 158.968V216.026C182.256 216.47 182.432 216.895 182.745 217.208C183.059 217.522 183.484 217.698 183.927 217.699H378.328C378.772 217.698 379.196 217.522 379.51 217.208C379.823 216.895 379.999 216.47 380 216.026V158.968C379.999 158.525 379.823 158.1 379.51 157.786C379.196 157.472 378.772 157.296 378.328 157.295L183.927 157.295Z" fill="#E6E6E6"/>
<path d="M186.444 213.507H375.811V161.488H186.444V213.507Z" fill="white"/>
<path d="M351.908 202.715C351.174 202.715 350.47 203.007 349.95 203.527C349.431 204.047 349.139 204.751 349.139 205.486C349.139 206.221 349.431 206.926 349.95 207.446C350.47 207.965 351.174 208.257 351.908 208.257H362.984C363.718 208.257 364.423 207.965 364.942 207.446C365.461 206.926 365.753 206.221 365.753 205.486C365.753 204.751 365.461 204.047 364.942 203.527C364.423 203.007 363.718 202.715 362.984 202.715H351.908Z" fill="#F69964"/>
<path d="M365.753 197.34H237.898V198.069H365.753V197.34Z" fill="#E6E6E6"/>
<path d="M211.173 203.638C220.08 203.638 227.3 196.411 227.3 187.497C227.3 178.583 220.08 171.357 211.173 171.357C202.266 171.357 195.045 178.583 195.045 187.497C195.045 196.411 202.266 203.638 211.173 203.638Z" fill="#F69964"/>
<path d="M209.484 195.76C208.316 195.664 207.364 195.488 206.628 195.232C205.908 194.96 205.372 194.736 205.02 194.56L206.052 191.8C206.612 192.072 207.276 192.32 208.044 192.544C208.828 192.768 209.652 192.88 210.516 192.88C211.492 192.88 212.156 192.752 212.508 192.496C212.876 192.224 213.06 191.848 213.06 191.368C213.06 191.064 212.988 190.808 212.844 190.6C212.7 190.376 212.492 190.176 212.22 190C211.948 189.824 211.604 189.656 211.188 189.496C210.772 189.32 210.292 189.136 209.748 188.944C209.22 188.752 208.7 188.544 208.188 188.32C207.692 188.08 207.236 187.792 206.82 187.456C206.42 187.12 206.092 186.712 205.836 186.232C205.596 185.736 205.476 185.144 205.476 184.456C205.476 183.928 205.548 183.424 205.692 182.944C205.852 182.448 206.092 182 206.412 181.6C206.732 181.2 207.148 180.864 207.66 180.592C208.172 180.304 208.78 180.096 209.484 179.968V177.376H212.508V179.872C213.34 179.952 214.052 180.072 214.644 180.232C215.252 180.392 215.732 180.552 216.084 180.712L215.34 183.592C214.812 183.368 214.196 183.176 213.492 183.016C212.804 182.856 212.076 182.776 211.308 182.776C210.54 182.776 209.988 182.904 209.652 183.16C209.316 183.416 209.148 183.752 209.148 184.168C209.148 184.424 209.196 184.648 209.292 184.84C209.404 185.016 209.572 185.176 209.796 185.32C210.02 185.464 210.292 185.608 210.612 185.752C210.948 185.88 211.348 186.024 211.812 186.184C212.516 186.44 213.164 186.72 213.756 187.024C214.364 187.328 214.884 187.68 215.316 188.08C215.764 188.464 216.108 188.92 216.348 189.448C216.604 189.976 216.732 190.592 216.732 191.296C216.732 191.776 216.66 192.256 216.516 192.736C216.372 193.2 216.132 193.632 215.796 194.032C215.46 194.432 215.02 194.776 214.476 195.064C213.948 195.352 213.292 195.56 212.508 195.688V198.616H209.484V195.76Z" fill="white"/>
<path d="M238.1 193.269L237.696 192.662L250.982 183.798L260.093 188.175L273.197 179.796L273.374 179.871L299.265 190.924L320.024 180.719L340.182 188.897L365.511 166.445L365.994 166.991L340.327 189.743L320.053 181.517L299.286 191.726L273.266 180.617L260.143 189.008L251.041 184.635L238.1 193.269Z" fill="#3F3D56"/>
<path d="M240.266 203.096C239.638 203.096 239.036 203.346 238.592 203.79C238.148 204.235 237.898 204.837 237.898 205.466C237.898 206.094 238.148 206.697 238.592 207.141C239.036 207.586 239.638 207.835 240.266 207.835H265.036C265.664 207.835 266.266 207.586 266.71 207.141C267.154 206.697 267.403 206.094 267.403 205.466C267.403 204.837 267.154 204.235 266.71 203.79C266.266 203.346 265.664 203.096 265.036 203.096H240.266Z" fill="#E6E6E6"/>
</g>
<defs>
<clipPath id="clip0">
<rect width="480" height="312" fill="white"/>
</clipPath>
</defs>
</svg>
