<svg width="480" height="312" viewBox="0 0 480 312" fill="none" xmlns="http://www.w3.org/2000/svg">
<path d="M324.249 61.3163H324.249C304.86 61.3163 289.142 78.7512 289.142 100.258V127.583H297.55L302.418 117.459L301.201 127.583H355.245L359.67 118.379L358.564 127.583H364.649V106.128C364.649 81.3793 346.561 61.3163 324.249 61.3163Z" fill="#2F2E41"/>
<path d="M307.303 110.428C307.303 110.428 318.26 135.983 303.65 141.095L318.26 189.285L343.098 187.824L349.673 171.761L348.212 147.666L346.02 131.603C346.02 131.603 330.679 135.253 332.14 108.238L307.303 110.428Z" fill="#FFB8B8"/>
<path d="M301.459 140.364C301.459 140.364 277.351 138.174 279.543 155.698C281.734 173.221 283.926 176.872 283.926 176.872L286.117 203.158L272.968 211.189H260.549C260.549 211.189 222.562 219.951 241.556 229.443C260.549 238.935 267.124 222.142 267.124 222.142C267.124 222.142 302.189 222.142 304.381 216.3C306.572 210.459 301.459 140.364 301.459 140.364Z" fill="#FFB8B8"/>
<path d="M348.212 133.063C348.212 133.063 370.858 125.031 372.319 142.555C373.78 160.078 373.78 161.539 373.78 161.539L378.163 186.364C378.163 186.364 386.93 208.269 386.93 214.84C386.93 221.411 393.504 241.856 393.504 241.856C393.504 241.856 402.271 270.332 392.774 269.601C383.277 268.871 381.816 238.935 381.816 238.935L362.092 199.507L356.248 175.412L348.212 133.063Z" fill="#FFB8B8"/>
<path d="M305.111 137.444H299.267L298.536 168.11C298.536 168.11 289.04 181.253 300.728 192.935L303.65 211.919L356.978 209.729L360.631 190.015C360.631 190.015 367.936 173.951 357.709 159.348L348.212 129.412H343.098C343.098 129.412 354.942 173.059 329.949 173.951C309.494 174.682 305.111 137.444 305.111 137.444Z" fill="#EE6071"/>
<path d="M331.234 311.481C331.327 302.195 331.408 296.619 331.408 296.619C331.408 296.619 330.857 302.195 329.921 311.481H272.547C287.708 263.736 301.611 224.497 302.174 222.922C302.177 222.904 302.182 222.887 302.189 222.871L303.96 216.977V216.973L304.709 214.474V214.462L305.501 211.843L306.573 208.269L354.054 206.81L355.382 209.794L359.901 219.949C360.294 220.062 360.666 220.238 361.004 220.469C369.13 225.789 379.274 264.764 388.522 311.481L331.234 311.481Z" fill="#2F2E41"/>
<path d="M359.17 200.967L301.458 203.158C301.458 203.158 298.824 222.872 301.458 222.872C302.189 222.872 362.092 227.983 361.361 219.221C360.631 210.459 359.17 200.967 359.17 200.967Z" fill="#2F2E41"/>
<path d="M318.593 118.791C329.93 118.791 339.12 109.606 339.12 98.2752C339.12 86.9447 329.93 77.7595 318.593 77.7595C307.257 77.7595 298.067 86.9447 298.067 98.2752C298.067 109.606 307.257 118.791 318.593 118.791Z" fill="#FFB8B8"/>
<path d="M334.23 72.0435C330.705 67.507 325.506 64.6336 319.702 64.6336H319.012C305.723 64.6336 294.95 76.653 294.95 91.4797V91.4797H299.403L300.122 86.0087L301.176 91.4797H327.587L329.799 86.8511L329.246 91.4797H334.442C336.866 103.514 333.383 115.549 323.991 127.583H332.842L337.267 118.326L336.161 127.583H353.032L356.351 106.291C356.351 90.3458 347.082 76.8242 334.23 72.0435Z" fill="#2F2E41"/>
<path d="M339.08 74.2855C346.342 74.2855 352.23 68.4013 352.23 61.1428C352.23 53.8842 346.342 48 339.08 48C331.818 48 325.931 53.8842 325.931 61.1428C325.931 68.4013 331.818 74.2855 339.08 74.2855Z" fill="#2F2E41"/>
<path d="M224.187 183.888C234.087 183.888 242.112 175.867 242.112 165.972C242.112 156.078 234.087 148.056 224.187 148.056C214.287 148.056 206.262 156.078 206.262 165.972C206.262 175.867 214.287 183.888 224.187 183.888Z" fill="#F69964"/>
<path d="M95.7017 151.963C95.6957 152.476 95.5641 152.98 95.3184 153.431C95.0727 153.882 94.7205 154.266 94.2923 154.55L94.1744 154.623H41.0742L41.2878 153.973C41.3247 153.857 45.2117 142.583 62.4199 144.76C64.043 144.205 79.8809 139.036 89.3616 144.843C93.5679 147.42 95.7017 149.815 95.7017 151.963Z" fill="#F2F2F2"/>
<path d="M180.496 243.688C185.841 243.803 190.092 247.674 190.092 247.674C190.092 247.674 185.679 251.36 180.334 251.245C174.989 251.13 170.738 247.259 170.738 247.259C170.738 247.259 175.152 243.574 180.496 243.688Z" fill="#F69964"/>
<path d="M153.626 225.454C158.455 227.747 163.992 226.192 163.992 226.192C163.992 226.192 161.7 220.92 156.871 218.627C152.043 216.334 146.506 217.889 146.506 217.889C146.506 217.889 148.798 223.161 153.626 225.454Z" fill="#F69964"/>
<path d="M154.117 223.175C159.441 222.689 164.1 226.058 164.1 226.058C164.1 226.058 160.129 230.216 154.805 230.702C149.482 231.189 144.822 227.819 144.822 227.819C144.822 227.819 148.793 223.662 154.117 223.175Z" fill="#3F3D56"/>
<path d="M173.632 224.097C173.122 229.415 176.472 234.088 176.472 234.088C176.472 234.088 180.649 230.137 181.16 224.818C181.67 219.499 178.32 214.827 178.32 214.827C178.32 214.827 174.142 218.778 173.632 224.097Z" fill="#3F3D56"/>
<path d="M198.704 256.716C195.912 261.272 196.873 266.94 196.873 266.94C196.873 266.94 202.36 265.22 205.153 260.664C207.945 256.108 206.984 250.44 206.984 250.44C206.984 250.44 201.496 252.16 198.704 256.716Z" fill="#3F3D56"/>
<path d="M190.603 306.255L191.01 305.98C189.576 303.9 188.792 301.44 188.76 298.914C188.771 295.218 190.587 291.8 192.344 288.494C192.67 287.881 192.995 287.269 193.307 286.658C194.619 284.166 195.665 281.542 196.427 278.831C199.151 268.712 196.469 256.773 189.252 246.895C183.527 239.059 174.993 232.207 163.161 225.947L162.932 226.381C174.695 232.605 183.175 239.41 188.855 247.185C195.985 256.944 198.639 268.727 195.953 278.703C195.2 281.381 194.166 283.973 192.87 286.435C192.559 287.044 192.235 287.653 191.91 288.264C190.126 291.622 188.281 295.095 188.269 298.912C188.301 301.537 189.114 304.093 190.603 306.255Z" fill="#3F3D56"/>
<path d="M139.84 226.592C142.417 226.592 144.506 224.504 144.506 221.929C144.506 219.354 142.417 217.266 139.84 217.266C137.264 217.266 135.175 219.354 135.175 221.929C135.175 224.504 137.264 226.592 139.84 226.592Z" fill="#3F3D56"/>
<path d="M257.344 311.764H0.498535L4.83256 306.314L68.4226 226.351L71.3497 222.67L97.6236 189.631L128.921 150.274L169.199 200.923L257.344 311.764Z" fill="#1EA5C2"/>
<path d="M171.156 201.844C169.501 202.825 167.774 203.678 165.989 204.396C156.891 208.01 146.773 208.11 137.605 204.676C126.765 200.563 117.755 191.645 106.277 190.004C102.765 189.502 99.2171 189.722 95.6665 189.934L128.676 148.426L171.156 201.844Z" fill="#F2F2F2"/>
<path d="M183.364 148.538C184.238 151.242 183.658 154.183 182.945 156.933C182.233 159.684 181.385 162.498 181.749 165.316C182.536 171.405 188.502 175.31 194.039 177.969C199.576 180.627 205.806 183.386 208.247 189.02C209.596 192.137 209.533 195.653 210.058 199.008C211.198 206.091 214.967 212.484 220.614 216.914C215.912 216.802 211.7 213.945 208.372 210.624C205.044 207.303 202.283 203.417 198.701 200.37C193.874 196.264 187.846 193.913 182.179 191.074C176.513 188.234 170.867 184.585 167.934 178.968C164.936 173.227 165.267 166.207 167.367 160.079C168.926 155.529 171.793 148.468 175.485 145.219C178.391 142.662 182.265 145.139 183.364 148.538Z" fill="#F2F2F2"/>
<path d="M329.809 275.919H160.625V311.751H329.809V275.919Z" fill="#F2F2F2"/>
<path d="M155.223 279.846L173.64 241.313H320.724L334.475 279.846H155.223Z" fill="#3F3D56"/>
<path d="M269.404 243.768H201.141V266.347H269.404V243.768Z" fill="#F2F2F2"/>
<path d="M205.561 225.361L194.756 247.94H275.788L269.404 225.361H205.561Z" fill="#3F3D56"/>
<path d="M261.055 283.036H207.157V311.751H261.055V283.036Z" fill="#CCCCCC"/>
<path d="M195.985 284.018H167.255V311.751H195.985V284.018Z" fill="#CCCCCC"/>
<path d="M285.241 285.736H270.386V311.751H285.241V285.736Z" fill="#3F3D56"/>
<path d="M308.569 287.208H301.325V293.957H308.569V287.208Z" fill="#F69964"/>
<path d="M318.268 287.208H311.024V293.957H318.268V287.208Z" fill="#F69964"/>
<path d="M308.569 296.412H301.325V303.406H308.569V296.412Z" fill="#F69964"/>
<path d="M318.268 296.412H311.024V303.406H318.268V296.412Z" fill="#F69964"/>
<path d="M213.071 249.946H207.402V255.228H213.071V249.946Z" fill="#F69964"/>
<path d="M220.662 249.946H214.993V255.228H220.662V249.946Z" fill="#F69964"/>
<path d="M213.071 257.149H207.402V262.623H213.071V257.149Z" fill="#F69964"/>
<path d="M220.662 257.149H214.993V262.623H220.662V257.149Z" fill="#F69964"/>
<path d="M255.552 249.946H249.883V255.228H255.552V249.946Z" fill="#F69964"/>
<path d="M263.142 249.946H257.473V255.228H263.142V249.946Z" fill="#F69964"/>
<path d="M255.552 257.149H249.883V262.623H255.552V257.149Z" fill="#F69964"/>
<path d="M263.142 257.149H257.473V262.623H263.142V257.149Z" fill="#F69964"/>
<path d="M234.434 249.946H228.765V255.228H234.434V249.946Z" fill="#F69964"/>
<path d="M242.025 249.946H236.356V255.228H242.025V249.946Z" fill="#F69964"/>
<path d="M234.434 257.149H228.765V262.623H234.434V257.149Z" fill="#F69964"/>
<path d="M242.025 257.149H236.356V262.623H242.025V257.149Z" fill="#F69964"/>
<path d="M277.271 288.371H273.701V291.697H277.271V288.371Z" fill="#F2F2F2"/>
<path d="M282.049 288.371H278.48V291.697H282.049V288.371Z" fill="#F2F2F2"/>
<path d="M277.271 292.906H273.701V296.353H277.271V292.906Z" fill="#F2F2F2"/>
<path d="M282.049 292.906H278.48V296.353H282.049V292.906Z" fill="#F2F2F2"/>
<path d="M283.278 301.566C283.82 301.566 284.26 301.126 284.26 300.584C284.26 300.042 283.82 299.602 283.278 299.602C282.735 299.602 282.295 300.042 282.295 300.584C282.295 301.126 282.735 301.566 283.278 301.566Z" fill="#F2F2F2"/>
<path d="M224.064 219.475H215.961V221.421H217.582V227.083H222.444V221.421H224.064V219.475Z" fill="#F2F2F2"/>
<path d="M207.467 303.403C206.071 308.561 201.289 311.755 201.289 311.755C201.289 311.755 198.771 306.588 200.167 301.43C201.563 296.272 206.345 293.078 206.345 293.078C206.345 293.078 208.863 298.246 207.467 303.403Z" fill="#6ECF6B"/>
<path d="M194.767 303.403C196.163 308.561 200.945 311.755 200.945 311.755C200.945 311.755 203.463 306.588 202.067 301.43C200.671 296.272 195.89 293.078 195.89 293.078C195.89 293.078 193.371 298.246 194.767 303.403Z" fill="#9EDA9C"/>
<path d="M196.819 302.295C200.649 306.022 201.117 311.751 201.117 311.751C201.117 311.751 195.375 311.438 191.544 307.711C187.713 303.984 187.246 298.255 187.246 298.255C187.246 298.255 192.988 298.568 196.819 302.295Z" fill="#3F3D56"/>
<path d="M205.416 302.295C201.585 306.022 201.117 311.751 201.117 311.751C201.117 311.751 206.86 311.438 210.69 307.711C214.521 303.984 214.989 298.255 214.989 298.255C214.989 298.255 209.246 298.568 205.416 302.295Z" fill="#3F3D56"/>
<path d="M261.51 171.902C261.504 172.415 261.373 172.919 261.127 173.37C260.881 173.821 260.529 174.205 260.101 174.489L259.983 174.562H206.883L207.096 173.912C207.133 173.796 211.02 162.522 228.228 164.699C229.852 164.144 245.69 158.975 255.17 164.782C259.377 167.359 261.51 169.754 261.51 171.902Z" fill="#F2F2F2"/>
<path d="M98.0543 234.275C98.0482 234.788 97.9166 235.292 97.671 235.743C97.4253 236.194 97.073 236.578 96.6448 236.862L96.527 236.935H43.4268L43.6404 236.285C43.6772 236.169 47.5643 224.895 64.7724 227.072C66.3955 226.517 82.2335 221.348 91.7142 227.155C95.9205 229.732 98.0543 232.127 98.0543 234.275Z" fill="#F2F2F2"/>
</svg>
