<svg width="480" height="312" viewBox="0 0 480 312" fill="none" xmlns="http://www.w3.org/2000/svg">
<path d="M166.562 37.068L160.327 41.0267L164.111 34.1382C163.04 33.2829 161.714 32.8092 160.343 32.7919H160.243C159.809 32.7997 159.376 32.7688 158.949 32.6994L156.836 34.0378L157.74 32.39C156.242 31.8658 154.948 30.8811 154.043 29.5767L150.263 31.9881L152.665 27.6356C150.456 24.9831 147.475 23.3514 144.193 23.3514C140.259 23.3514 136.756 25.6944 134.494 29.3396C133.825 30.4341 132.878 31.331 131.748 31.9384C130.619 32.5457 129.348 32.8417 128.066 32.7959H127.857C123.514 32.7959 119.995 37.7231 119.995 43.7958C119.995 49.8684 123.514 54.7956 127.857 54.7956C128.811 54.7921 129.75 54.5576 130.593 54.1124C133.426 52.6374 137.146 52.6093 140.111 53.9235C141.384 54.4918 142.762 54.7856 144.156 54.7856C145.551 54.7856 146.929 54.4918 148.202 53.9235C149.695 53.2762 151.309 52.9574 152.936 52.9886C154.563 53.0198 156.164 53.4003 157.631 54.1044C158.469 54.5415 159.398 54.7717 160.343 54.7755C164.686 54.7755 168.205 49.8523 168.205 43.7757C168.227 41.4375 167.662 39.1312 166.562 37.068Z" fill="#F2F2F2"/>
<path opacity="0.03" d="M154.811 53.1639C152.542 52.7333 150.196 52.9894 148.073 53.8994C146.801 54.4676 145.423 54.7613 144.03 54.7613C142.636 54.7613 141.259 54.4676 139.986 53.8994C138.481 53.239 136.85 52.9135 135.207 52.9454C133.564 52.9773 131.947 53.3659 130.469 54.0842C129.626 54.5326 128.687 54.7685 127.733 54.7715C123.872 54.7715 120.666 50.8852 119.995 45.757C120.766 45.1939 121.421 44.487 121.924 43.6752C124.185 40.03 127.689 37.691 131.622 37.691C135.555 37.691 139.018 40.0019 141.264 43.6109C141.939 44.6998 142.883 45.596 144.006 46.2128C145.128 46.8295 146.391 47.146 147.672 47.1315H147.772C150.858 47.1114 153.517 49.575 154.811 53.1639Z" fill="black"/>
<path d="M353.002 90.6406V231.537C353.002 231.917 352.928 232.294 352.782 232.646C352.636 232.997 352.423 233.317 352.154 233.586C351.885 233.855 351.566 234.068 351.214 234.214C350.863 234.359 350.486 234.434 350.106 234.434H63.0186C62.6384 234.434 62.2619 234.359 61.9107 234.214C61.5595 234.068 61.2404 233.855 60.9718 233.585C60.7031 233.316 60.4901 232.997 60.345 232.645C60.1999 232.294 60.1255 231.917 60.126 231.537V90.6406C60.1255 90.2602 60.1999 89.8835 60.345 89.532C60.4901 89.1805 60.7031 88.861 60.9718 88.5919C61.2404 88.3227 61.5595 88.1092 61.9107 87.9636C62.2619 87.8179 62.6384 87.7429 63.0186 87.7429H350.106C350.874 87.7429 351.611 88.0482 352.154 88.5916C352.697 89.135 353.002 89.8721 353.002 90.6406Z" fill="#3F3D56"/>
<path d="M353.002 89.676V96.1827H60.126V89.676C60.126 89.1633 60.3296 88.6716 60.692 88.3091C61.0544 87.9466 61.5459 87.7429 62.0584 87.7429H351.07C351.583 87.7429 352.074 87.9466 352.436 88.3091C352.799 88.6716 353.002 89.1633 353.002 89.676Z" fill="#CBCEDA"/>
<path d="M66.5542 93.7713C67.6636 93.7713 68.5629 92.8716 68.5629 91.7618C68.5629 90.652 67.6636 89.7524 66.5542 89.7524C65.4448 89.7524 64.5454 90.652 64.5454 91.7618C64.5454 92.8716 65.4448 93.7713 66.5542 93.7713Z" fill="#F69964"/>
<path d="M72.1787 93.7713C73.2881 93.7713 74.1874 92.8716 74.1874 91.7618C74.1874 90.652 73.2881 89.7524 72.1787 89.7524C71.0693 89.7524 70.1699 90.652 70.1699 91.7618C70.1699 92.8716 71.0693 93.7713 72.1787 93.7713Z" fill="#F69964"/>
<path d="M77.8032 93.7713C78.9126 93.7713 79.8119 92.8716 79.8119 91.7618C79.8119 90.652 78.9126 89.7524 77.8032 89.7524C76.6938 89.7524 75.7944 90.652 75.7944 91.7618C75.7944 92.8716 76.6938 93.7713 77.8032 93.7713Z" fill="#F69964"/>
<path opacity="0.2" d="M305.925 190.616V214.802L106.978 214.91L106.797 166.562C108.899 172.756 114.085 173.869 123.217 162.945C145.534 136.284 175.87 129.267 199.353 128.531C215.423 128.025 231.457 131.344 246.759 137.939C253.115 140.684 278.233 143.638 294.809 144.957C297.817 145.194 300.626 146.555 302.677 148.77C304.728 150.984 305.87 153.89 305.877 156.909L305.925 190.616Z" fill="#F69964"/>
<path opacity="0.2" d="M305.925 166.964V215.031H106.797V204.582C112.49 203.147 133.783 197.629 143.991 182.389C156.205 164.143 172.805 159.344 185.649 158.842C194.451 158.492 203.214 160.755 211.578 165.272C220.987 170.352 239.126 176.481 252.906 158.689C268.149 139.017 291.563 155.229 297.501 161.189C299.622 163.295 305.925 166.964 305.925 166.964Z" fill="#F69964"/>
<path d="M106.797 115.988V214.275H305.925" stroke="#F69964" stroke-width="2" stroke-miterlimit="10"/>
<path d="M131.887 214.275V154.357" stroke="#F69964" stroke-miterlimit="10"/>
<path d="M156.056 214.275V138.329" stroke="#F69964" stroke-miterlimit="10"/>
<path d="M180.226 214.275V130.705" stroke="#F69964" stroke-miterlimit="10"/>
<path d="M204.395 214.275V128.342" stroke="#F69964" stroke-miterlimit="10"/>
<path d="M228.564 214.275V130.971" stroke="#F69964" stroke-miterlimit="10"/>
<path d="M252.733 214.275V140.693" stroke="#F69964" stroke-miterlimit="10"/>
<path d="M276.903 214.275V145.684" stroke="#F69964" stroke-miterlimit="10"/>
<path d="M131.754 158.038C134.221 158.038 136.222 156.037 136.222 153.569C136.222 151.101 134.221 149.1 131.754 149.1C129.287 149.1 127.287 151.101 127.287 153.569C127.287 156.037 129.287 158.038 131.754 158.038Z" fill="#F69964"/>
<path d="M155.924 142.798C158.391 142.798 160.391 140.798 160.391 138.329C160.391 135.861 158.391 133.86 155.924 133.86C153.456 133.86 151.456 135.861 151.456 138.329C151.456 140.798 153.456 142.798 155.924 142.798Z" fill="#F69964"/>
<path d="M180.093 135.44C182.56 135.44 184.56 133.439 184.56 130.971C184.56 128.502 182.56 126.502 180.093 126.502C177.626 126.502 175.625 128.502 175.625 130.971C175.625 133.439 177.626 135.44 180.093 135.44Z" fill="#F69964"/>
<path d="M204.259 132.811C206.726 132.811 208.726 130.81 208.726 128.342C208.726 125.874 206.726 123.873 204.259 123.873C201.791 123.873 199.791 125.874 199.791 128.342C199.791 130.81 201.791 132.811 204.259 132.811Z" fill="#F69964"/>
<path d="M228.427 135.44C230.895 135.44 232.895 133.439 232.895 130.971C232.895 128.502 230.895 126.502 228.427 126.502C225.96 126.502 223.96 128.502 223.96 130.971C223.96 133.439 225.96 135.44 228.427 135.44Z" fill="#F69964"/>
<path d="M252.597 145.423C255.064 145.423 257.064 143.422 257.064 140.954C257.064 138.485 255.064 136.485 252.597 136.485C250.13 136.485 248.129 138.485 248.129 140.954C248.129 143.422 250.13 145.423 252.597 145.423Z" fill="#F69964"/>
<path d="M276.766 150.68C279.234 150.68 281.234 148.679 281.234 146.211C281.234 143.742 279.234 141.741 276.766 141.741C274.299 141.741 272.299 143.742 272.299 146.211C272.299 148.679 274.299 150.68 276.766 150.68Z" fill="#F69964"/>
<path opacity="0.1" d="M206.5 312C320.547 312 413 308.221 413 303.56C413 298.899 320.547 295.12 206.5 295.12C92.4532 295.12 0 298.899 0 303.56C0 308.221 92.4532 312 206.5 312Z" fill="black"/>
<path d="M23.1168 156.756C23.1007 157.104 22.988 157.441 22.7914 157.729C24.3984 157.681 25.8246 156.624 27.3071 156.121C27.0419 157.681 27.3071 159.529 27.508 160.856C27.7017 162.142 28.022 163.406 28.4641 164.629C29.4806 168.998 31.3326 173.294 32.9918 177.49C33.7071 179.153 34.2458 180.887 34.5989 182.662C35.7278 189.434 31.8228 195.985 31.0835 202.805C31.0272 203.181 31.0272 203.563 31.0835 203.939C31.0171 204.009 30.9579 204.086 30.9068 204.168C28.1789 208.355 28.5324 215.364 29.0226 220.324C29.5127 225.283 31.0835 230.066 32.566 234.828C33.0077 236.141 33.3527 237.484 33.5985 238.847C33.834 240.713 33.8717 242.599 33.711 244.474C33.2209 253.199 31.9915 262 33.4418 270.597C34.4984 276.862 36.8045 282.561 37.0576 288.907C37.2488 288.439 37.5524 288.025 37.9414 287.701L38.3753 304.368C38.3553 304.524 38.3734 304.682 38.428 304.829C38.4826 304.976 38.572 305.107 38.6887 305.212C38.998 305.409 39.3998 305.212 39.7654 305.16C40.826 305.031 41.505 306.185 42.208 306.984C43.2646 308.19 44.8917 308.761 46.4867 308.885C48.0923 308.945 49.699 308.8 51.2675 308.451C52.0027 308.319 52.7821 308.166 53.3325 307.647C53.6141 307.36 53.8241 307.011 53.9455 306.628C54.067 306.244 54.0964 305.838 54.0315 305.441C53.7182 302.985 51.0747 301.587 49.7449 299.493C48.174 297.017 48.5396 293.702 47.0049 291.198C46.4786 290.342 45.7515 289.618 45.2814 288.73C45.0443 288.183 44.8574 287.615 44.723 287.034C45.2 287.178 45.6524 287.394 46.0648 287.673C45.9202 286.371 45.7716 285.065 45.6269 283.759L45.5626 283.196C45.3658 281.432 45.1609 279.672 45.0163 277.903C44.5221 272.084 46.1733 266.381 45.0163 260.654C44.7752 259.448 45.1609 258.19 45.5184 257.005C47.5498 250.251 48.7888 243.283 49.2105 236.243C49.3552 233.759 49.3512 231.364 50.1466 229.009C51.0787 232.807 53.9592 235.801 55.7711 239.285C56.888 241.455 57.583 243.827 58.8003 245.941C59.3869 246.969 60.102 247.95 60.4756 249.067C61.0542 250.816 60.7488 252.713 60.4756 254.537C59.1699 263.982 59.3226 273.595 59.7404 283.12C59.3436 286.765 58.5059 290.348 57.2456 293.79C56.7474 295.149 56.205 296.732 56.9764 297.958C57.3017 298.407 57.711 298.789 58.1816 299.083C59.3235 299.896 60.524 300.622 61.7733 301.257C62.1444 301.501 62.5905 301.604 63.0308 301.547C63.3039 301.452 63.5612 301.316 63.7941 301.145C64.7703 300.558 66.0318 300.65 67.1085 301.028C68.1852 301.406 69.1575 302.037 70.202 302.491C72.3918 303.433 74.8358 303.606 77.1362 302.981C78.1085 302.712 79.145 302.198 79.4463 301.245C79.7476 300.293 79.1932 299.288 78.4259 298.661C77.6585 298.034 76.7104 297.697 75.8306 297.238C73.9023 296.232 72.3279 294.66 71.3189 292.733C70.7126 291.462 70.2361 290.133 69.8967 288.766C69.4307 287.127 68.966 285.487 68.5026 283.847C68.7672 284.021 69.0196 284.213 69.2579 284.422C69.9128 276.304 70.5756 268.161 72.3152 260.204C73.1469 256.398 74.2316 252.544 73.8097 248.673C73.5888 246.64 72.954 244.675 72.3514 242.717C70.4766 236.611 68.8347 230.441 67.4259 224.206C67.9511 223.619 68.3601 222.937 68.6312 222.197C69.0832 220.82 69.3309 219.385 69.3664 217.937C70.0403 208.168 70.0134 198.363 69.286 188.598C69.1012 186.123 68.812 183.522 67.8397 181.272H68.4102C67.7313 181.272 66.6224 174.528 66.4898 173.776C66.0359 171.172 65.7185 168.552 65.2484 165.952C65.0194 164.686 64.7623 163.42 64.4449 162.174C64.228 161.346 63.3602 156.206 62.6692 155.631C62.5949 155.569 62.5107 155.52 62.4201 155.486C62.0735 154.331 61.3141 153.344 60.2868 152.713C59.174 152.086 57.8482 152.066 56.5505 152.167C56.1836 151.631 55.8167 151.102 55.4497 150.579C54.7755 149.713 54.26 148.735 53.9271 147.689C53.8232 147.252 53.7613 146.805 53.7423 146.355C53.7423 146.054 53.7222 145.752 53.7101 145.451C53.7101 145.298 53.7101 145.149 53.7101 144.997C53.6961 144.696 53.6639 144.397 53.6137 144.101C53.5736 143.855 53.5133 143.618 53.449 143.377C53.4209 143.277 53.3847 143.172 53.3526 143.072C53.1678 142.465 52.9508 141.866 52.7901 141.255C52.296 139.282 52.5451 137.212 52.6214 135.178C52.6977 133.145 52.5652 130.991 51.4161 129.295C50.5765 128.049 49.2306 127.104 48.7807 125.678C48.5677 124.999 48.5798 124.251 48.2664 123.608C47.8594 122.893 47.2093 122.348 46.4344 122.073C45.5265 121.671 43.7025 121.14 42.7263 121.611C42.5433 121.701 42.3817 121.83 42.2522 121.988C41.2197 122.041 40.1792 122.181 39.2712 121.727C38.5722 121.377 38.066 120.714 37.387 120.333C35.78 119.432 33.7311 120.333 32.3008 121.506C30.0273 123.369 28.3659 125.873 27.5321 128.692C26.8973 130.866 26.6402 133.406 24.8202 134.777C24.0649 135.343 23.0927 135.657 22.5423 136.416C22.1678 137.035 21.9602 137.739 21.9397 138.462C21.7509 140.11 21.5942 141.806 22.0321 143.405C22.3615 144.611 23.0083 145.688 23.4101 146.862C23.9457 148.522 23.993 150.301 23.5464 151.988C23.0998 153.674 22.1781 155.197 20.8911 156.374C21.555 156.787 22.3535 156.924 23.1168 156.756ZM61.7492 205.518C62.2961 205.222 62.7727 204.811 63.1464 204.314C63.5201 203.816 63.7821 203.244 63.9146 202.636C63.9588 202.793 63.995 202.95 64.0351 203.107C64.5506 205.205 64.4459 207.408 63.7338 209.449C63.2005 208.077 62.5359 206.761 61.7492 205.518ZM62.5527 196.62C61.8834 195.661 61.3178 194.633 60.8653 193.554C60.2466 191.817 60.3872 189.937 60.5359 188.08C60.6153 186.679 60.8088 185.286 61.1144 183.916C61.2919 188.18 61.7766 192.426 62.5647 196.62H62.5527Z" fill="url(#paint0_linear)"/>
<path d="M47.0047 123.134C47.7677 123.409 48.4063 123.95 48.8046 124.657C49.1099 125.296 49.1019 126.039 49.3108 126.715C49.7527 128.137 51.0785 129.078 51.8981 130.332C53.0149 132.016 53.1475 134.162 53.0712 136.179C52.9949 138.197 52.7538 140.258 53.2399 142.208C53.477 143.16 53.8867 144.072 54.0434 145.041C54.2443 146.223 54.0756 147.452 54.3688 148.614C54.695 149.651 55.2024 150.623 55.8674 151.483L58.4828 155.309C57.3148 155.029 56.165 154.677 55.0398 154.256C55.3872 155.349 56.0328 156.324 56.9039 157.07L55.0116 154.779C54.6282 154.252 54.1516 153.8 53.6055 153.445C52.9105 153.043 52.0909 152.986 51.3115 152.83C49.809 152.524 48.3104 151.757 47.5752 150.418C46.599 148.618 47.2217 146.359 46.6793 144.39C46.2776 142.951 45.2893 141.766 44.6063 140.435C43.0636 137.433 43.156 133.888 42.6739 130.541C42.469 129.122 42.1516 127.727 42.1436 126.273C42.1436 125.216 42.248 123.198 43.3488 122.655C44.317 122.205 46.1088 122.752 47.0047 123.134Z" fill="#3F3D56"/>
<path d="M68.0646 281.741L70.0733 288.883C70.4058 290.241 70.8742 291.562 71.4714 292.826C72.4514 294.737 73.9939 296.301 75.8907 297.307C76.7545 297.761 77.6905 298.111 78.4418 298.721C79.1931 299.332 79.7314 300.357 79.4422 301.29C79.1529 302.222 78.1285 302.748 77.1723 303.018C74.906 303.637 72.496 303.463 70.3425 302.523C69.3181 302.069 68.3619 301.442 67.3053 301.068C66.2487 300.695 65.0032 300.598 64.0471 301.185C63.8181 301.356 63.5649 301.491 63.2958 301.587C62.8624 301.646 62.4222 301.545 62.0584 301.302C60.8288 300.67 59.6484 299.948 58.527 299.139C58.0697 298.846 57.6739 298.467 57.3619 298.022C56.5986 296.816 57.137 295.209 57.6231 293.879C58.9146 290.315 59.7554 286.603 60.126 282.831C60.1189 282.664 60.1479 282.497 60.211 282.343C60.2741 282.188 60.3698 282.049 60.4916 281.934C60.6696 281.841 60.8693 281.796 61.0701 281.806L69.6515 281.404" fill="#575A89"/>
<path d="M45.8478 288.891C46.3098 289.771 47.0289 290.499 47.5431 291.347C49.0497 293.834 48.6922 297.13 50.2389 299.589C51.5446 301.671 54.1439 303.066 54.4533 305.505C54.5168 305.899 54.4877 306.301 54.3685 306.682C54.2492 307.062 54.043 307.409 53.7663 307.696C53.2239 308.198 52.4566 308.347 51.7334 308.475C50.1934 308.824 48.6146 308.969 47.0369 308.909C45.4661 308.785 43.8671 308.206 42.8306 307.016C42.1356 306.213 41.4727 305.075 40.4201 305.208C40.0585 305.252 39.6648 305.453 39.3595 305.256C39.2458 305.151 39.1587 305.021 39.1056 304.875C39.0525 304.73 39.0349 304.574 39.0541 304.42L38.5801 286.146C40.0987 285.981 42.7302 285.378 44.2046 285.901C45.4741 286.347 45.2692 287.778 45.8478 288.891Z" fill="#575A89"/>
<path d="M60.8412 204.417C64.5454 209.027 65.6421 215.131 66.8313 220.927C68.3633 228.402 70.2462 235.794 72.4799 243.103C73.0745 245.048 73.6852 247.002 73.9142 249.023C74.3159 252.873 73.2634 256.703 72.4438 260.485C70.7363 268.399 70.0855 276.493 69.4427 284.563C68.1577 283.467 66.548 282.825 64.862 282.736C63.1761 282.647 61.5076 283.115 60.114 284.068C59.6801 274.339 59.4833 264.508 60.801 254.855C61.0501 253.042 61.3514 251.157 60.801 249.421C60.4314 248.304 59.7324 247.335 59.1498 246.314C57.9446 244.208 57.2696 241.853 56.1729 239.695C54.4092 236.231 51.5768 233.265 50.6608 229.479C49.8774 231.826 49.8814 234.205 49.7408 236.673C49.3328 243.677 48.1196 250.612 46.1251 257.338C45.7715 258.52 45.3939 259.75 45.6309 260.955C46.7558 266.654 45.1327 272.321 45.6309 278.108C45.7755 279.865 45.9724 281.617 46.1652 283.369L46.2295 283.932L46.6634 287.822C45.0564 286.725 43.357 286.882 41.4165 286.982C40.7617 286.982 40.1119 287.097 39.4962 287.32C39.106 287.477 38.7515 287.712 38.454 288.009C38.1565 288.307 37.922 288.662 37.7646 289.052C37.5316 282.742 35.2617 277.075 34.2252 270.85C32.799 262.282 34.0042 253.528 34.4904 244.856C34.648 242.988 34.6103 241.109 34.3779 239.249C34.1358 237.887 33.7961 236.544 33.3614 235.23C31.9071 230.496 30.3604 225.741 29.8783 220.81C29.3962 215.879 29.0507 208.914 31.7303 204.734C32.5579 203.448 34.5948 204.027 35.8804 203.191C36.8934 202.556 38.0076 202.099 39.1748 201.841C46.2014 200.209 53.6579 203.798 60.8412 204.417Z" fill="#3C354C"/>
<path d="M48.1576 147.211C48.3143 148.967 48.6839 151.037 50.2829 151.777C51.1908 152.179 52.2434 152.038 53.2237 152.199C55.0798 152.5 56.6064 153.927 57.4662 155.599C58.3259 157.271 58.6232 159.172 58.8241 161.04C59.0732 163.383 59.1535 165.923 57.8679 167.897C56.8314 169.504 55.0557 170.465 53.1916 170.959C51.34 171.445 49.4043 171.516 47.5219 171.169C45.6395 170.822 43.8567 170.064 42.3001 168.95C40.8123 167.789 39.4642 166.459 38.2826 164.987C35.6149 161.88 32.9272 158.476 32.3809 154.417C32.3166 153.955 32.3206 153.396 32.6982 153.123C32.9592 152.976 33.2607 152.917 33.558 152.954L36.1171 152.998C36.764 152.998 37.4951 152.998 37.9371 152.512C38.379 152.026 38.3388 151.407 38.3388 150.812L38.1661 143.381C38.1282 143.118 38.1898 142.85 38.3388 142.63C38.5004 142.482 38.707 142.393 38.9254 142.376C40.3355 142.139 41.81 142.376 43.188 141.995C44.5017 141.633 46.5627 140.126 47.5269 141.673C48.3304 143.003 48.025 145.712 48.1576 147.211Z" fill="#FFC1C7"/>
<path opacity="0.1" d="M48.1576 147.211C48.3143 148.967 48.6839 151.037 50.2829 151.777C51.1908 152.179 52.2434 152.038 53.2237 152.199C55.0798 152.5 56.6064 153.927 57.4662 155.599C58.3259 157.271 58.6232 159.172 58.8241 161.04C59.0732 163.383 59.1535 165.923 57.8679 167.897C56.8314 169.504 55.0557 170.465 53.1916 170.959C51.34 171.445 49.4043 171.516 47.5219 171.169C45.6395 170.822 43.8567 170.064 42.3001 168.95C40.8123 167.789 39.4642 166.459 38.2826 164.987C35.6149 161.88 32.9272 158.476 32.3809 154.417C32.3166 153.955 32.3206 153.396 32.6982 153.123C32.9592 152.976 33.2607 152.917 33.558 152.954L36.1171 152.998C36.764 152.998 37.4951 152.998 37.9371 152.512C38.379 152.026 38.3388 151.407 38.3388 150.812L38.1661 143.381C38.1282 143.118 38.1898 142.85 38.3388 142.63C38.5004 142.482 38.707 142.393 38.9254 142.376C40.3355 142.139 41.81 142.376 43.188 141.995C44.5017 141.633 46.5627 140.126 47.5269 141.673C48.3304 143.003 48.025 145.712 48.1576 147.211Z" fill="black"/>
<path d="M41.718 146.725C47.1163 146.725 51.4926 142.347 51.4926 136.947C51.4926 131.547 47.1163 127.169 41.718 127.169C36.3196 127.169 31.9434 131.547 31.9434 136.947C31.9434 142.347 36.3196 146.725 41.718 146.725Z" fill="#FFC1C7"/>
<path d="M52.2278 164.147C53.8067 164.175 55.5905 163.745 56.3538 162.347C56.8761 161.398 56.7917 160.245 56.6913 159.168L56.1248 153.139C57.6595 152.978 59.3107 152.842 60.6485 153.601C62.4283 154.61 63.059 156.845 63.2679 158.878C63.6416 162.696 63.0349 166.55 63.2438 170.38C63.4206 173.596 64.1638 176.915 63.2157 179.998C62.814 181.284 62.147 182.469 61.7132 183.743C61.1708 185.351 61.0302 187.079 60.9097 188.779C60.761 190.604 60.6204 192.493 61.2311 194.221C61.7413 195.668 62.7376 196.885 63.4487 198.24C64.6138 200.482 64.8629 203.505 63.1112 205.325C61.5042 206.989 58.8607 207.057 56.6149 206.531C54.3691 206.004 52.1957 205 49.9057 204.903C45.84 204.73 42.2162 207.371 38.2549 208.227C37.7239 208.369 37.1674 208.388 36.6278 208.283C36.1504 208.129 35.7062 207.886 35.3181 207.568L33.1406 206C32.7055 205.74 32.3433 205.374 32.088 204.935C31.9057 204.448 31.8585 203.92 31.9514 203.408C32.6826 196.624 36.5194 190.113 35.4105 183.382C35.0658 181.617 34.538 179.893 33.8357 178.237C31.0756 171.172 27.7652 163.834 28.8379 156.322C29.0709 154.658 29.561 152.958 30.706 151.728C31.851 150.499 33.7874 149.888 35.2699 150.676C36.7524 151.463 37.2787 153.216 37.9335 154.739C39.1955 157.7 41.199 160.285 43.7509 162.246C44.8276 163.074 46.1333 164.131 47.5434 164.167C49.0138 164.219 50.6208 164.115 52.2278 164.147Z" fill="#FF6584"/>
<path d="M66.3853 179.339C68.7556 181.971 69.2216 185.769 69.4828 189.298C70.2012 199.007 70.2267 208.755 69.5591 218.467C69.5252 219.908 69.2829 221.336 68.84 222.707C68.3338 224.053 67.3856 225.299 66.0518 225.838C65.1961 226.184 64.0029 226.091 63.6172 225.251C63.2637 224.484 63.79 223.644 64.1877 222.88C65.1013 221.164 65.4072 219.189 65.0555 217.278C64.5694 217.631 64.3966 218.27 64.252 218.857L63.4766 222.12C62.428 221.968 62.0343 220.686 61.8696 219.641C61.5643 217.744 61.271 215.722 62.0303 213.958C62.4321 213.017 63.115 212.218 63.5208 211.277C64.5453 208.914 64.947 206.213 64.2881 203.722C62.0671 195.309 61.0978 186.615 61.4116 177.92C62.9331 178.782 64.6382 179.268 66.3853 179.339Z" fill="#FFC1C7"/>
<path d="M68.623 181.987C65.7056 182.017 62.8025 182.4 59.9774 183.129C59.6037 181.288 59.7845 179.383 59.9774 177.502L61.2228 164.641C61.3152 163.689 61.1384 154.94 62.9825 156.487C63.6614 157.058 64.5171 162.17 64.7301 162.994C65.0515 164.231 65.3046 165.485 65.5336 166.747C65.9956 169.331 66.309 171.94 66.7388 174.528C66.8634 175.296 67.9561 181.987 68.623 181.987Z" fill="#FF6584"/>
<path d="M45.446 124.516C45.458 124.21 45.3887 123.907 45.2451 123.636C45.1179 123.477 44.959 123.346 44.7785 123.251C44.598 123.156 44.3999 123.1 44.1965 123.085C42.7824 122.864 41.2356 123.435 39.9621 122.788C39.2711 122.438 38.7809 121.783 38.11 121.402C36.503 120.505 34.4943 121.402 33.1082 122.571C30.8696 124.429 29.2381 126.915 28.4238 129.709C27.7971 131.871 27.544 134.399 25.7562 135.761C25.0129 136.324 24.0568 136.637 23.5144 137.393C23.1494 138.001 22.9461 138.693 22.9238 139.402C22.739 141.042 22.5823 142.73 23.0122 144.322C23.3376 145.527 23.9724 146.588 24.3701 147.754C24.9026 149.408 24.9514 151.18 24.5108 152.861C24.0702 154.542 23.1586 156.062 21.8833 157.242C22.5354 157.651 23.3217 157.786 24.0728 157.62C24.056 157.966 23.9463 158.3 23.7555 158.589C26.0414 158.516 28.0301 156.286 30.2678 156.772C31.9793 157.142 32.9314 158.906 34.205 160.108C35.8482 161.651 38.3993 162.298 40.4603 161.382C42.5212 160.466 43.7747 157.861 42.8989 155.78C41.9025 153.412 38.8292 152.476 37.7645 150.153C36.9409 148.345 37.5516 146.227 37.3628 144.245C37.2141 142.545 36.4789 140.958 36.0209 139.31C35.5629 137.662 35.4143 135.781 36.3463 134.351C37.3346 132.827 39.2269 132.237 40.9504 131.674C44.8434 130.408 45.5906 128.447 45.446 124.516Z" fill="#3F3D56"/>
<path d="M43.0435 159.67C43.3207 158.303 43.5979 156.857 43.1037 155.546C42.1918 153.135 39.1987 152.359 37.1297 150.796C35.9311 149.885 35.0101 148.657 34.4701 147.251C34.0965 146.263 34.0443 144.904 34.9683 144.398C35.3279 144.229 35.7256 144.158 36.1213 144.193C39.3353 144.269 42.3043 146.022 44.775 148.099C46.2133 149.305 47.5873 150.688 48.2944 152.424C48.7432 153.675 49.0137 154.983 49.0979 156.31L49.6161 160.687C49.9559 163.199 50.1571 165.728 50.2188 168.262C50.2203 169.712 50.1291 171.161 49.9456 172.599C49.817 173.62 49.6242 174.677 49.0256 175.513C47.9127 177.072 45.7633 177.422 43.847 177.474C43.1223 177.515 42.3953 177.469 41.6816 177.337C38.4957 176.646 36.0771 172.181 38.4916 169.424C39.5161 168.254 41.0508 168.218 41.6374 166.611C42.3927 164.477 42.5855 161.892 43.0435 159.67Z" fill="#FFC1C7"/>
<path d="M40.4524 160.438L42.9874 164.549C43.1382 164.761 43.2436 165.002 43.2968 165.256C43.3651 165.791 42.9674 166.265 42.65 166.703C40.4805 169.661 41.043 173.736 41.6858 177.345C38.2256 176.252 35.1441 174.204 32.7953 171.437C30.4465 168.67 28.9258 165.296 28.4079 161.704C28.0905 159.553 27.5803 156.013 29.4886 154.614C34.0645 151.238 38.299 156.913 40.4524 160.438Z" fill="#FF6584"/>
<path d="M53.2241 152.199C52.2438 152.038 51.1912 152.199 50.2833 151.777C48.6763 151.037 48.3147 148.963 48.158 147.211C48.158 147.046 48.1379 146.87 48.1299 146.681C48.7032 146.093 49.3255 145.555 49.99 145.073C50.5895 144.722 51.227 144.44 51.8903 144.233L53.666 143.61C53.8356 144.08 53.9699 144.563 54.0678 145.053C54.2686 146.235 54.0999 147.464 54.3932 148.626C54.7193 149.663 55.2267 150.635 55.8917 151.495L58.5071 155.321C58.033 155.209 57.563 155.084 57.097 154.948C56.185 153.561 54.8311 152.46 53.2241 152.199Z" fill="#3F3D56"/>
<path d="M407.778 169.126C407.312 166.864 406.44 164.706 405.913 162.463C405.697 161.292 405.406 160.136 405.042 159.003C404.856 158.51 404.623 158.036 404.347 157.588L404.596 157.355C403.768 155.956 403.736 154.204 403.346 152.613C403.009 151.242 402.338 149.988 401.932 148.638C401.37 146.765 401.293 144.651 400.132 143.104C399.674 142.493 399.076 142.015 398.565 141.448C397.979 140.801 397.517 140.041 396.922 139.406C395.195 137.566 392.591 136.995 390.129 136.73C387.666 136.465 385.119 136.469 382.849 135.444C381.897 135.014 380.892 134.399 379.896 134.471C379.336 133.931 378.822 133.347 378.357 132.723C377.6 131.804 376.912 130.83 376.3 129.809C376.779 128.998 377.149 128.128 377.401 127.221L377.566 127.104C378.213 126.614 378.771 125.975 379.406 125.497C379.964 125.095 380.683 124.673 380.744 123.958C380.804 123.242 380.157 122.696 379.755 122.105C378.305 119.987 379.908 116.671 378.422 114.577C377.678 113.528 376.381 113.131 375.208 112.62C373.601 111.913 372.166 110.896 370.571 110.209C368.976 109.521 367.132 109.148 365.525 109.807C362.52 111.053 361.44 115.333 358.386 116.45C358.055 116.517 357.756 116.694 357.539 116.953C357.165 117.563 356.671 121.16 356.759 121.904C356.876 122.889 357.113 123.375 357.792 123.72C357.792 123.929 357.792 124.142 357.792 124.355C357.792 129.472 361.335 133.72 366.008 134.596C366.456 135.068 366.837 135.599 367.14 136.175C367.377 136.785 367.513 137.43 367.542 138.084C367.374 138.004 367.19 137.965 367.004 137.972C366.707 138.014 366.428 138.142 366.202 138.339C365.976 138.537 365.812 138.796 365.73 139.085C365.564 139.675 365.497 140.289 365.533 140.901C365.559 141.09 365.54 141.283 365.479 141.463C365.418 141.644 365.315 141.808 365.18 141.942C365.032 142.031 364.866 142.084 364.694 142.095C364.073 142.211 363.445 142.276 362.814 142.288C361.769 142.288 360.648 142.027 359.728 142.537C358.808 143.048 358.39 144.145 357.948 145.137C357.308 146.558 356.465 147.878 355.445 149.056C354.321 150.358 352.922 151.592 352.605 153.316C352.601 153.356 352.601 153.396 352.605 153.437C351.725 153.838 350.825 154.803 350.195 155.289C348.985 156.226 347.822 157.223 346.711 158.275C345.582 159.364 344.06 160.715 343.361 162.17C343.004 162.792 342.529 163.338 341.963 163.777C340.818 164.521 339.339 164.127 338.05 163.709C334.474 162.555 330.878 161.39 327.544 159.626C327.38 159.512 327.18 159.462 326.981 159.485C326.872 159.519 326.775 159.583 326.7 159.67C326.673 159.628 326.644 159.588 326.612 159.549C325.712 158.577 324.298 158.512 323.8 157.025C323.661 156.554 323.563 156.071 323.506 155.583C323.191 154.161 322.682 152.79 321.992 151.507C321.891 151.243 321.718 151.012 321.494 150.84C321.282 150.738 321.039 150.72 320.815 150.791C320.591 150.862 320.402 151.016 320.288 151.222C320.057 151.642 319.967 152.125 320.031 152.601C320.063 153.123 320.14 153.73 319.778 154.104C319.633 154.24 319.456 154.34 319.264 154.393C318.103 154.771 316.825 154.433 315.74 153.867C314.656 153.3 313.679 152.512 312.607 151.913C312.04 151.603 311.455 151.326 310.855 151.085C310.236 150.828 309.377 150.659 309.031 151.25C308.754 151.724 309.031 152.331 309.353 152.781C309.891 153.559 310.518 154.271 311.221 154.903C313.31 156.772 315.941 157.813 318.392 159.115C320.529 160.252 322.547 161.598 324.418 163.134C324.346 163.368 324.301 163.609 324.286 163.854C324.287 164.328 324.386 164.797 324.579 165.231C324.771 165.665 325.052 166.054 325.403 166.373C326.097 166.991 326.878 167.503 327.721 167.893C331.974 170.103 336.259 172.256 340.577 174.351C340.851 174.511 341.157 174.609 341.473 174.64C342.348 174.661 342.907 173.712 343.61 173.166C344.313 172.619 345.217 172.466 346.065 172.181C347.571 171.662 348.877 170.678 350.166 169.705L354.276 166.595C356.345 165.031 358.467 163.379 360.202 161.45C360.421 161.911 360.733 162.321 361.118 162.656C360.781 163.408 361.484 164.187 361.653 164.999C361.712 165.533 361.727 166.07 361.697 166.607C361.769 167.389 361.903 168.165 362.098 168.926C362.296 170.168 362.388 171.425 362.372 172.683C362.372 174.086 362.416 175.496 362.436 176.895C362.464 178.712 362.492 180.548 362.111 182.321C361.592 184.732 360.323 187.023 360.423 189.498C360.496 189.961 360.45 190.433 360.291 190.873C359.242 192.882 358.414 195.097 357.285 197.074C356.952 197.555 356.682 198.076 356.482 198.626C356.342 199.199 356.398 199.804 356.643 200.342C356.195 201.144 355.943 202.04 355.907 202.958C355.831 205.229 356.743 207.379 357.181 209.617C357.583 211.671 357.583 213.777 357.643 215.871C357.952 225.669 359.869 235.355 360.266 245.149C360.454 249.665 360.32 254.188 359.865 258.685C359.571 261.586 359.138 264.48 358.977 267.398C358.515 275.677 360.242 283.875 361.958 291.994C362.477 291.384 363.205 290.99 363.999 290.888C363.79 291.692 363.513 292.737 363.223 293.509C362.804 293.567 362.402 293.712 362.042 293.935C361.042 294.574 360.7 295.884 360.118 296.945C358.844 299.256 356.341 300.441 354.288 302.029C353.304 302.789 352.312 303.95 352.621 305.184C356.177 306.217 360.05 307.133 363.468 305.71C364.859 305.136 366.16 304.183 367.651 304.135C368.784 304.099 369.941 304.593 371.025 304.255C371.294 304.183 371.53 304.02 371.692 303.793C371.82 303.545 371.881 303.268 371.869 302.989C371.961 301.1 371.953 299.207 371.845 297.319C371.753 295.711 371.917 294.505 370.612 294.28C370.287 293.473 370.046 292.634 369.892 291.777C369.892 291.62 369.856 291.455 369.836 291.29C370.196 291.293 370.555 291.264 370.909 291.202C371.127 291.165 371.344 291.114 371.556 291.049C371.487 290.772 371.427 290.491 371.371 290.213C371.258 289.655 371.17 289.096 371.098 288.537C371.025 287.979 370.973 287.412 370.933 286.849C370.933 286.564 370.901 286.283 370.889 285.997C370.865 285.431 370.857 284.864 370.861 284.293C370.865 283.723 370.861 283.156 370.901 282.585C370.941 282.015 370.957 281.444 370.997 280.873C371.094 279.446 371.234 278.02 371.375 276.605C371.785 272.45 372.197 268.297 372.612 264.146C372.733 262.9 372.857 261.651 372.873 260.401C372.889 259.653 372.854 258.905 372.769 258.162C372.556 256.362 371.99 254.545 371.965 252.769C371.958 252.472 371.969 252.176 371.998 251.881C372.026 251.583 372.075 251.287 372.146 250.996C372.182 250.836 372.231 250.675 372.279 250.518C372.379 250.201 372.492 249.891 372.592 249.574C372.644 249.417 372.693 249.256 372.737 249.095C372.901 248.417 372.999 247.723 373.03 247.026C373.03 246.793 373.058 246.559 373.07 246.326L373.564 236.528C373.645 234.957 373.777 233.261 374.392 231.858C374.656 231.239 375.043 230.68 375.529 230.214C375.404 229.881 375.529 229.318 375.875 229.23C376.279 234.232 376.229 239.26 375.726 244.253C375.549 245.82 375.288 247.375 375.216 248.951C375.063 252.423 375.83 255.859 376.099 259.324C376.369 262.788 376.099 266.357 376.099 269.873C376.071 275.922 376.738 281.95 377.401 287.959L377.803 288.224C377.803 288.754 377.863 289.333 377.855 289.831C377.842 290.005 377.859 290.179 377.907 290.346H377.739C377.35 290.379 376.975 290.506 376.646 290.716C376.317 290.926 376.044 291.213 375.85 291.552C375.453 292.24 375.164 292.985 374.995 293.762C374.798 294.335 374.716 294.942 374.754 295.546C374.906 296.692 375.879 297.556 376.136 298.681C376.606 300.719 374.609 302.917 375.517 304.79C376.095 305.996 377.554 306.329 378.827 306.538C380.772 306.856 382.985 307.109 384.516 305.819C384.932 305.458 385.264 305.011 385.49 304.508C385.715 304.006 385.829 303.46 385.822 302.909C385.822 301.438 384.95 300.128 384.568 298.713C384.03 296.728 384.834 294.059 383.986 292.227C383.917 292.034 383.81 291.856 383.672 291.704H383.962C383.893 291.033 383.825 290.358 383.753 289.695L384.428 289.349C385.123 289 385.926 288.734 386.649 289.008C386.38 285.555 386.304 281.741 387.099 278.381C387.718 275.729 388.827 273.213 389.341 270.536C389.743 268.33 389.771 266.063 389.779 263.817C389.779 259.645 389.779 255.445 389.08 251.358C388.799 249.718 388.397 248.038 388.702 246.399C388.903 245.318 389.393 244.321 389.683 243.26C390.358 240.78 389.863 238.116 390.265 235.572C391.221 229.495 391.728 223.153 392.455 217.048C392.817 213.589 392.941 210.108 392.824 206.631V206.591L394.267 203.778C395.299 201.768 396.348 199.727 396.974 197.569C397.191 197.872 397.365 198.203 397.493 198.553L403.832 188.016C404.244 187.392 404.569 186.716 404.801 186.006C404.945 185.496 404.993 184.961 405.102 184.443C405.387 183.096 406.07 181.883 406.616 180.629C408.166 177.002 408.571 172.989 407.778 169.126ZM398.292 174.415C397.997 176.147 397.595 177.858 397.087 179.54C396.251 182.425 395.283 185.263 394.315 188.104L393.483 190.515C393.196 191.486 392.766 192.409 392.206 193.252C392.078 193.463 391.964 193.682 391.864 193.907C391.004 190.692 391.936 187.075 391.74 183.647C391.591 181.055 390.787 178.422 391.39 175.91C391.792 174.218 392.804 172.764 393.515 171.18C394.178 169.709 394.592 168.106 395.339 166.687C395.339 166.715 395.339 166.739 395.367 166.763C396.032 168.511 396.829 170.205 397.75 171.831C398.008 172.199 398.205 172.606 398.332 173.037C398.415 173.496 398.406 173.968 398.304 174.423L398.292 174.415Z" fill="url(#paint1_linear)"/>
<path d="M323.695 157.013C323.55 156.541 323.448 156.057 323.389 155.567C323.128 154.124 322.461 152.794 321.806 151.479C321.702 151.21 321.522 150.977 321.288 150.808C321.07 150.711 320.823 150.696 320.594 150.766C320.365 150.836 320.169 150.987 320.043 151.19C319.805 151.609 319.711 152.095 319.774 152.572C319.81 153.103 319.89 153.71 319.517 154.084C319.361 154.222 319.175 154.321 318.974 154.373C317.769 154.755 316.431 154.413 315.294 153.847C314.157 153.28 313.145 152.484 312.024 151.885C311.431 151.574 310.821 151.298 310.196 151.057C309.549 150.796 308.653 150.627 308.292 151.222C308.002 151.696 308.292 152.303 308.625 152.757C309.189 153.541 309.844 154.255 310.578 154.883C312.755 156.76 315.507 157.805 318.066 159.111C320.933 160.575 323.606 162.392 326.021 164.521C326.255 164.243 326.395 163.898 326.423 163.536C326.615 162.511 327.463 160.438 326.607 159.549C325.671 158.573 324.213 158.508 323.695 157.013Z" fill="#A0616A"/>
<path d="M363.986 295.02C366.131 296.695 368.849 297.457 371.551 297.142C372.114 297.074 372.756 296.873 372.941 296.338C373.009 296.014 372.972 295.676 372.837 295.374C372.412 294.362 372.085 293.313 371.861 292.239C371.72 291.262 371.756 290.101 370.961 289.514C369.812 288.666 366.807 288.71 366.059 290.024C365.883 290.306 364.758 295.667 363.986 295.02Z" fill="#3C354C"/>
<path d="M380.173 290.278C380.145 290.384 380.141 290.495 380.16 290.603C380.178 290.712 380.22 290.815 380.282 290.905C380.345 290.996 380.425 291.072 380.519 291.129C380.614 291.186 380.719 291.222 380.828 291.234C382.673 291.806 384.586 292.126 386.517 292.187L386.115 288.32C386.123 288.234 386.112 288.147 386.082 288.065C386.053 287.983 386.007 287.909 385.946 287.847C385.885 287.785 385.812 287.737 385.731 287.706C385.65 287.676 385.563 287.663 385.476 287.669C384.367 287.484 382.037 286.733 380.973 287.119C379.775 287.553 380.197 289.124 380.173 290.278Z" fill="#3C354C"/>
<path d="M368.952 136.067C369.263 136.878 369.418 137.741 369.406 138.611C369.506 141.725 368.972 145.089 366.802 147.324C369.237 146.596 371.973 147.034 374.271 145.949C375.336 145.447 376.231 144.647 377.228 144.024C379.004 142.915 381.073 142.376 382.921 141.388C384.769 140.399 386.48 138.731 386.585 136.641C385.781 135.797 384.491 135.677 383.439 135.166C382.306 134.612 381.466 133.599 380.667 132.622C379.724 131.546 378.897 130.372 378.2 129.122C377.5 127.862 377.219 126.413 377.397 124.982C375.344 125.352 373.853 127.145 371.913 127.912C371.157 128.21 370.342 128.346 369.607 128.688C368.558 129.17 366.433 130.81 366.393 132.096C366.397 133.499 368.405 134.829 368.952 136.067Z" fill="#A0616A"/>
<path opacity="0.1" d="M368.952 136.067C369.263 136.878 369.418 137.741 369.406 138.611C369.506 141.725 368.972 145.089 366.802 147.324C369.237 146.596 371.973 147.034 374.271 145.949C375.336 145.447 376.231 144.647 377.228 144.024C379.004 142.915 381.073 142.376 382.921 141.388C384.769 140.399 386.48 138.731 386.585 136.641C385.781 135.797 384.491 135.677 383.439 135.166C382.306 134.612 381.466 133.599 380.667 132.622C379.724 131.546 378.897 130.372 378.2 129.122C377.5 127.862 377.219 126.413 377.397 124.982C375.344 125.352 373.853 127.145 371.913 127.912C371.157 128.21 370.342 128.346 369.607 128.688C368.558 129.17 366.433 130.81 366.393 132.096C366.397 133.499 368.405 134.829 368.952 136.067Z" fill="black"/>
<path d="M395.383 217.233C394.624 223.358 394.098 229.724 393.097 235.821C392.695 238.373 393.194 241.046 392.491 243.537C392.189 244.602 391.687 245.603 391.466 246.684C391.149 248.332 391.567 250.016 391.868 251.664C392.607 255.783 392.607 259.999 392.595 264.187C392.595 266.441 392.595 268.716 392.141 270.93C391.603 273.619 390.446 276.155 389.799 278.799C388.967 282.175 389.048 286.001 389.329 289.466C388.573 289.192 387.722 289.466 387.007 289.807C386.292 290.149 385.568 290.611 384.769 290.663C383.688 290.764 382.672 290.193 381.74 289.639C381.025 289.217 380.402 288.835 379.691 288.401C378.996 282.372 378.301 276.32 378.329 270.247C378.329 266.719 378.606 263.182 378.329 259.661C378.052 256.141 377.244 252.733 377.409 249.252C377.485 247.669 377.754 246.109 377.935 244.538C378.53 239.45 378.449 234.571 378.092 229.463C377.742 229.551 377.602 230.114 377.73 230.448C377.22 230.91 376.81 231.472 376.525 232.099C375.882 233.506 375.746 235.21 375.661 236.785L375.143 246.62C375.129 247.555 375.013 248.487 374.797 249.397C374.617 250.044 374.343 250.655 374.179 251.306C373.588 253.661 374.536 256.088 374.838 258.496C375.083 260.505 374.874 262.515 374.669 264.5L373.379 277.007C372.909 281.556 372.451 286.202 373.379 290.671C373.44 290.949 373.5 291.23 373.572 291.511C373.35 291.576 373.125 291.627 372.897 291.664C372.098 291.777 371.286 291.777 370.487 291.664C369.739 291.588 368.984 291.459 368.245 291.371C366.469 291.17 364.697 291.093 363.52 292.436C361.729 284.309 359.929 276.059 360.407 267.751C360.575 264.826 361.025 261.92 361.335 259.006C361.817 254.497 361.962 249.957 361.769 245.426C361.367 235.596 359.358 225.874 359.025 216.04C358.956 213.942 358.964 211.824 358.547 209.766C358.089 207.536 357.136 205.345 357.213 203.083C357.289 200.82 358.94 198.308 361.23 198.433C367.55 198.782 373.323 195.294 379.627 194.699C382.487 194.426 385.396 194.02 388.228 194.53C391.06 195.041 393.881 196.644 394.993 199.297C395.596 200.74 395.644 202.339 395.689 203.898C395.817 208.351 395.934 212.816 395.383 217.233Z" fill="#575A89"/>
<path d="M363.637 294.385C362.592 295.028 362.235 296.342 361.628 297.407C360.298 299.726 357.687 300.916 355.542 302.507C354.513 303.275 353.477 304.436 353.802 305.678C357.514 306.711 361.556 307.631 365.135 306.205C366.586 305.626 367.948 304.669 369.502 304.621C370.688 304.585 371.913 305.083 373.026 304.742C373.307 304.676 373.555 304.512 373.725 304.28C373.855 304.032 373.919 303.755 373.91 303.476C374.007 301.578 373.997 299.677 373.882 297.781C373.769 295.928 374.018 294.618 371.905 294.698C369.478 294.803 365.742 293.087 363.637 294.385Z" fill="#CBCEDA"/>
<path d="M381.426 291.089C380.988 290.914 380.524 290.81 380.052 290.78C379.652 290.811 379.264 290.937 378.922 291.147C378.579 291.356 378.29 291.644 378.08 291.986C377.665 292.672 377.363 293.421 377.188 294.204C376.983 294.777 376.898 295.386 376.939 295.993C377.095 297.142 378.112 298.002 378.381 299.135C378.867 301.181 376.774 303.387 377.73 305.268C378.337 306.474 379.859 306.812 381.189 307.021C383.222 307.342 385.532 307.595 387.131 306.297C387.561 305.943 387.906 305.498 388.143 304.994C388.379 304.49 388.5 303.94 388.497 303.383C388.473 301.904 387.585 300.59 387.183 299.168C386.625 297.158 387.465 294.498 386.577 292.661C385.817 291.089 383.045 291.608 381.426 291.089Z" fill="#CBCEDA"/>
<path d="M369.631 134.652C375.398 134.652 380.072 129.976 380.072 124.207C380.072 118.438 375.398 113.762 369.631 113.762C363.864 113.762 359.189 118.438 359.189 124.207C359.189 129.976 363.864 134.652 369.631 134.652Z" fill="#A0616A"/>
<path d="M375.167 141.323C374.041 140.844 372.789 140.75 371.604 141.054L370.652 139.394C370.25 138.663 369.651 137.835 368.812 137.867C368.506 137.907 368.218 138.033 367.982 138.232C367.746 138.431 367.573 138.694 367.482 138.988C367.307 139.579 367.237 140.195 367.273 140.809C367.3 141 367.282 141.196 367.218 141.378C367.154 141.561 367.048 141.725 366.907 141.858C366.751 141.944 366.579 141.996 366.401 142.011C365.752 142.125 365.095 142.19 364.437 142.204C363.344 142.204 362.175 141.938 361.223 142.453C360.27 142.967 359.828 144.06 359.366 145.065C358.693 146.496 357.813 147.82 356.755 148.996C355.578 150.302 354.12 151.54 353.786 153.268C353.646 154.003 354.312 154.55 354.843 155.08C356.952 157.174 359.893 158.46 361.456 160.992C361.821 161.583 362.118 162.25 362.681 162.656C362.331 163.416 363.083 164.195 363.239 165.011C363.301 165.545 363.316 166.083 363.284 166.619C363.353 167.404 363.488 168.182 363.685 168.946C363.891 170.191 363.986 171.453 363.971 172.715L364.039 176.943C364.067 178.768 364.095 180.609 363.697 182.389C363.155 184.8 361.829 187.111 361.934 189.591C362.011 190.056 361.964 190.533 361.797 190.973C360.7 192.983 359.836 195.209 358.659 197.195C358.323 197.676 358.053 198.201 357.856 198.754C357.542 199.9 358.185 201.141 359.133 201.857C360.082 202.572 361.279 202.866 362.444 203.087C373.267 205.16 384.504 202.665 394.733 198.565C395.002 198.481 395.251 198.344 395.468 198.163C396.215 197.436 395.628 196.21 395.203 195.262C393.596 191.729 394.877 187.626 394.648 183.768C394.496 181.167 393.652 178.543 394.287 176.003C394.688 174.307 395.761 172.844 396.504 171.261C397.308 169.544 397.758 167.644 398.81 166.076C399.599 164.999 400.521 164.027 401.554 163.182L408.083 157.363C407.219 155.96 407.183 154.2 406.777 152.605C406.424 151.23 405.72 149.968 405.299 148.618C404.712 146.737 404.632 144.599 403.418 143.06C402.94 142.445 402.318 141.967 401.783 141.4C401.173 140.749 400.691 139.989 400.068 139.35C398.264 137.501 395.544 136.915 392.977 136.666C390.41 136.416 387.754 136.404 385.376 135.375C384.211 134.873 382.965 134.113 381.76 134.491C380.804 134.789 380.189 135.725 379.799 136.653C379.41 137.582 379.137 138.583 378.498 139.358C377.71 140.283 376.316 140.893 375.167 141.323Z" fill="#3C354C"/>
<path d="M344.1 162.174C343.722 162.8 343.225 163.346 342.637 163.781C341.432 164.525 339.901 164.131 338.555 163.713C334.823 162.552 331.067 161.386 327.584 159.614C327.411 159.498 327.203 159.448 326.997 159.473C326.836 159.525 326.695 159.626 326.595 159.762C326.047 160.37 325.544 161.016 325.089 161.696C324.608 162.326 324.305 163.074 324.213 163.862C324.216 164.341 324.321 164.815 324.521 165.251C324.721 165.687 325.012 166.075 325.374 166.39C326.101 167.01 326.912 167.523 327.784 167.913C332.228 170.131 336.701 172.292 341.203 174.395C341.491 174.556 341.81 174.654 342.139 174.685C343.055 174.705 343.638 173.752 344.369 173.206C345.1 172.659 346.06 172.506 346.932 172.217C348.507 171.699 349.877 170.71 351.219 169.733L355.509 166.615C359.27 163.882 363.219 160.904 364.862 156.567L359.639 154.847C358.072 154.329 356.425 153.541 354.798 153.24C353.593 153.007 352.143 154.598 351.239 155.277C349.968 156.22 348.746 157.227 347.579 158.295C346.422 159.356 344.831 160.715 344.1 162.174Z" fill="#3C354C"/>
<path d="M393.535 196.483C392.061 197.07 390.389 196.186 388.827 196.447C388.094 196.611 387.395 196.901 386.762 197.303L382.198 199.855C381.916 200.008 381.611 200.382 381.856 200.583C381.927 200.63 382.009 200.657 382.093 200.663C383.616 200.86 385.038 199.932 386.553 199.675C387.218 199.584 387.891 199.558 388.561 199.598C388.672 199.592 388.783 199.608 388.887 199.646C388.998 199.71 389.089 199.804 389.148 199.917C389.208 200.03 389.234 200.158 389.224 200.285C389.224 200.543 389.148 200.792 389.14 201.049C389.186 201.641 389.418 202.204 389.803 202.657C391.255 204.742 392.867 206.712 394.624 208.548C395.069 207.985 395.454 207.376 395.773 206.732L397.275 203.919C398.834 201.017 400.429 198.007 400.678 194.723C399.553 194.365 397.464 193.18 396.303 193.803C395.142 194.426 394.873 196.053 393.535 196.483Z" fill="#A0616A"/>
<path d="M368.309 122.539C371.25 122.852 373.934 124.243 376.565 125.609C376.115 126.317 376.686 127.334 377.485 127.575C378.285 127.816 379.16 127.474 379.839 126.98C380.518 126.486 381.077 125.847 381.76 125.372C382.346 124.97 383.094 124.544 383.158 123.829C383.222 123.114 382.547 122.563 382.125 121.968C380.611 119.842 382.286 116.515 380.735 114.413C379.956 113.36 378.602 112.962 377.401 112.447C375.738 111.74 374.223 110.719 372.556 110.016C370.888 109.313 368.968 108.947 367.289 109.614C364.147 110.864 363.022 115.16 359.832 116.281C359.489 116.349 359.177 116.527 358.944 116.788C358.543 117.399 358.04 121.012 358.141 121.755C358.294 122.997 358.635 123.455 359.856 123.825C362.468 124.605 365.513 122.238 368.309 122.539Z" fill="#3F3D56"/>
<path d="M406.383 155.864C407.328 156.723 408.064 157.787 408.533 158.975C408.914 160.11 409.217 161.27 409.441 162.447C409.991 164.706 410.899 166.868 411.385 169.135C412.213 173.007 411.791 177.043 410.18 180.661C409.609 181.923 408.894 183.137 408.597 184.491C408.485 185.009 408.432 185.548 408.284 186.058C408.038 186.771 407.698 187.447 407.271 188.068L400.683 198.674C400.43 198.055 400.048 197.497 399.563 197.037C399.079 196.577 398.501 196.225 397.87 196.005C396.602 195.577 395.243 195.495 393.933 195.768C394.423 194.997 394.64 194.132 395.138 193.357C395.412 192.945 395.663 192.518 395.89 192.079C396.114 191.602 396.31 191.112 396.476 190.612L397.34 188.172C398.352 185.323 399.349 182.473 400.237 179.58C400.771 177.895 401.196 176.176 401.506 174.436C401.603 173.993 401.614 173.536 401.538 173.089C401.404 172.649 401.197 172.233 400.928 171.859C399.969 170.233 399.138 168.534 398.441 166.779C397.918 165.554 397.392 164.175 397.862 162.929C398.161 162.27 398.603 161.685 399.156 161.217C401.346 159.155 403.772 157.358 406.383 155.864Z" fill="#3C354C"/>
<path opacity="0.1" d="M372.901 291.656L373.383 290.663C372.459 286.202 372.917 281.556 373.383 276.999L374.673 264.492C374.878 262.483 375.075 260.473 374.842 258.488C374.541 256.076 373.592 253.665 374.183 251.298C374.348 250.647 374.621 250.036 374.802 249.389C375.017 248.478 375.133 247.547 375.147 246.612L375.665 236.777C375.75 235.202 375.886 233.498 376.529 232.091V231.822L374.874 217.571L370.503 291.656H372.901Z" fill="black"/>
<path d="M335.301 297.801C336.506 295.587 335.141 292.87 333.578 290.897C332.015 288.923 330.119 286.878 330.159 284.35C330.219 280.733 334.056 278.599 337.121 276.677C339.397 275.256 341.496 273.568 343.372 271.65C344.159 270.912 344.809 270.041 345.293 269.078C345.928 267.663 345.911 266.055 345.871 264.508C345.735 259.348 345.479 254.192 345.104 249.039" stroke="#3F3D56" stroke-width="4" stroke-miterlimit="10"/>
<path d="M350.933 248.758C350.891 247.813 350.611 246.894 350.119 246.087C349.628 245.279 348.94 244.608 348.121 244.136L346.86 246.636L346.9 243.61C346.296 243.433 345.668 243.357 345.04 243.385C343.93 243.44 342.862 243.822 341.969 244.484C341.076 245.146 340.4 246.057 340.025 247.104C339.649 248.15 339.592 249.283 339.86 250.362C340.128 251.441 340.71 252.416 341.531 253.164C342.353 253.912 343.377 254.401 344.476 254.567C345.574 254.734 346.697 254.571 347.704 254.1C348.71 253.628 349.554 252.87 350.129 251.919C350.705 250.968 350.986 249.868 350.938 248.758H350.933Z" fill="#57B894"/>
<path d="M340.878 286.934C340.286 288.081 339.319 288.989 338.138 289.507C336.956 290.025 335.633 290.121 334.389 289.779C333.145 289.437 332.057 288.678 331.306 287.629C330.555 286.58 330.188 285.304 330.265 284.016C330.343 282.728 330.86 281.506 331.731 280.554C332.603 279.602 333.774 278.979 335.05 278.789C336.326 278.599 337.628 278.853 338.739 279.509C339.85 280.165 340.701 281.183 341.151 282.392L337.628 285.274L341.505 284.378C341.501 285.267 341.286 286.143 340.878 286.934Z" fill="#57B894"/>
<path d="M338.094 275.982C336.693 276.081 335.305 275.652 334.204 274.78C333.104 273.907 332.369 272.655 332.145 271.268C331.921 269.881 332.223 268.46 332.993 267.285C333.763 266.11 334.945 265.266 336.306 264.918L336.274 267.241L337.551 264.713C338.291 264.677 339.031 264.787 339.728 265.038C340.425 265.288 341.065 265.674 341.613 266.173C342.161 266.672 342.604 267.274 342.919 267.945C343.233 268.616 343.412 269.342 343.445 270.082C343.478 270.733 343.396 271.385 343.204 272.008C342.865 273.116 342.192 274.093 341.278 274.804C340.363 275.515 339.251 275.927 338.094 275.982Z" fill="#57B894"/>
<path d="M351.781 266.871C350.916 266.903 350.055 266.735 349.265 266.379C348.475 266.023 347.778 265.49 347.229 264.82C346.679 264.151 346.291 263.363 346.095 262.519C345.9 261.675 345.902 260.797 346.101 259.954C346.3 259.111 346.692 258.325 347.244 257.658C347.797 256.991 348.496 256.461 349.287 256.108C350.078 255.756 350.94 255.591 351.806 255.627C352.671 255.662 353.517 255.897 354.276 256.313L353.28 259.046L355.329 257.077C356.427 258.083 357.081 259.484 357.149 260.971C357.175 261.494 357.128 262.018 357.008 262.527C356.73 263.722 356.068 264.794 355.125 265.578C354.181 266.362 353.007 266.817 351.781 266.871Z" fill="#57B894"/>
<path opacity="0.1" d="M350.174 250.261C348.872 250.402 347.607 250.808 346.301 250.888C344.996 250.968 343.561 250.659 342.734 249.642C342.292 249.096 342.067 248.404 341.693 247.805C341.336 247.249 340.848 246.789 340.271 246.467C339.931 247.178 339.744 247.953 339.722 248.742C339.701 249.53 339.845 250.314 340.146 251.043C340.447 251.772 340.898 252.429 341.469 252.973C342.04 253.516 342.719 253.933 343.462 254.197C344.205 254.461 344.995 254.566 345.781 254.505C346.567 254.444 347.331 254.218 348.024 253.842C348.717 253.466 349.324 252.949 349.804 252.324C350.285 251.699 350.628 250.979 350.813 250.213C350.601 250.221 350.388 250.237 350.174 250.261Z" fill="black"/>
<path opacity="0.1" d="M351.781 266.871C350.809 266.921 349.84 266.717 348.97 266.279C348.1 265.842 347.359 265.186 346.818 264.376C346.277 263.566 345.956 262.629 345.886 261.657C345.816 260.686 345.999 259.713 346.418 258.833C346.865 259.134 347.25 259.519 347.551 259.967C347.952 260.574 348.197 261.277 348.668 261.831C349.547 262.864 351.046 263.202 352.408 263.142C353.77 263.081 355.084 262.692 356.425 262.567C356.614 262.567 356.803 262.539 356.996 262.535C356.717 263.727 356.056 264.795 355.115 265.578C354.174 266.36 353.004 266.814 351.781 266.871Z" fill="black"/>
<path opacity="0.1" d="M338.093 275.982C337.13 276.031 336.17 275.831 335.306 275.402C334.443 274.972 333.704 274.328 333.161 273.53C332.617 272.733 332.289 271.809 332.205 270.848C332.122 269.886 332.288 268.92 332.686 268.041C333.154 268.346 333.562 268.734 333.891 269.186C334.329 269.805 334.602 270.52 335.117 271.091C336.069 272.148 337.668 272.522 339.106 272.49C340.544 272.458 341.85 272.116 343.236 272.007C342.895 273.121 342.218 274.101 341.297 274.813C340.376 275.525 339.256 275.933 338.093 275.982Z" fill="black"/>
<path opacity="0.1" d="M340.878 286.934C340.268 288.298 339.141 289.363 337.746 289.896C336.351 290.429 334.801 290.386 333.437 289.775C332.074 289.165 331.009 288.038 330.476 286.642C329.944 285.246 329.987 283.696 330.597 282.332C331.062 282.637 331.48 283.009 331.834 283.437C332.373 284.088 332.726 284.832 333.345 285.447C334.498 286.58 336.358 287.054 338.017 287.091C338.973 287.095 339.928 287.043 340.878 286.934Z" fill="black"/>
<path d="M326.796 295.249C326.796 295.249 331.248 295.112 332.59 294.156C333.931 293.199 339.419 292.062 339.765 293.593C340.11 295.124 346.454 301.229 341.432 301.253C336.41 301.277 329.757 300.474 328.415 299.646C327.074 298.818 326.796 295.249 326.796 295.249Z" fill="#656380"/>
<path opacity="0.2" d="M341.521 300.723C336.495 300.763 329.846 299.919 328.508 299.115C327.487 298.492 327.082 296.266 326.945 295.237H326.796C326.796 295.237 327.078 298.83 328.403 299.658C329.729 300.486 336.394 301.293 341.42 301.265C342.871 301.265 343.369 300.739 343.341 299.975C343.152 300.425 342.601 300.711 341.521 300.723Z" fill="black"/>
<path d="M23.4624 302.222C22.2571 300.008 23.6231 297.291 25.1859 295.317C26.7487 293.344 28.645 291.298 28.6048 288.771C28.5445 285.153 24.7078 283.019 21.6425 281.098C19.3663 279.677 17.2677 277.989 15.3912 276.071C14.6048 275.333 13.9547 274.462 13.4708 273.499C12.8361 272.084 12.8521 270.476 12.8923 268.929C13.0289 263.769 13.2847 258.612 13.6597 253.46" stroke="#3F3D56" stroke-width="4" stroke-miterlimit="10"/>
<path d="M7.83021 253.179C7.87293 252.234 8.15299 251.315 8.64453 250.508C9.13606 249.7 9.82321 249.029 10.6425 248.557L11.904 251.057L11.8638 248.03C12.4672 247.854 13.0957 247.778 13.7239 247.805C14.8336 247.86 15.9021 248.243 16.7947 248.905C17.6872 249.567 18.3639 250.478 18.7392 251.524C19.1145 252.57 19.1717 253.704 18.9036 254.783C18.6354 255.862 18.054 256.836 17.2326 257.585C16.4112 258.333 15.3866 258.822 14.2881 258.988C13.1896 259.155 12.0664 258.992 11.0602 258.521C10.054 258.049 9.20985 257.29 8.6343 256.34C8.05875 255.389 7.77756 254.289 7.82619 253.179H7.83021Z" fill="#57B894"/>
<path d="M17.8861 291.355C18.4775 292.501 19.445 293.41 20.6264 293.928C21.8078 294.446 23.1313 294.542 24.3751 294.2C25.6189 293.858 26.7074 293.099 27.4582 292.05C28.2089 291 28.5764 289.725 28.4989 288.437C28.4214 287.149 27.9037 285.927 27.0326 284.975C26.1614 284.023 24.9898 283.4 23.7139 283.21C22.4381 283.02 21.1357 283.274 20.025 283.93C18.9142 284.586 18.0626 285.604 17.6129 286.813L21.1363 289.679L17.2754 288.783C17.2719 289.676 17.4812 290.558 17.8861 291.355Z" fill="#57B894"/>
<path d="M20.67 280.403C22.071 280.502 23.4583 280.073 24.5591 279.201C25.6599 278.328 26.3946 277.075 26.6187 275.688C26.8428 274.301 26.5401 272.881 25.7701 271.706C25.0001 270.531 23.8186 269.686 22.4578 269.339L22.4899 271.662L21.2124 269.134C20.4726 269.098 19.7329 269.208 19.0359 269.459C18.3388 269.709 17.6981 270.095 17.1505 270.594C16.6029 271.093 16.1591 271.695 15.8448 272.366C15.5304 273.037 15.3516 273.763 15.3187 274.503C15.2857 275.154 15.3673 275.806 15.5597 276.428C15.8985 277.537 16.5713 278.513 17.486 279.225C18.4007 279.936 19.5127 280.348 20.67 280.403Z" fill="#57B894"/>
<path d="M6.98229 271.292C7.84779 271.324 8.70895 271.155 9.49864 270.8C10.2883 270.444 10.9852 269.91 11.535 269.241C12.0847 268.571 12.4725 267.784 12.6681 266.94C12.8637 266.096 12.8618 265.218 12.6625 264.375C12.4633 263.532 12.0721 262.746 11.5194 262.079C10.9668 261.412 10.2676 260.882 9.47634 260.529C8.68511 260.177 7.82323 260.012 6.95787 260.048C6.09252 260.083 5.24706 260.318 4.48741 260.734L5.48376 263.467L3.43483 261.498C2.33385 262.503 1.67641 263.903 1.60686 265.392C1.58011 265.915 1.62745 266.438 1.74747 266.948C2.02618 268.144 2.68876 269.217 3.63402 270.001C4.57927 270.786 5.75523 271.239 6.98229 271.292Z" fill="#57B894"/>
<path opacity="0.1" d="M8.58947 254.682C9.89114 254.822 11.1567 255.228 12.4623 255.309C13.768 255.389 15.2023 255.08 16.0299 254.063C16.4718 253.516 16.6968 252.825 17.0704 252.226C17.4273 251.67 17.9158 251.21 18.4926 250.888C18.8328 251.599 19.0197 252.374 19.0412 253.163C19.0627 253.951 18.9184 254.735 18.6175 255.464C18.3165 256.193 17.8658 256.85 17.2945 257.394C16.7233 257.937 16.0442 258.354 15.3013 258.618C14.5585 258.882 13.7685 258.987 12.9825 258.926C12.1966 258.864 11.4323 258.639 10.7392 258.263C10.0461 257.887 9.43969 257.37 8.9593 256.745C8.47891 256.12 8.13528 255.4 7.95068 254.634C8.16227 254.642 8.3752 254.658 8.58947 254.682Z" fill="black"/>
<path opacity="0.1" d="M6.9823 271.292C7.95474 271.341 8.92333 271.137 9.7933 270.7C10.6633 270.263 11.4048 269.607 11.9454 268.797C12.486 267.986 12.807 267.05 12.8772 266.078C12.9474 265.107 12.7642 264.134 12.3457 263.254C11.8983 263.555 11.5135 263.94 11.2127 264.388C10.811 264.994 10.5659 265.698 10.0959 266.252C9.21604 267.285 7.71751 267.623 6.35557 267.563C4.99364 267.502 3.67991 267.112 2.33806 266.988C2.14924 266.988 1.96042 266.96 1.76758 266.956C2.04685 268.148 2.70711 269.216 3.6482 269.998C4.58929 270.781 5.75984 271.235 6.9823 271.292Z" fill="black"/>
<path opacity="0.1" d="M20.6702 280.403C21.6336 280.452 22.5933 280.252 23.4572 279.823C24.3211 279.393 25.06 278.749 25.6031 277.951C26.1462 277.154 26.4751 276.23 26.5582 275.269C26.6413 274.307 26.4759 273.341 26.0778 272.462C25.61 272.767 25.2016 273.155 24.8725 273.607C24.4346 274.226 24.1614 274.941 23.6672 275.512C22.7151 276.569 21.1161 276.943 19.6779 276.911C18.2396 276.878 16.9339 276.537 15.5479 276.428C15.8874 277.539 16.5619 278.517 17.479 279.228C18.3961 279.94 19.5108 280.35 20.6702 280.403Z" fill="black"/>
<path opacity="0.1" d="M17.8857 291.355C18.4957 292.718 19.6223 293.784 21.0177 294.317C22.413 294.85 23.9628 294.806 25.3262 294.196C26.6895 293.586 27.7546 292.459 28.2873 291.063C28.82 289.667 28.7766 288.117 28.1665 286.753C27.7012 287.057 27.2841 287.43 26.9292 287.858C26.3908 288.509 26.0373 289.253 25.4186 289.868C24.2655 291.001 22.4054 291.475 20.7462 291.511C19.7905 291.516 18.8353 291.464 17.8857 291.355Z" fill="black"/>
<path d="M31.9675 299.67C31.9675 299.67 27.5161 299.533 26.1742 298.577C24.8324 297.62 19.3445 296.483 18.999 298.014C18.6534 299.545 12.3098 305.65 17.3317 305.674C22.3536 305.698 29.0066 304.895 30.3484 304.067C31.6903 303.239 31.9675 299.67 31.9675 299.67Z" fill="#656380"/>
<path opacity="0.2" d="M17.2429 305.144C22.2688 305.184 28.9178 304.34 30.2556 303.536C31.2761 302.913 31.6819 300.687 31.8185 299.658H31.9671C31.9671 299.658 31.6859 303.251 30.3601 304.079C29.0343 304.907 22.3693 305.714 17.3434 305.686C15.893 305.686 15.3949 305.16 15.423 304.396C15.6118 304.846 16.1622 305.132 17.2429 305.144Z" fill="black"/>
<defs>
<linearGradient id="paint0_linear" x1="50.2149" y1="308.934" x2="50.2149" y2="119.939" gradientUnits="userSpaceOnUse">
<stop stop-color="#808080" stop-opacity="0.25"/>
<stop offset="0.54" stop-color="#808080" stop-opacity="0.12"/>
<stop offset="1" stop-color="#808080" stop-opacity="0.1"/>
</linearGradient>
<linearGradient id="paint1_linear" x1="97430.7" y1="159257" x2="97430.7" y2="62367.6" gradientUnits="userSpaceOnUse">
<stop stop-color="#808080" stop-opacity="0.25"/>
<stop offset="0.54" stop-color="#808080" stop-opacity="0.12"/>
<stop offset="1" stop-color="#808080" stop-opacity="0.1"/>
</linearGradient>
</defs>
</svg>
