<svg width="32" height="32" viewBox="0 0 32 32" fill="none" xmlns="http://www.w3.org/2000/svg">
<path d="M4.08928 18.9393C4.86393 18.9393 5.60685 18.6373 6.15461 18.0997C6.70237 17.5621 7.0101 16.8329 7.0101 16.0726C7.01353 15.4518 6.8082 14.8472 6.42594 14.3525L10.2873 9.97784C10.8232 10.2821 11.4451 10.4081 12.06 10.3368C12.6749 10.2654 13.2498 10.0008 13.6988 9.58223L17.2038 12.0534C17.0372 12.416 16.9478 12.8081 16.9409 13.2058C16.9351 13.2917 16.9351 13.3779 16.9409 13.4638C17.4155 13.2261 17.9124 13.0341 18.4247 12.8905C19.14 12.7096 19.8767 12.6228 20.6153 12.6325H21.0301C21.6224 12.6563 22.2102 12.7448 22.7825 12.8962C22.72 12.2837 22.4554 11.7079 22.029 11.2564L26.2875 5.49422C26.8647 5.74146 27.5079 5.79896 28.1211 5.65816C28.7344 5.51736 29.2848 5.18579 29.6904 4.7129C30.0959 4.24001 30.3349 3.65112 30.3716 3.03405C30.4084 2.41698 30.241 1.80478 29.8943 1.28873C29.5476 0.77268 29.0403 0.380427 28.448 0.17046C27.8556 -0.0395077 27.21 -0.0559431 26.6074 0.123604C26.0048 0.303151 25.4774 0.669064 25.1039 1.16678C24.7305 1.6645 24.5309 2.26736 24.535 2.88547C24.5388 3.60222 24.816 4.29158 25.312 4.81767L21.0651 10.5913C20.6864 10.4255 20.2764 10.3395 19.8617 10.3391C19.1226 10.3385 18.4108 10.6131 17.8697 11.1073L14.3647 8.6362C14.5281 8.26941 14.6098 7.87258 14.6042 7.47229C14.6042 6.71198 14.2965 5.9828 13.7488 5.44518C13.201 4.90756 12.4581 4.60553 11.6834 4.60553C10.9088 4.60553 10.1658 4.90756 9.61809 5.44518C9.07033 5.9828 8.7626 6.71198 8.7626 7.47229C8.76753 8.09646 8.98325 8.70139 9.37597 9.19235L5.51464 13.567C5.07873 13.3292 4.58803 13.2048 4.08928 13.2058C3.31463 13.2058 2.57171 13.5078 2.02395 14.0455C1.47619 14.5831 1.16846 15.3123 1.16846 16.0726C1.16846 16.8329 1.47619 17.5621 2.02395 18.0997C2.57171 18.6373 3.31463 18.9393 4.08928 18.9393Z" fill="#36597A"/>
<path d="M25.7035 11.4857C25.5486 11.4857 25.4 11.5461 25.2905 11.6536C25.1809 11.7612 25.1194 11.907 25.1194 12.0591V13.9282C26.0465 14.5087 26.8474 15.2636 27.4758 16.1493C28.1042 17.0351 28.5477 18.0343 28.7807 19.0891C29.0137 20.144 29.0315 21.2337 28.8332 22.2954C28.635 23.357 28.2245 24.3697 27.6255 25.2749L28.2096 25.8482C28.762 25.8813 29.2823 26.1142 29.67 26.5018L30.3769 27.1956V12.0591C30.3769 11.907 30.3153 11.7612 30.2058 11.6536C30.0962 11.5461 29.9476 11.4857 29.7927 11.4857H25.7035Z" fill="#36597A"/>
<path d="M27.1052 30.4065L26.3984 29.7127C26.0075 29.3294 25.771 28.8203 25.7325 28.2793L25.1483 27.706V30.4065H22.7824V28.738C21.0437 29.2043 19.1974 29.0996 17.5249 28.4399V30.4065H15.1883V27.0466C13.6919 25.7952 12.6951 24.0644 12.3744 22.1608C12.0536 20.2572 12.4296 18.3036 13.4358 16.646H10.515C10.36 16.646 10.2114 16.7064 10.1019 16.8139C9.99234 16.9215 9.9308 17.0673 9.9308 17.2193V30.4065H7.59414V21.8062C7.59414 21.6541 7.53259 21.5083 7.42304 21.4007C7.31349 21.2932 7.16491 21.2328 7.00998 21.2328H2.92082C2.76589 21.2328 2.61731 21.2932 2.50776 21.4007C2.3982 21.5083 2.33666 21.6541 2.33666 21.8062V30.4065H0.584165C0.429235 30.4065 0.28065 30.4669 0.171098 30.5744C0.0615459 30.6819 0 30.8278 0 30.9798C0 31.1319 0.0615459 31.2777 0.171098 31.3852C0.28065 31.4928 0.429235 31.5532 0.584165 31.5532H28.2736L27.6894 30.9798L27.1052 30.4065Z" fill="#36597A"/>
<path d="M31.7959 30.2057L28.875 27.3389C28.7291 27.2005 28.5489 27.1018 28.3522 27.0525C28.1555 27.0032 27.9491 27.0051 27.7534 27.058C27.7296 27.0143 27.7002 26.9738 27.6658 26.9376L26.1178 25.4124C27.3212 24.0211 27.9297 22.2269 27.8161 20.4053C27.7025 18.5836 26.8755 16.8757 25.5082 15.6389C24.1408 14.402 22.3391 13.7321 20.48 13.7693C18.6209 13.8065 16.8486 14.5479 15.5337 15.8384C14.2189 17.1289 13.4635 18.8685 13.4256 20.6932C13.3877 22.5179 14.0702 24.2862 15.3304 25.6283C16.5906 26.9703 18.3307 27.782 20.1867 27.8935C22.0427 28.005 23.8707 27.4077 25.2883 26.2266L26.8421 27.746C26.8791 27.7797 26.9203 27.8086 26.9648 27.832C26.911 28.0241 26.9091 28.2266 26.9593 28.4196C27.0095 28.6127 27.11 28.7895 27.2511 28.9328L30.1719 31.7996C30.3968 31.9506 30.6684 32.0198 30.9397 31.995C31.2111 31.9703 31.4651 31.8532 31.6578 31.6641C31.8505 31.4749 31.9698 31.2256 31.995 30.9593C32.0202 30.693 31.9497 30.4264 31.7959 30.2057Z" fill="#36597A"/>
</svg>
