<svg width="32" height="32" viewBox="0 0 32 32" fill="none" xmlns="http://www.w3.org/2000/svg">
<path d="M4.02755 8.131C4.15482 7.54578 4.33024 6.975 4.55038 6.42229C4.50566 6.53789 4.45751 6.65349 4.41279 6.76909C4.73612 5.97073 5.15576 5.21572 5.65796 4.52573C5.58573 4.62327 5.51349 4.72081 5.44126 4.81835C5.95721 4.12113 6.55228 3.49617 7.21614 2.9543C7.12327 3.03016 7.03039 3.10602 6.93752 3.18189C7.14734 3.01571 7.3606 2.85676 7.58074 2.70504C7.88 2.50274 8.11733 2.21013 8.21365 1.84165C8.30308 1.49485 8.2618 1.03607 8.07606 0.729003C7.88688 0.421941 7.60482 0.147392 7.25397 0.0643048C6.90313 -0.0187825 6.50412 -0.00433254 6.19455 0.208805C5.28647 0.830153 4.44031 1.57794 3.74549 2.45216C3.36713 2.9254 3.0094 3.42392 2.70327 3.95135C2.38682 4.49322 2.13228 5.064 1.89838 5.65283C1.67824 6.20554 1.50282 6.77632 1.37555 7.36154C1.293 7.73724 1.3274 8.13823 1.51314 8.47419C1.68168 8.77403 2.00845 9.05941 2.33522 9.13889C2.68607 9.22197 3.08163 9.20391 3.39465 8.99439C3.68702 8.7957 3.945 8.49948 4.02755 8.131Z" fill="#36597A"/>
<path d="M24.4317 2.70184C24.6519 2.85357 24.8686 3.01252 25.0784 3.18231C24.9855 3.10644 24.8926 3.03058 24.7998 2.95472C25.4568 3.48937 26.0449 4.11072 26.554 4.80071C26.4818 4.70317 26.4095 4.60563 26.3373 4.50809C26.8464 5.20531 27.2695 5.96393 27.5962 6.77314C27.5515 6.65754 27.5034 6.54193 27.4587 6.42633C27.6788 6.97544 27.8508 7.5426 27.9746 8.12421C28.1328 8.86116 28.9824 9.36691 29.6669 9.1321C30.403 8.88284 30.7986 8.14589 30.6266 7.35475C30.1519 5.15835 29.0203 3.09561 27.4587 1.54945C26.953 1.04732 26.3958 0.599365 25.8145 0.198377C25.2091 -0.217061 24.2666 0.0502641 23.933 0.718577C23.5752 1.4483 23.7851 2.26112 24.4317 2.70184Z" fill="#36597A"/>
<path d="M29.8562 23.5495C29.8218 22.7656 29.2508 22.1081 28.4803 22.1081H26.4578V13.1022C26.4681 13.0444 26.4715 12.9866 26.4715 12.9252C26.4646 10.8191 25.8627 8.71663 24.7482 6.96457C23.6578 5.25586 22.1409 3.83977 20.3489 2.99806C19.3445 2.52843 18.3263 2.2286 17.2394 2.08048C16.2831 1.95043 15.3372 1.99017 14.3844 2.13467C12.7678 2.38032 11.1855 3.07031 9.87844 4.08542C8.51976 5.14026 7.3709 6.49495 6.62105 8.09528C5.91247 9.60531 5.53755 11.2562 5.53755 12.9396C5.53755 13.4996 5.54442 14.0595 5.54442 14.6194V22.1081H4.54003C4.21326 22.1081 3.88993 22.1009 3.56316 22.1045C3.5494 22.1045 3.53564 22.1009 3.52188 22.1009C2.80299 22.1009 2.11161 22.7692 2.14601 23.5495C2.1804 24.3334 2.75139 24.9981 3.52188 24.9981H27.4621C27.7889 24.9981 28.1122 24.9981 28.439 24.9945C28.4528 24.9945 28.4665 24.9945 28.4803 24.9945C29.2026 24.9945 29.8906 24.3298 29.8562 23.5495ZM15.8222 8.12057C15.6262 8.12057 15.4301 8.13141 15.2375 8.15308C14.8488 8.21811 14.4739 8.32648 14.1058 8.47821C13.8272 8.60826 13.5623 8.76359 13.3078 8.94061C13.239 8.98757 13.1702 9.04176 13.1014 9.09233C13.0877 9.10317 13.0739 9.11762 13.0602 9.12846C12.9329 9.24044 12.8091 9.35604 12.6887 9.48248C12.5648 9.61253 12.4479 9.74619 12.3344 9.88708C12.3206 9.90514 12.3069 9.91959 12.2965 9.93765C12.2553 10.0027 12.2105 10.0605 12.1693 10.1255C11.9973 10.3892 11.8494 10.671 11.7221 10.96C11.5845 11.3249 11.4848 11.7006 11.4229 12.0835C11.3919 12.3869 11.3919 12.6904 11.3919 12.9938V16.7508C11.3919 17.3577 10.9172 17.8093 10.36 17.8346C9.80276 17.8599 9.32809 17.318 9.32809 16.7508V12.8891C9.32809 11.8306 9.52759 10.8263 9.94723 9.8654C10.9791 7.49561 13.3628 5.96391 15.8222 5.95308C16.4001 5.94946 16.8301 6.4516 16.8541 7.03682C16.8817 7.62205 16.3623 8.11696 15.8222 8.12057Z" fill="#36597A"/>
<path d="M20.2147 27.6064C20.2112 27.5197 20.194 27.4438 20.1665 27.3643C20.0599 27.0573 19.7985 26.8405 19.4648 26.8405H12.6439C12.2415 26.8405 11.8906 27.2018 11.8941 27.628C11.9078 29.4776 13.0154 31.0924 14.6561 31.7427C16.2281 32.364 18.1406 31.8294 19.2137 30.4711C19.8398 29.6799 20.1975 28.7226 20.2181 27.6931C20.2181 27.6714 20.2181 27.6497 20.2181 27.628C20.2181 27.6208 20.2181 27.6136 20.2147 27.6064Z" fill="#36597A"/>
</svg>
