<svg width="32" height="20" viewBox="0 0 32 20" fill="none" xmlns="http://www.w3.org/2000/svg">
<path d="M31.9997 19.5833C31.9997 19.5943 31.9942 19.6035 31.9933 19.6143C31.9867 19.6681 31.972 19.7207 31.9498 19.7702C31.9224 19.8172 31.8881 19.86 31.8479 19.897C31.8398 19.9039 31.8356 19.9136 31.8269 19.9198C31.8096 19.9302 31.7916 19.9393 31.7729 19.947C31.758 19.9558 31.7425 19.9636 31.7266 19.9705C31.6797 19.989 31.6298 19.999 31.5792 20H25.0543L20.0844 13.3366L23.4491 8.77521C23.4824 8.74774 23.5131 8.71739 23.541 8.6845C23.5464 8.68058 23.553 8.68013 23.5585 8.6765C23.583 8.66211 23.6089 8.6503 23.6358 8.64125C23.6599 8.63001 23.6849 8.62104 23.7107 8.61446C23.7637 8.61075 23.817 8.61091 23.87 8.61492C23.8933 8.62112 23.916 8.62927 23.9379 8.63929C23.9668 8.64872 23.9945 8.66129 24.0206 8.67679C24.0259 8.68025 24.0321 8.68067 24.0374 8.68442C24.0653 8.71728 24.096 8.74763 24.1293 8.77512L31.9188 19.3376C31.926 19.3511 31.9325 19.365 31.9381 19.3793C31.9679 19.4276 31.9858 19.4821 31.9906 19.5385C31.9945 19.5533 31.9975 19.5682 31.9997 19.5833ZM12.2076 4.17937L24.0077 20H0.422356C0.3446 20 0.268358 19.9787 0.202081 19.9385C0.135804 19.8982 0.0820824 19.8406 0.0468698 19.772C0.0116572 19.7034 -0.00367022 19.6265 0.00258598 19.5498C0.00884218 19.4731 0.0364376 19.3996 0.082314 19.3375L11.3681 4.03075V0.416667C11.3681 0.30616 11.4124 0.200179 11.4914 0.122039C11.5704 0.0438984 11.6775 0 11.7891 0H16.4207C16.4969 3.80273e-06 16.5717 0.0204755 16.6371 0.0592319C16.7025 0.0979883 16.756 0.153576 16.7919 0.220068C16.8279 0.28656 16.8449 0.361463 16.8413 0.43679C16.8376 0.512117 16.8133 0.585043 16.771 0.647792L16.0846 1.66667L16.7709 2.68554C16.8132 2.74828 16.8374 2.8212 16.8411 2.89651C16.8448 2.97183 16.8278 3.04672 16.7918 3.11321C16.7559 3.1797 16.7024 3.23529 16.637 3.27405C16.5717 3.31282 16.4969 3.33331 16.4207 3.33333H12.2102V4.16667C12.2102 4.17117 12.2077 4.175 12.2076 4.17937ZM15.2283 1.43554L15.6339 0.833333H12.2102V2.5H15.6339L15.2283 1.89779C15.1821 1.82937 15.1575 1.74894 15.1575 1.66667C15.1575 1.58439 15.1821 1.50397 15.2283 1.43554Z" fill="#36597A"/>
</svg>
