<svg width="32" height="26" viewBox="0 0 32 26" fill="none" xmlns="http://www.w3.org/2000/svg">
<path d="M4.19984 13.2291H27.8665C28.4665 13.2291 28.9998 12.8363 29.1332 12.2472L31.3332 4.5228C30.9998 4.1955 30.5332 3.99912 29.9998 3.99912H22.5332L21.7998 1.05338C21.6665 0.660617 21.3332 0.333313 20.8665 0.333313H11.1332C10.6665 0.333313 10.3332 0.595156 10.1998 1.05338L9.4665 3.99912H1.99984C1.4665 3.99912 0.999837 4.1955 0.666504 4.5228L2.93317 12.3126C3.0665 12.8363 3.59984 13.2291 4.19984 13.2291ZM11.8665 2.16622H20.1332L20.5998 3.93366H11.3998L11.8665 2.16622Z" fill="#36597A"/>
<path d="M14.8 19.2515H17.2666C17.6666 19.2515 17.9333 18.9897 17.9333 18.5969V14.5383H14.1333V18.5969C14.1333 18.9897 14.4 19.2515 14.8 19.2515Z" fill="#36597A"/>
<path d="M30.4 12.6399C30.0667 13.7527 29 14.5383 27.8667 14.5383H19.2V18.5968C19.2 19.7097 18.3333 20.5607 17.2 20.5607H14.7333C13.6 20.5607 12.7333 19.7097 12.7333 18.5968V14.5383H4.2C3 14.5383 1.93333 13.7527 1.66667 12.6399L0 7.07574V23.7028C0 24.8156 0.866667 25.6666 2 25.6666H30C31.1333 25.6666 32 24.8156 32 23.7028V7.07574L30.4 12.6399Z" fill="#36597A"/>
</svg>
