<svg width="32" height="32" viewBox="0 0 32 32" fill="none" xmlns="http://www.w3.org/2000/svg">
<path d="M15.2934 16.0289L11.7751 1.20837L11.2065 2.48784L4.63208 5.04678L4.95192 5.57989C5.80482 6.96598 6.51558 8.45869 7.0131 10.0225C7.61724 11.8351 7.97262 13.7543 8.0437 15.6735V15.709L7.11972 29.4278V31.2759C7.11972 31.6668 7.43956 31.9867 7.83047 31.9867H15.2934V16.0289Z" fill="#36597A"/>
<path d="M7.19071 15.6735C7.0841 13.861 6.76426 12.0484 6.19566 10.3069C5.69813 8.81417 5.05845 7.39254 4.20555 6.04199L3.92124 5.57996C3.92124 5.6155 3.88571 5.65104 3.88571 5.72212L0.0121017 30.1742C-0.0589737 30.5296 0.18979 30.885 0.580704 30.9916L5.12953 31.9512C5.30721 31.9868 5.52044 31.9512 5.69813 31.8446C5.87582 31.738 5.98243 31.5603 5.98243 31.3826L6.16012 30.1031L7.19071 15.6735Z" fill="#36597A"/>
<path d="M15.9327 12.8658L18.9889 0H12.9475L13.0541 0.568652L15.9327 12.8658Z" fill="#36597A"/>
<path d="M31.9965 30.1386L28.1229 5.61541C28.1229 5.57987 28.0874 5.54433 28.0874 5.50879L27.732 6.0419C26.9146 7.39245 26.2394 8.81408 25.7419 10.3068C25.1733 12.0483 24.8534 13.8609 24.7468 15.6735L25.7419 29.4988L26.0262 31.3825C26.0617 31.5602 26.1683 31.7379 26.3105 31.88C26.4882 31.9867 26.6659 32.0222 26.8791 31.9867L31.4279 30.9204C31.8188 30.8494 32.032 30.494 31.9965 30.1386Z" fill="#36597A"/>
<path d="M23.8935 15.709V15.6735C23.9645 13.7543 24.3199 11.8706 24.924 10.0225C25.4216 8.45869 26.1323 6.96598 26.9852 5.57989L27.3761 4.9757L20.8017 2.48784L20.2331 1.20837L16.7148 16.0644V31.9867H24.1778C24.5687 31.9867 24.8885 31.6668 24.8885 31.2759V29.9964L23.8935 15.709ZM23.1116 11.0176H19.2025C18.9182 11.0176 18.6694 10.7688 18.6694 10.4845C18.6694 10.2002 18.9182 9.95141 19.2025 9.95141H23.1116C23.3959 9.95141 23.6447 10.2002 23.6447 10.4845C23.6447 10.7688 23.3959 11.0176 23.1116 11.0176Z" fill="#36597A"/>
</svg>
