<svg width="380" height="56" viewBox="0 0 380 56" fill="none" xmlns="http://www.w3.org/2000/svg">
<path fill-rule="evenodd" clip-rule="evenodd" d="M224.381 21.9604C224.029 22.3841 223.63 22.6968 223.184 22.8987C222.738 23.1005 222.257 23.2008 221.739 23.2008C221.19 23.2008 220.683 23.1079 220.216 22.9219C219.75 22.7359 219.351 22.475 219.02 22.139C218.688 21.803 218.429 21.4046 218.243 20.9439C218.057 20.4843 217.963 19.9803 217.963 19.4319C217.963 18.8836 218.057 18.3796 218.243 17.9199C218.429 17.4593 218.688 17.062 219.02 16.7249C219.351 16.3889 219.75 16.1279 220.216 15.942C220.683 15.756 221.19 15.663 221.739 15.663C222.267 15.663 222.756 15.7719 223.207 15.9885C223.658 16.2061 224.059 16.5115 224.412 16.9035L223.666 17.4624C223.397 17.1624 223.101 16.9267 222.781 16.7566C222.459 16.5855 222.112 16.5009 221.739 16.5009C221.304 16.5009 220.91 16.5781 220.558 16.7334C220.205 16.8887 219.906 17.0979 219.657 17.361C219.408 17.6252 219.219 17.9347 219.09 18.2919C218.96 18.649 218.896 19.0283 218.896 19.4319C218.896 19.8356 218.96 20.2149 219.09 20.572C219.219 20.9292 219.408 21.2387 219.657 21.5029C219.906 21.766 220.205 21.9762 220.558 22.1305C220.91 22.2858 221.304 22.364 221.739 22.364C222.133 22.364 222.493 22.2731 222.819 22.0925C223.146 21.9107 223.427 21.6709 223.666 21.3708L224.381 21.9604ZM227.298 17.865C227.298 17.7308 227.293 17.5681 227.283 17.3768C227.273 17.1856 227.264 16.9922 227.26 16.7957C227.255 16.5992 227.246 16.4153 227.237 16.2452C227.226 16.0741 227.221 15.942 227.221 15.849H228.154C228.164 16.1184 228.172 16.3762 228.177 16.6245C228.181 16.8728 228.195 17.0335 228.216 17.1053C228.454 16.6816 228.759 16.335 229.132 16.0667C229.505 15.7972 229.96 15.663 230.499 15.663C230.592 15.663 230.683 15.6704 230.771 15.6863C230.859 15.7021 230.95 15.7201 231.043 15.7402L230.934 16.6552C230.81 16.614 230.691 16.5939 230.577 16.5939C230.173 16.5939 229.824 16.6584 229.528 16.7873C229.233 16.9172 228.99 17.0947 228.798 17.323C228.607 17.5501 228.464 17.8164 228.371 18.1218C228.277 18.4261 228.231 18.7547 228.231 19.1065V23.0149H227.298V17.865ZM239.275 18.8276C239.275 18.5064 239.211 18.2073 239.081 17.9273C238.951 17.6484 238.776 17.4022 238.553 17.1909C238.33 16.9785 238.066 16.8105 237.76 16.6869C237.455 16.5622 237.132 16.5009 236.789 16.5009C236.282 16.5009 235.859 16.6034 235.523 16.8105C235.186 17.0176 234.919 17.2553 234.723 17.5248C234.526 17.7931 234.386 18.0541 234.303 18.3077C234.22 18.5613 234.178 18.7346 234.178 18.8276H239.275ZM239.991 21.6656C239.628 22.214 239.18 22.607 238.646 22.8448C238.113 23.0825 237.525 23.2008 236.883 23.2008C236.334 23.2008 235.836 23.1079 235.39 22.9219C234.946 22.7359 234.562 22.475 234.241 22.139C233.92 21.803 233.674 21.4046 233.503 20.9439C233.332 20.4843 233.247 19.975 233.247 19.4161C233.247 18.8793 233.335 18.3827 233.511 17.9273C233.686 17.4719 233.935 17.0768 234.257 16.7408C234.578 16.4048 234.955 16.1406 235.39 15.9504C235.825 15.7581 236.308 15.663 236.836 15.663C237.385 15.663 237.869 15.7581 238.289 15.9504C238.709 16.1406 239.06 16.3942 239.345 16.7101C239.631 17.025 239.846 17.3842 239.991 17.7879C240.136 18.1915 240.208 18.5993 240.208 19.0135V19.6644H234.178C234.178 19.8609 234.218 20.1124 234.295 20.4167C234.373 20.7221 234.515 21.02 234.723 21.3085C234.93 21.598 235.207 21.8463 235.553 22.0534C235.901 22.2605 236.349 22.364 236.898 22.364C237.375 22.364 237.836 22.2499 238.281 22.0227C238.727 21.7945 239.069 21.4849 239.307 21.0919L239.991 21.6656ZM247.46 19.4161C247.068 19.4161 246.687 19.4425 246.319 19.4943C245.951 19.5461 245.62 19.6338 245.324 19.7584C245.029 19.8821 244.793 20.0469 244.617 20.254C244.442 20.4611 244.354 20.7189 244.354 21.0295C244.354 21.2472 244.402 21.4405 244.501 21.6117C244.599 21.7818 244.726 21.9213 244.882 22.0301C245.037 22.139 245.21 22.2214 245.402 22.2784C245.594 22.3355 245.788 22.364 245.985 22.364C246.482 22.364 246.891 22.2911 247.213 22.1464C247.534 22.0016 247.79 21.8125 247.981 21.58C248.173 21.3476 248.305 21.0834 248.378 20.7897C248.45 20.4949 248.486 20.1969 248.486 19.8979V19.4161H247.46ZM249.326 20.0057C249.326 20.3575 249.329 20.6735 249.334 20.9524C249.338 21.2313 249.347 21.4902 249.357 21.7279C249.367 21.9657 249.381 22.1876 249.395 22.3947C249.411 22.6018 249.435 22.8078 249.465 23.0149H248.595C248.534 22.663 248.502 22.2753 248.502 21.8516H248.471C248.201 22.3175 247.868 22.6588 247.469 22.8754C247.07 23.0931 246.565 23.2008 245.954 23.2008C245.643 23.2008 245.337 23.1628 245.037 23.0846C244.737 23.0075 244.467 22.8839 244.229 22.7127C243.991 22.5415 243.797 22.3228 243.647 22.0534C243.496 21.785 243.421 21.4585 243.421 21.076C243.421 20.5287 243.561 20.0944 243.84 19.7732C244.12 19.4531 244.465 19.2122 244.874 19.0516C245.283 18.892 245.718 18.7885 246.18 18.742C246.64 18.6955 247.047 18.6722 247.399 18.6722H248.486V18.238C248.486 17.6178 248.296 17.1729 247.911 16.9035C247.528 16.6351 247.047 16.5009 246.467 16.5009C245.638 16.5009 244.907 16.7693 244.275 17.3071L243.731 16.671C244.073 16.3403 244.499 16.0899 245.006 15.9187C245.514 15.7486 246.001 15.663 246.467 15.663C247.337 15.663 248.031 15.867 248.549 16.2759C249.067 16.6837 249.326 17.343 249.326 18.2528V20.0057ZM256.781 16.6869H254.73V21.356C254.73 21.6762 254.818 21.9245 254.994 22.0999C255.171 22.2753 255.414 22.364 255.724 22.364C255.9 22.364 256.079 22.3408 256.261 22.2943C256.442 22.2467 256.615 22.1876 256.781 22.1157L256.859 22.9536C256.682 23.0149 256.481 23.0719 256.252 23.1237C256.025 23.1755 255.823 23.2008 255.647 23.2008C255.316 23.2008 255.03 23.1522 254.792 23.054C254.553 22.9557 254.362 22.8236 254.217 22.6588C254.072 22.4929 253.966 22.2985 253.898 22.0766C253.832 21.8547 253.798 21.6138 253.798 21.356V16.6869H252.244V15.849H253.798V13.7865H254.73V15.849H256.781V16.6869ZM265.526 18.8276C265.526 18.5064 265.461 18.2073 265.332 17.9273C265.202 17.6484 265.026 17.4022 264.803 17.1909C264.581 16.9785 264.316 16.8105 264.011 16.6869C263.705 16.5622 263.381 16.5009 263.039 16.5009C262.532 16.5009 262.11 16.6034 261.773 16.8105C261.437 17.0176 261.17 17.2553 260.973 17.5248C260.776 17.7931 260.637 18.0541 260.553 18.3077C260.47 18.5613 260.429 18.7346 260.429 18.8276H265.526ZM266.241 21.6656C265.878 22.214 265.431 22.607 264.897 22.8448C264.364 23.0825 263.775 23.2008 263.133 23.2008C262.584 23.2008 262.087 23.1079 261.641 22.9219C261.196 22.7359 260.812 22.475 260.492 22.139C260.171 21.803 259.924 21.4046 259.753 20.9439C259.582 20.4843 259.497 19.975 259.497 19.4161C259.497 18.8793 259.584 18.3827 259.761 17.9273C259.937 17.4719 260.186 17.0768 260.507 16.7408C260.828 16.4048 261.206 16.1406 261.641 15.9504C262.076 15.7581 262.558 15.663 263.086 15.663C263.635 15.663 264.119 15.7581 264.539 15.9504C264.958 16.1406 265.311 16.3942 265.596 16.7101C265.88 17.025 266.095 17.3842 266.241 17.7879C266.385 18.1915 266.458 18.5993 266.458 19.0135V19.6644H260.429C260.429 19.8609 260.468 20.1124 260.546 20.4167C260.623 20.7221 260.766 21.02 260.973 21.3085C261.181 21.598 261.457 21.8463 261.804 22.0534C262.151 22.2605 262.599 22.364 263.148 22.364C263.625 22.364 264.086 22.2499 264.532 22.0227C264.976 21.7945 265.318 21.4849 265.558 21.0919L266.241 21.6656ZM276.369 19.4319C276.369 19.0283 276.291 18.649 276.135 18.2919C275.98 17.9347 275.768 17.6252 275.499 17.361C275.229 17.0979 274.914 16.8887 274.551 16.7334C274.189 16.5781 273.795 16.5009 273.369 16.5009C272.934 16.5009 272.54 16.5781 272.189 16.7334C271.837 16.8887 271.536 17.0979 271.287 17.361C271.038 17.6252 270.85 17.9347 270.72 18.2919C270.591 18.649 270.526 19.0283 270.526 19.4319C270.526 19.8356 270.591 20.2149 270.72 20.572C270.85 20.9292 271.038 21.2387 271.287 21.5029C271.536 21.766 271.837 21.9762 272.189 22.1305C272.54 22.2858 272.934 22.364 273.369 22.364C273.795 22.364 274.189 22.2858 274.551 22.1305C274.914 21.9762 275.229 21.766 275.499 21.5029C275.768 21.2387 275.98 20.9292 276.135 20.572C276.291 20.2149 276.369 19.8356 276.369 19.4319ZM276.275 21.7586H276.244C276.099 22.0069 275.918 22.2214 275.7 22.4021C275.483 22.5838 275.247 22.7338 274.994 22.8522C274.74 22.9716 274.473 23.0593 274.193 23.1163C273.913 23.1734 273.639 23.2008 273.369 23.2008C272.821 23.2008 272.313 23.1079 271.847 22.9219C271.38 22.7359 270.982 22.475 270.65 22.139C270.319 21.803 270.059 21.4046 269.873 20.9439C269.687 20.4843 269.594 19.9803 269.594 19.4319C269.594 18.8836 269.687 18.3796 269.873 17.9199C270.059 17.4593 270.319 17.062 270.65 16.7249C270.982 16.3889 271.38 16.1279 271.847 15.942C272.313 15.756 272.821 15.663 273.369 15.663C273.639 15.663 273.913 15.6916 274.193 15.7486C274.473 15.8046 274.74 15.8934 274.994 16.0117C275.247 16.1311 275.483 16.2811 275.7 16.4618C275.918 16.6425 276.099 16.857 276.244 17.1053H276.275V11.2887H277.207V23.0149H276.275V21.7586ZM285.627 19.4319C285.627 19.8356 285.704 20.2149 285.86 20.572C286.015 20.9292 286.227 21.2387 286.497 21.5029C286.766 21.766 287.082 21.9762 287.444 22.1305C287.807 22.2858 288.201 22.364 288.625 22.364C289.06 22.364 289.454 22.2858 289.807 22.1305C290.158 21.9762 290.459 21.766 290.707 21.5029C290.956 21.2387 291.146 20.9292 291.275 20.572C291.404 20.2149 291.47 19.8356 291.47 19.4319C291.47 19.0283 291.404 18.649 291.275 18.2919C291.146 17.9347 290.956 17.6252 290.707 17.361C290.459 17.0979 290.158 16.8887 289.807 16.7334C289.454 16.5781 289.06 16.5009 288.625 16.5009C288.201 16.5009 287.807 16.5781 287.444 16.7334C287.082 16.8887 286.766 17.0979 286.497 17.361C286.227 17.6252 286.015 17.9347 285.86 18.2919C285.704 18.649 285.627 19.0283 285.627 19.4319ZM284.787 11.2887H285.72V17.1053H285.75C285.896 16.857 286.077 16.6425 286.295 16.4618C286.512 16.2811 286.748 16.1311 287.002 16.0117C287.256 15.8934 287.522 15.8046 287.802 15.7486C288.081 15.6916 288.357 15.663 288.625 15.663C289.175 15.663 289.68 15.756 290.14 15.942C290.602 16.1279 291 16.3889 291.337 16.7249C291.674 17.062 291.935 17.4593 292.122 17.9199C292.308 18.3796 292.401 18.8836 292.401 19.4319C292.401 19.9803 292.308 20.4843 292.122 20.9439C291.935 21.4046 291.674 21.803 291.337 22.139C291 22.475 290.602 22.7359 290.14 22.9219C289.68 23.1079 289.175 23.2008 288.625 23.2008C288.357 23.2008 288.081 23.1734 287.802 23.1163C287.522 23.0593 287.256 22.9716 287.002 22.8522C286.748 22.7338 286.512 22.5838 286.295 22.4021C286.077 22.2214 285.896 22.0069 285.75 21.7586H285.72V23.0149H284.787V11.2887ZM297.96 25.2338C297.785 25.6987 297.541 26.0653 297.23 26.3347C296.92 26.6031 296.505 26.7373 295.987 26.7373C295.832 26.7373 295.677 26.7246 295.521 26.6993C295.366 26.6728 295.216 26.639 295.071 26.5978L295.164 25.7293C295.298 25.7705 295.436 25.8096 295.575 25.8455C295.715 25.8825 295.858 25.9005 296.003 25.9005C296.168 25.9005 296.316 25.8645 296.446 25.7916C296.576 25.7187 296.687 25.6268 296.78 25.5127C296.873 25.3986 296.954 25.2718 297.02 25.1323C297.088 24.9928 297.147 24.8502 297.199 24.7055L297.852 23.0466L294.931 15.849H295.971L298.349 21.8822L300.665 15.849H301.659L297.96 25.2338ZM308.555 13.011C308.555 12.8144 308.622 12.6485 308.757 12.5144C308.891 12.3802 309.057 12.3125 309.254 12.3125C309.451 12.3125 309.616 12.3802 309.752 12.5144C309.886 12.6485 309.953 12.8144 309.953 13.011C309.953 13.2075 309.886 13.3723 309.752 13.5065C309.616 13.6418 309.451 13.7083 309.254 13.7083C309.057 13.7083 308.891 13.6418 308.757 13.5065C308.622 13.3723 308.555 13.2075 308.555 13.011ZM308.788 23.0149H309.72V15.849H308.788V23.0149ZM313.82 17.865C313.82 17.7308 313.814 17.5681 313.804 17.3768C313.793 17.1856 313.786 16.9922 313.78 16.7957C313.775 16.5992 313.767 16.4153 313.757 16.2452C313.747 16.0741 313.741 15.942 313.741 15.849H314.674C314.684 16.1184 314.692 16.3762 314.697 16.6245C314.702 16.8728 314.715 17.0335 314.736 17.1053H314.783C314.969 16.7122 315.279 16.3741 315.714 16.0899C316.149 15.8046 316.658 15.663 317.238 15.663C317.798 15.663 318.253 15.7507 318.605 15.9272C318.958 16.1026 319.234 16.3329 319.436 16.6171C319.638 16.9014 319.778 17.23 319.856 17.6019C319.934 17.9738 319.973 18.3563 319.973 18.7494V23.0149H319.04V18.7959C319.04 18.5064 319.014 18.2253 318.963 17.9506C318.911 17.6769 318.82 17.4307 318.691 17.2141C318.561 16.9965 318.38 16.8232 318.147 16.6943C317.914 16.5654 317.61 16.5009 317.238 16.5009C316.896 16.5009 316.572 16.5601 316.267 16.6795C315.961 16.7978 315.696 16.9785 315.474 17.2215C315.251 17.4645 315.075 17.7699 314.946 18.1365C314.816 18.5042 314.751 18.9353 314.751 19.4319V23.0149H313.82V17.865ZM322.906 15.849H323.962L326.355 22.0069L328.686 15.849H329.635L326.806 23.0149H325.843L322.906 15.849ZM338.193 18.8276C338.193 18.5064 338.128 18.2073 337.999 17.9273C337.869 17.6484 337.693 17.4022 337.471 17.1909C337.247 16.9785 336.984 16.8105 336.678 16.6869C336.372 16.5622 336.049 16.5009 335.706 16.5009C335.199 16.5009 334.777 16.6034 334.44 16.8105C334.104 17.0176 333.837 17.2553 333.64 17.5248C333.443 17.7931 333.303 18.0541 333.221 18.3077C333.137 18.5613 333.096 18.7346 333.096 18.8276H338.193ZM338.908 21.6656C338.545 22.214 338.097 22.607 337.564 22.8448C337.03 23.0825 336.442 23.2008 335.8 23.2008C335.251 23.2008 334.754 23.1079 334.308 22.9219C333.863 22.7359 333.479 22.475 333.158 22.139C332.838 21.803 332.591 21.4046 332.421 20.9439C332.249 20.4843 332.164 19.975 332.164 19.4161C332.164 18.8793 332.252 18.3827 332.428 17.9273C332.604 17.4719 332.852 17.0768 333.174 16.7408C333.495 16.4048 333.873 16.1406 334.308 15.9504C334.743 15.7581 335.225 15.663 335.754 15.663C336.302 15.663 336.787 15.7581 337.206 15.9504C337.625 16.1406 337.978 16.3942 338.262 16.7101C338.548 17.025 338.762 17.3842 338.908 17.7879C339.053 18.1915 339.125 18.5993 339.125 19.0135V19.6644H333.096C333.096 19.8609 333.135 20.1124 333.212 20.4167C333.291 20.7221 333.433 21.02 333.64 21.3085C333.847 21.598 334.124 21.8463 334.471 22.0534C334.818 22.2605 335.267 22.364 335.815 22.364C336.292 22.364 336.753 22.2499 337.199 22.0227C337.643 21.7945 337.986 21.4849 338.224 21.0919L338.908 21.6656ZM342.681 21.1848C342.877 21.5673 343.168 21.86 343.551 22.0608C343.934 22.2626 344.338 22.364 344.763 22.364C344.96 22.364 345.156 22.3323 345.353 22.271C345.549 22.2087 345.726 22.121 345.882 22.0069C346.037 21.8928 346.163 21.7565 346.261 21.5959C346.36 21.4353 346.41 21.2514 346.41 21.0454C346.41 20.7147 346.304 20.4664 346.091 20.3005C345.878 20.1356 345.617 20.0057 345.307 19.9127C344.996 19.8197 344.654 19.7394 344.281 19.6728C343.907 19.6052 343.566 19.5017 343.255 19.3622C342.944 19.2227 342.683 19.0283 342.471 18.7811C342.258 18.5328 342.152 18.1809 342.152 17.7255C342.152 17.3747 342.224 17.0694 342.369 16.8105C342.514 16.5527 342.704 16.3371 342.937 16.167C343.17 15.9969 343.431 15.8701 343.721 15.7867C344.011 15.7042 344.306 15.663 344.607 15.663C345.198 15.663 345.708 15.7719 346.138 15.9885C346.567 16.2061 346.902 16.5474 347.14 17.0123L346.301 17.5089C346.125 17.1782 345.905 16.9267 345.64 16.7566C345.377 16.5855 345.032 16.5009 344.607 16.5009C344.441 16.5009 344.267 16.5263 344.086 16.5781C343.905 16.6298 343.742 16.7017 343.597 16.7957C343.452 16.8887 343.331 17.007 343.232 17.1518C343.134 17.2965 343.084 17.4624 343.084 17.6484C343.084 17.9685 343.191 18.2073 343.403 18.3616C343.615 18.5169 343.877 18.6384 344.188 18.7261C344.498 18.8138 344.84 18.8888 345.213 18.9512C345.586 19.0135 345.928 19.1139 346.238 19.2534C346.549 19.3939 346.811 19.5947 347.024 19.8588C347.235 20.123 347.342 20.497 347.342 20.983C347.342 21.356 347.272 21.6783 347.132 21.953C346.992 22.2267 346.8 22.457 346.557 22.643C346.313 22.8289 346.037 22.9684 345.726 23.0614C345.415 23.1544 345.089 23.2008 344.747 23.2008C344.125 23.2008 343.558 23.0825 343.046 22.8448C342.532 22.607 342.137 22.2393 341.857 21.7427L342.681 21.1848ZM354.253 16.6869H352.202V21.356C352.202 21.6762 352.291 21.9245 352.466 22.0999C352.642 22.2753 352.886 22.364 353.197 22.364C353.372 22.364 353.551 22.3408 353.732 22.2943C353.914 22.2467 354.088 22.1876 354.253 22.1157L354.331 22.9536C354.155 23.0149 353.953 23.0719 353.725 23.1237C353.497 23.1755 353.295 23.2008 353.119 23.2008C352.788 23.2008 352.502 23.1522 352.264 23.054C352.026 22.9557 351.835 22.8236 351.689 22.6588C351.544 22.4929 351.439 22.2985 351.371 22.0766C351.303 21.8547 351.27 21.6138 351.27 21.356V16.6869H349.716V15.849H351.27V13.7865H352.202V15.849H354.253V16.6869ZM357.902 19.4319C357.902 19.8356 357.966 20.2149 358.096 20.572C358.226 20.9292 358.414 21.2387 358.663 21.5029C358.912 21.766 359.212 21.9762 359.565 22.1305C359.916 22.2858 360.31 22.364 360.745 22.364C361.18 22.364 361.574 22.2858 361.926 22.1305C362.279 21.9762 362.579 21.766 362.827 21.5029C363.076 21.2387 363.265 20.9292 363.394 20.572C363.523 20.2149 363.589 19.8356 363.589 19.4319C363.589 19.0283 363.523 18.649 363.394 18.2919C363.265 17.9347 363.076 17.6252 362.827 17.361C362.579 17.0979 362.279 16.8887 361.926 16.7334C361.574 16.5781 361.18 16.5009 360.745 16.5009C360.31 16.5009 359.916 16.5781 359.565 16.7334C359.212 16.8887 358.912 17.0979 358.663 17.361C358.414 17.6252 358.226 17.9347 358.096 18.2919C357.966 18.649 357.902 19.0283 357.902 19.4319ZM356.969 19.4319C356.969 18.8836 357.062 18.3796 357.249 17.9199C357.435 17.4593 357.694 17.062 358.026 16.7249C358.357 16.3889 358.756 16.1279 359.223 15.942C359.689 15.756 360.197 15.663 360.745 15.663C361.294 15.663 361.799 15.756 362.26 15.942C362.721 16.1279 363.12 16.3889 363.457 16.7249C363.793 17.062 364.055 17.4593 364.241 17.9199C364.427 18.3796 364.522 18.8836 364.522 19.4319C364.522 19.9803 364.427 20.4843 364.241 20.9439C364.055 21.4046 363.793 21.803 363.457 22.139C363.12 22.475 362.721 22.7359 362.26 22.9219C361.799 23.1079 361.294 23.2008 360.745 23.2008C360.197 23.2008 359.689 23.1079 359.223 22.9219C358.756 22.7359 358.357 22.475 358.026 22.139C357.694 21.803 357.435 21.4046 357.249 20.9439C357.062 20.4843 356.969 19.9803 356.969 19.4319ZM368.06 17.865C368.06 17.7308 368.056 17.5681 368.045 17.3768C368.035 17.1856 368.027 16.9922 368.022 16.7957C368.017 16.5992 368.008 16.4153 367.999 16.2452C367.988 16.0741 367.983 15.942 367.983 15.849H368.915C368.926 16.1184 368.933 16.3762 368.939 16.6245C368.944 16.8728 368.957 17.0335 368.978 17.1053C369.216 16.6816 369.521 16.335 369.895 16.0667C370.267 15.7972 370.723 15.663 371.261 15.663C371.355 15.663 371.445 15.6704 371.533 15.6863C371.622 15.7021 371.712 15.7201 371.805 15.7402L371.696 16.6552C371.572 16.614 371.454 16.5939 371.339 16.5939C370.935 16.5939 370.586 16.6584 370.29 16.7873C369.995 16.9172 369.752 17.0947 369.56 17.323C369.368 17.5501 369.226 17.8164 369.132 18.1218C369.039 18.4261 368.993 18.7547 368.993 19.1065V23.0149H368.06V17.865ZM374.708 21.1848C374.904 21.5673 375.194 21.86 375.578 22.0608C375.961 22.2626 376.365 22.364 376.79 22.364C376.986 22.364 377.183 22.3323 377.38 22.271C377.577 22.2087 377.753 22.121 377.908 22.0069C378.064 21.8928 378.191 21.7565 378.289 21.5959C378.388 21.4353 378.437 21.2514 378.437 21.0454C378.437 20.7147 378.331 20.4664 378.118 20.3005C377.906 20.1356 377.645 20.0057 377.334 19.9127C377.022 19.8197 376.682 19.7394 376.308 19.6728C375.935 19.6052 375.593 19.5017 375.282 19.3622C374.972 19.2227 374.711 19.0283 374.498 18.7811C374.285 18.5328 374.179 18.1809 374.179 17.7255C374.179 17.3747 374.252 17.0694 374.397 16.8105C374.542 16.5527 374.731 16.3371 374.964 16.167C375.198 15.9969 375.459 15.8701 375.749 15.7867C376.039 15.7042 376.334 15.663 376.635 15.663C377.225 15.663 377.735 15.7719 378.166 15.9885C378.595 16.2061 378.929 16.5474 379.167 17.0123L378.329 17.5089C378.152 17.1782 377.932 16.9267 377.668 16.7566C377.404 16.5855 377.059 16.5009 376.635 16.5009C376.469 16.5009 376.295 16.5263 376.114 16.5781C375.932 16.6298 375.769 16.7017 375.624 16.7957C375.479 16.8887 375.357 17.007 375.259 17.1518C375.161 17.2965 375.112 17.4624 375.112 17.6484C375.112 17.9685 375.218 18.2073 375.43 18.3616C375.643 18.5169 375.905 18.6384 376.215 18.7261C376.526 18.8138 376.868 18.8888 377.24 18.9512C377.613 19.0135 377.955 19.1139 378.266 19.2534C378.577 19.3939 378.839 19.5947 379.051 19.8588C379.263 20.123 379.369 20.497 379.369 20.983C379.369 21.356 379.299 21.6783 379.16 21.953C379.02 22.2267 378.828 22.457 378.585 22.643C378.341 22.8289 378.064 22.9684 377.753 23.0614C377.443 23.1544 377.117 23.2008 376.775 23.2008C376.152 23.2008 375.586 23.0825 375.073 22.8448C374.56 22.607 374.163 22.2393 373.884 21.7427L374.708 21.1848ZM218.896 35.02H217.403V34.1832H218.896V31.8407C218.896 31.3758 218.966 30.9901 219.105 30.6858C219.245 30.3805 219.419 30.1343 219.625 29.9483C219.833 29.7624 220.063 29.6303 220.317 29.5532C220.57 29.475 220.812 29.4369 221.039 29.4369C221.474 29.4369 221.832 29.4982 222.112 29.6229L221.925 30.4291C221.718 30.3255 221.438 30.2738 221.086 30.2738C220.248 30.2738 219.827 30.9098 219.827 32.182V34.1832H221.506V35.02H219.827V41.3491H218.896V35.02ZM224.953 37.7661C224.953 38.1687 225.017 38.5491 225.146 38.9062C225.275 39.2633 225.465 39.5729 225.714 39.8371C225.962 40.1002 226.262 40.3094 226.614 40.4647C226.967 40.62 227.361 40.6972 227.796 40.6972C228.231 40.6972 228.625 40.62 228.977 40.4647C229.328 40.3094 229.629 40.1002 229.878 39.8371C230.127 39.5729 230.315 39.2633 230.445 38.9062C230.574 38.5491 230.639 38.1687 230.639 37.7661C230.639 37.3625 230.574 36.9832 230.445 36.6261C230.315 36.2689 230.127 35.9593 229.878 35.6952C229.629 35.4321 229.328 35.2218 228.977 35.0676C228.625 34.9122 228.231 34.8341 227.796 34.8341C227.361 34.8341 226.967 34.9122 226.614 35.0676C226.262 35.2218 225.962 35.4321 225.714 35.6952C225.465 35.9593 225.275 36.2689 225.146 36.6261C225.017 36.9832 224.953 37.3625 224.953 37.7661ZM224.02 37.7661C224.02 37.2178 224.113 36.7138 224.3 36.2541C224.486 35.7935 224.745 35.3951 225.076 35.0591C225.408 34.7231 225.807 34.4621 226.273 34.2762C226.739 34.0902 227.246 33.9972 227.796 33.9972C228.345 33.9972 228.85 34.0902 229.31 34.2762C229.772 34.4621 230.171 34.7231 230.508 35.0591C230.844 35.3951 231.106 35.7935 231.292 36.2541C231.478 36.7138 231.571 37.2178 231.571 37.7661C231.571 38.3145 231.478 38.8185 231.292 39.2781C231.106 39.7388 230.844 40.1372 230.508 40.4732C230.171 40.8092 229.772 41.0701 229.31 41.2561C228.85 41.4421 228.345 41.535 227.796 41.535C227.246 41.535 226.739 41.4421 226.273 41.2561C225.807 41.0701 225.408 40.8092 225.076 40.4732C224.745 40.1372 224.486 39.7388 224.3 39.2781C224.113 38.8185 224.02 38.3145 224.02 37.7661ZM235.111 36.1992C235.111 36.065 235.106 35.9023 235.095 35.711C235.086 35.5198 235.077 35.3254 235.073 35.1289C235.067 34.9323 235.059 34.7495 235.049 34.5784C235.038 34.4082 235.034 34.2762 235.034 34.1832H235.965C235.976 34.4516 235.984 34.7104 235.99 34.9587C235.994 35.207 236.008 35.3666 236.028 35.4395C236.266 35.0158 236.572 34.6692 236.944 34.3998C237.318 34.1314 237.773 33.9972 238.312 33.9972C238.405 33.9972 238.496 34.0046 238.584 34.0205C238.672 34.0353 238.763 34.0532 238.856 34.0744L238.747 34.9894C238.623 34.9482 238.503 34.927 238.39 34.927C237.986 34.927 237.637 34.9925 237.341 35.1215C237.046 35.2504 236.802 35.4289 236.611 35.6561C236.419 35.8843 236.276 36.1506 236.183 36.4549C236.09 36.7602 236.044 37.0889 236.044 37.4396V41.3491H235.111V36.1992ZM245.705 31.3441C245.705 31.1476 245.772 30.9827 245.907 30.8485C246.042 30.7133 246.207 30.6467 246.404 30.6467C246.601 30.6467 246.767 30.7133 246.902 30.8485C247.036 30.9827 247.104 31.1476 247.104 31.3441C247.104 31.5406 247.036 31.7065 246.902 31.8407C246.767 31.9749 246.601 32.0425 246.404 32.0425C246.207 32.0425 246.042 31.9749 245.907 31.8407C245.772 31.7065 245.705 31.5406 245.705 31.3441ZM245.938 41.3491H246.871V34.1832H245.938V41.3491ZM250.969 36.1992C250.969 36.065 250.964 35.9023 250.954 35.711C250.944 35.5198 250.936 35.3254 250.93 35.1289C250.925 34.9323 250.918 34.7495 250.907 34.5784C250.896 34.4082 250.892 34.2762 250.892 34.1832H251.824C251.834 34.4516 251.843 34.7104 251.847 34.9587C251.852 35.207 251.865 35.3666 251.886 35.4395H251.933C252.119 35.0464 252.43 34.7073 252.865 34.423C253.3 34.1388 253.808 33.9972 254.388 33.9972C254.947 33.9972 255.403 34.0849 255.756 34.2603C256.107 34.4368 256.385 34.6661 256.587 34.9503C256.789 35.2356 256.929 35.5631 257.006 35.9361C257.084 36.308 257.122 36.6905 257.122 37.0836V41.3491H256.191V37.1301C256.191 36.8405 256.164 36.5584 256.113 36.2848C256.061 36.0111 255.971 35.7649 255.841 35.5483C255.711 35.3307 255.53 35.1574 255.297 35.0285C255.064 34.8996 254.761 34.8341 254.388 34.8341C254.046 34.8341 253.723 34.8943 253.417 35.0126C253.111 35.132 252.847 35.3127 252.624 35.5557C252.402 35.7987 252.226 36.1041 252.096 36.4707C251.966 36.8374 251.902 37.2695 251.902 37.7661V41.3491H250.969V36.1992ZM260.057 34.1832H261.113L263.506 40.3411L265.837 34.1832H266.784L263.957 41.3491H262.993L260.057 34.1832Z" fill="#2A2D33"/>
<path fill-rule="evenodd" clip-rule="evenodd" d="M275.343 37.1607C275.343 36.8405 275.279 36.5405 275.149 36.2615C275.019 35.9826 274.843 35.7364 274.62 35.5251C274.398 35.3127 274.133 35.1447 273.828 35.02C273.523 34.8964 273.199 34.834 272.857 34.834C272.349 34.834 271.928 34.9376 271.59 35.1447C271.253 35.3518 270.987 35.5895 270.79 35.8579C270.593 36.1273 270.453 36.3883 270.37 36.6408C270.288 36.8944 270.247 37.0677 270.247 37.1607H275.343ZM276.058 39.9998C275.696 40.5471 275.247 40.9402 274.713 41.1779C274.18 41.4156 273.593 41.535 272.95 41.535C272.401 41.535 271.904 41.442 271.459 41.2561C271.013 41.0701 270.63 40.8091 270.308 40.4731C269.987 40.1371 269.742 39.7388 269.57 39.2781C269.4 38.8185 269.314 38.3092 269.314 37.7503C269.314 37.2125 269.402 36.7169 269.579 36.2615C269.754 35.8061 270.003 35.411 270.324 35.075C270.646 34.739 271.024 34.4748 271.459 34.2836C271.894 34.0923 272.375 33.9972 272.903 33.9972C273.453 33.9972 273.937 34.0923 274.357 34.2836C274.776 34.4748 275.128 34.7284 275.413 35.0443C275.698 35.3592 275.913 35.7184 276.058 36.122C276.203 36.5257 276.276 36.9335 276.276 37.3477V37.9986H270.247C270.247 38.1951 270.285 38.4455 270.363 38.7509C270.44 39.0562 270.583 39.3531 270.79 39.6426C270.997 39.9322 271.274 40.1805 271.622 40.3876C271.969 40.5946 272.417 40.6971 272.966 40.6971C273.442 40.6971 273.903 40.5841 274.348 40.3569C274.794 40.1287 275.136 39.818 275.374 39.426L276.058 39.9998ZM279.83 39.519C280.027 39.9015 280.317 40.1931 280.7 40.3949C281.084 40.5968 281.488 40.6971 281.912 40.6971C282.109 40.6971 282.306 40.6665 282.503 40.6042C282.7 40.5429 282.876 40.4552 283.031 40.3411C283.187 40.2269 283.314 40.0906 283.412 39.93C283.511 39.7694 283.559 39.5856 283.559 39.3796C283.559 39.0478 283.453 38.8005 283.241 38.6346C283.029 38.4688 282.768 38.3399 282.456 38.2469C282.145 38.1539 281.804 38.0736 281.431 38.007C281.058 37.9394 280.716 37.8359 280.405 37.6964C280.095 37.5569 279.832 37.3625 279.621 37.1142C279.408 36.8659 279.302 36.5151 279.302 36.0597C279.302 35.7079 279.375 35.4036 279.52 35.1447C279.664 34.8858 279.854 34.6713 280.086 34.5012C280.32 34.33 280.582 34.2032 280.872 34.1208C281.162 34.0384 281.457 33.9972 281.758 33.9972C282.347 33.9972 282.858 34.105 283.288 34.3226C283.718 34.5393 284.052 34.8805 284.29 35.3465L283.45 35.842C283.275 35.5113 283.054 35.2609 282.791 35.0908C282.526 34.9196 282.182 34.834 281.758 34.834C281.592 34.834 281.418 34.8605 281.237 34.9122C281.055 34.964 280.892 35.0359 280.747 35.1288C280.602 35.2218 280.48 35.3412 280.382 35.486C280.283 35.6307 280.235 35.7966 280.235 35.9826C280.235 36.3027 280.34 36.5405 280.553 36.6958C280.766 36.8511 281.027 36.9726 281.338 37.0603C281.649 37.148 281.991 37.223 282.363 37.2854C282.736 37.3477 283.078 37.4481 283.389 37.5876C283.699 37.727 283.962 37.9288 284.173 38.193C284.386 38.4561 284.492 38.8312 284.492 39.3172C284.492 39.6891 284.422 40.0125 284.282 40.2872C284.143 40.5608 283.951 40.7912 283.708 40.9771C283.464 41.1631 283.187 41.3026 282.876 41.3956C282.565 41.4885 282.239 41.535 281.898 41.535C281.275 41.535 280.709 41.4156 280.195 41.1779C279.683 40.9402 279.286 40.5735 279.007 40.0769L279.83 39.519ZM291.404 35.02H289.353V39.6891C289.353 40.0103 289.44 40.2586 289.617 40.434C289.793 40.6094 290.036 40.6971 290.347 40.6971C290.523 40.6971 290.702 40.6739 290.883 40.6274C291.064 40.5809 291.238 40.5217 291.404 40.4488L291.481 41.2867C291.305 41.3491 291.103 41.4061 290.876 41.4579C290.647 41.5097 290.446 41.535 290.269 41.535C289.938 41.535 289.653 41.4864 289.415 41.3882C289.177 41.2899 288.984 41.1578 288.84 40.9919C288.695 40.8271 288.588 40.6327 288.522 40.4108C288.454 40.1889 288.42 39.948 288.42 39.6891V35.02H286.866V34.1832H288.42V32.1196H289.353V34.1832H291.404V35.02ZM295.051 37.7661C295.051 38.1687 295.117 38.5491 295.246 38.9062C295.375 39.2633 295.565 39.5729 295.814 39.8371C296.062 40.1002 296.362 40.3094 296.714 40.4647C297.067 40.62 297.461 40.6971 297.896 40.6971C298.331 40.6971 298.724 40.62 299.076 40.4647C299.428 40.3094 299.729 40.1002 299.978 39.8371C300.226 39.5729 300.415 39.2633 300.545 38.9062C300.674 38.5491 300.739 38.1687 300.739 37.7661C300.739 37.3625 300.674 36.9832 300.545 36.626C300.415 36.2689 300.226 35.9593 299.978 35.6952C299.729 35.4321 299.428 35.2218 299.076 35.0676C298.724 34.9122 298.331 34.834 297.896 34.834C297.461 34.834 297.067 34.9122 296.714 35.0676C296.362 35.2218 296.062 35.4321 295.814 35.6952C295.565 35.9593 295.375 36.2689 295.246 36.626C295.117 36.9832 295.051 37.3625 295.051 37.7661ZM294.12 37.7661C294.12 37.2177 294.213 36.7137 294.399 36.2541C294.586 35.7934 294.844 35.3951 295.176 35.0591C295.508 34.7231 295.907 34.4621 296.372 34.2762C296.838 34.0902 297.346 33.9972 297.896 33.9972C298.445 33.9972 298.95 34.0902 299.41 34.2762C299.872 34.4621 300.27 34.7231 300.606 35.0591C300.943 35.3951 301.206 35.7934 301.392 36.2541C301.578 36.7137 301.671 37.2177 301.671 37.7661C301.671 38.3145 301.578 38.8185 301.392 39.2781C301.206 39.7388 300.943 40.1371 300.606 40.4731C300.27 40.8091 299.872 41.0701 299.41 41.2561C298.95 41.442 298.445 41.535 297.896 41.535C297.346 41.535 296.838 41.442 296.372 41.2561C295.907 41.0701 295.508 40.8091 295.176 40.4731C294.844 40.1371 294.586 39.7388 294.399 39.2781C294.213 38.8185 294.12 38.3145 294.12 37.7661ZM305.211 36.1992C305.211 36.065 305.206 35.9023 305.195 35.711C305.185 35.5198 305.177 35.3254 305.172 35.1288C305.166 34.9323 305.159 34.7495 305.148 34.5783C305.138 34.4082 305.133 34.2762 305.133 34.1832H306.065C306.076 34.4516 306.083 34.7104 306.088 34.9587C306.094 35.207 306.106 35.3666 306.128 35.4395C306.366 35.0158 306.672 34.6692 307.044 34.3998C307.418 34.1314 307.873 33.9972 308.412 33.9972C308.505 33.9972 308.596 34.0046 308.684 34.0205C308.772 34.0353 308.863 34.0532 308.956 34.0743L308.847 34.9894C308.723 34.9482 308.603 34.927 308.489 34.927C308.086 34.927 307.736 34.9925 307.441 35.1214C307.146 35.2503 306.902 35.4289 306.711 35.6561C306.519 35.8843 306.376 36.1506 306.283 36.4549C306.19 36.7602 306.143 37.0888 306.143 37.4396V41.3491H305.211V36.1992ZM311.858 39.519C312.055 39.9015 312.345 40.1931 312.728 40.3949C313.112 40.5968 313.516 40.6971 313.94 40.6971C314.137 40.6971 314.334 40.6665 314.531 40.6042C314.728 40.5429 314.904 40.4552 315.059 40.3411C315.215 40.2269 315.342 40.0906 315.44 39.93C315.538 39.7694 315.587 39.5856 315.587 39.3796C315.587 39.0478 315.481 38.8005 315.269 38.6346C315.057 38.4688 314.795 38.3399 314.484 38.2469C314.173 38.1539 313.831 38.0736 313.459 38.007C313.085 37.9394 312.744 37.8359 312.433 37.6964C312.122 37.5569 311.86 37.3625 311.649 37.1142C311.436 36.8659 311.33 36.5151 311.33 36.0597C311.33 35.7079 311.402 35.4036 311.547 35.1447C311.692 34.8858 311.882 34.6713 312.114 34.5012C312.347 34.33 312.609 34.2032 312.899 34.1208C313.189 34.0384 313.484 33.9972 313.785 33.9972C314.375 33.9972 314.886 34.105 315.315 34.3226C315.745 34.5393 316.08 34.8805 316.318 35.3465L315.478 35.842C315.303 35.5113 315.082 35.2609 314.818 35.0908C314.554 34.9196 314.209 34.834 313.785 34.834C313.619 34.834 313.446 34.8605 313.264 34.9122C313.083 34.964 312.92 35.0359 312.775 35.1288C312.63 35.2218 312.508 35.3412 312.41 35.486C312.311 35.6307 312.262 35.7966 312.262 35.9826C312.262 36.3027 312.368 36.5405 312.58 36.6958C312.793 36.8511 313.054 36.9726 313.366 37.0603C313.676 37.148 314.018 37.223 314.391 37.2854C314.764 37.3477 315.106 37.4481 315.416 37.5876C315.727 37.727 315.989 37.9288 316.201 38.193C316.413 38.4561 316.52 38.8312 316.52 39.3172C316.52 39.6891 316.45 40.0125 316.31 40.2872C316.17 40.5608 315.978 40.7912 315.734 40.9771C315.492 41.1631 315.215 41.3026 314.904 41.3956C314.593 41.4885 314.266 41.535 313.924 41.535C313.303 41.535 312.736 41.4156 312.223 41.1779C311.71 40.9402 311.314 40.5735 311.035 40.0769L311.858 39.519Z" fill="#2A2D33"/>
<path fill-rule="evenodd" clip-rule="evenodd" d="M200.163 55.44H201.453V0.270508H200.163V55.44Z" fill="url(#paint0_linear)"/>
<path fill-rule="evenodd" clip-rule="evenodd" d="M59.3244 14.1014H47.5561C45.5767 14.1014 43.9826 15.6937 43.9826 17.6696L43.9805 36.8237C43.9805 39.462 46.1239 41.6006 48.7659 41.6006V19.2059C48.7659 18.8762 49.0411 18.6026 49.3714 18.6026H59.3244C61.1387 18.6026 62.5677 20.085 62.5677 21.8411L62.5666 36.8237C62.5666 39.462 64.709 41.6006 67.3521 41.6006V22.1242C67.3521 17.6696 63.7786 14.1014 59.3244 14.1014Z" fill="#2A2D33"/>
<path fill-rule="evenodd" clip-rule="evenodd" d="M168.909 41.6006L177.52 41.6059C180.044 41.6059 182.089 39.5635 182.089 37.0456H168.909C164.925 37.0456 164.478 32.1366 168.82 31.1487L179.265 28.4322C186.368 26.8631 186.314 14.1014 176.312 14.1014H168.909C164.455 14.1014 160.882 16.7916 160.882 21.9235V33.5873C160.882 38.0335 164.455 41.6006 168.909 41.6006ZM165.665 28.1458V21.8685C165.665 19.6549 167.095 18.6026 168.909 18.6026H176.763C180.178 18.6026 180.614 23.1037 177.363 23.8729L169.45 25.9343C167.628 26.4066 166.592 26.693 165.665 28.1458Z" fill="#2A2D33"/>
<path fill-rule="evenodd" clip-rule="evenodd" d="M152.732 41.6006C155.219 41.6006 157.235 39.5878 157.235 37.1058C151.552 37.1058 148.989 37.1048 141.025 37.1005C139.606 37.1005 138.953 35.559 140.295 34.5552L154.863 24.6009C159.312 21.728 158.13 14.1014 151.178 14.1014H139.46C136.974 14.1014 134.957 16.1143 134.957 18.5962L151.263 18.6026C152.667 18.6026 153.211 20.1653 151.895 21.0074L137.891 30.3562C132.04 34.2445 133.796 41.6006 140.701 41.6006H152.732Z" fill="#2A2D33"/>
<path fill-rule="evenodd" clip-rule="evenodd" d="M114.149 52.1624C111.626 52.1624 109.581 50.1211 109.581 47.6021H122.76C126.743 47.6021 127.192 42.6931 122.85 41.7052L113.134 39.1789C109.196 38.1254 107.379 35.3814 107.379 31.1772V14.1014C109.948 14.1014 112.045 16.1238 112.159 18.6607L112.162 30.7377C112.162 32.5635 112.56 33.9603 114.626 34.5129L122.219 36.4919C124.042 36.9632 125.077 37.2495 126.004 38.7034V18.8783C126.004 16.2411 128.147 14.1014 130.79 14.1014L130.788 44.1439C130.788 48.59 127.213 52.1582 122.76 52.1582L114.149 52.1624Z" fill="#2A2D33"/>
<path fill-rule="evenodd" clip-rule="evenodd" d="M86.7035 14.1057L78.0926 14.1014C75.5702 14.1014 73.5241 16.1428 73.5241 18.6617H86.7035C90.6876 18.6617 91.1354 23.5707 86.7945 24.5586L76.3482 27.2752C69.2446 28.8432 69.2986 41.6059 79.3014 41.6059H86.7035C91.1576 41.6059 94.7311 38.9158 94.7311 33.7839V22.12C94.7311 17.6738 91.1576 14.1057 86.7035 14.1057ZM89.9477 27.5605V33.8388C89.9477 36.0524 88.5177 37.1048 86.7035 37.1048H78.8505C75.4358 37.1048 74.9997 32.6036 78.2503 31.8334L86.1626 29.7719C87.9853 29.3007 89.0205 29.0143 89.9477 27.5605Z" fill="#2A2D33"/>
<path fill-rule="evenodd" clip-rule="evenodd" d="M98.6614 0.269409C101.304 0.269409 103.448 2.40798 103.448 5.04631V41.6006C100.805 41.6006 98.6614 39.462 98.6614 36.8237V0.269409Z" fill="#2A2D33"/>
<path fill-rule="evenodd" clip-rule="evenodd" d="M5.71059 15.9114C3.06753 15.9114 0.924072 18.051 0.924072 20.6883L10.894 20.6872C17.6229 20.6872 24.1909 18.593 35.8523 7.5473L38.4319 10.1222C38.9738 10.6632 39.7201 10.5502 39.7201 9.71016L39.719 0.888579C39.719 0.548353 39.4406 0.269409 39.0998 0.269409H30.2613C29.5871 0.269409 29.3394 1.04601 29.7734 1.47922L32.4694 4.17145C26.166 10.4635 19.0402 15.7455 13.6959 15.9114V8.06397C13.6959 6.2519 15.1249 4.82548 16.9391 4.82548C20.1982 4.82548 23.4489 4.82971 26.708 4.82971C26.708 2.31077 24.6619 0.269409 22.1395 0.269409H16.9391C12.486 0.269409 8.91148 3.8365 8.91148 8.28375V15.9114H5.71059Z" fill="#2A2D33"/>
<path fill-rule="evenodd" clip-rule="evenodd" d="M13.6959 23.6088V41.6006C11.0529 41.6006 8.90942 39.462 8.90942 36.8237V23.9427C10.5691 23.8761 12.1632 23.763 13.6959 23.6088Z" fill="#009933"/>
<path fill-rule="evenodd" clip-rule="evenodd" d="M39.72 13.087V41.6005C37.077 41.6005 34.9346 39.462 34.9346 36.8236V16.9764C36.7996 15.7719 38.3884 14.4617 39.72 13.087Z" fill="#0D6BBD"/>
<path fill-rule="evenodd" clip-rule="evenodd" d="M26.7079 20.8911V41.6005C24.0649 41.6005 21.9225 39.462 21.9225 36.8236V22.2605C23.6193 21.8621 25.2144 21.4036 26.7079 20.8911Z" fill="#078278"/>
<defs>
<linearGradient id="paint0_linear" x1="200.807" y1="0.270508" x2="200.807" y2="55.44" gradientUnits="userSpaceOnUse">
<stop stop-color="#0D6ABD"/>
<stop offset="1" stop-color="#009932"/>
</linearGradient>
</defs>
</svg>
