<svg width="168" height="48" viewBox="0 0 168 48" fill="none" xmlns="http://www.w3.org/2000/svg">
<path fill-rule="evenodd" clip-rule="evenodd" d="M53.7682 12.8115H43.0391C41.234 12.8115 39.7806 14.2687 39.7806 16.0777L39.7784 33.6113C39.7784 36.0263 41.7322 37.9843 44.1422 37.9843V17.4847C44.1422 17.1831 44.3931 16.9316 44.6941 16.9316H53.7682C55.4232 16.9316 56.7264 18.2885 56.7264 19.8962L56.725 33.6113C56.725 36.0263 58.6788 37.9843 61.0887 37.9843V20.1562C61.0887 16.0777 57.8295 12.8115 53.7682 12.8115Z" fill="#2A2D33"/>
<path fill-rule="evenodd" clip-rule="evenodd" d="M153.687 37.9843L161.539 37.9879C163.839 37.9879 165.704 36.1195 165.704 33.814H153.687C150.055 33.814 149.646 29.3207 153.605 28.4158L163.129 25.9299C169.606 24.4934 169.556 12.8115 160.436 12.8115H153.687C149.627 12.8115 146.367 15.2739 146.367 19.9714V30.6482C146.367 34.7181 149.627 37.9843 153.687 37.9843ZM150.729 25.6676V19.9213C150.729 17.8945 152.033 16.9316 153.687 16.9316H160.848C163.961 16.9316 164.359 21.0518 161.394 21.7567L154.18 23.6438C152.518 24.0758 151.574 24.3373 150.729 25.6676Z" fill="#2A2D33"/>
<path fill-rule="evenodd" clip-rule="evenodd" d="M138.938 37.9843C141.205 37.9843 143.043 36.1417 143.043 33.8699C137.862 33.8699 135.523 33.8678 128.263 33.8642C126.969 33.8642 126.374 32.4535 127.597 31.5344L140.881 22.423C144.937 19.793 143.858 12.8115 137.52 12.8115H126.835C124.568 12.8115 122.73 14.6542 122.73 16.9266L137.597 16.9316C138.878 16.9316 139.373 18.3623 138.174 19.1332L125.405 27.6908C120.07 31.2507 121.671 37.9843 127.966 37.9843H138.938Z" fill="#2A2D33"/>
<path fill-rule="evenodd" clip-rule="evenodd" d="M103.756 47.6516C101.456 47.6516 99.591 45.7825 99.591 43.4778H111.608C115.24 43.4778 115.649 38.9844 111.69 38.0796L102.832 35.767C99.2393 34.8027 97.5829 32.2909 97.5829 28.443V12.8115C99.9263 12.8115 101.838 14.6627 101.942 16.9854L101.945 28.0397C101.945 29.7111 102.308 30.9906 104.191 31.4964L111.114 33.3068C112.776 33.7388 113.72 34.001 114.565 35.3314V17.1845C114.565 14.7695 116.52 12.8115 118.929 12.8115L118.927 40.3119C118.927 44.3819 115.668 47.6481 111.608 47.6481L103.756 47.6516Z" fill="#2A2D33"/>
<path fill-rule="evenodd" clip-rule="evenodd" d="M78.7322 12.8158L70.8805 12.8115C68.5807 12.8115 66.7156 14.6807 66.7156 16.9861H78.7322C82.3646 16.9861 82.7735 21.4795 78.8144 22.3836L69.2899 24.8703C62.8137 26.3067 62.863 37.9879 71.9829 37.9879H78.7322C82.7928 37.9879 86.052 35.5263 86.052 30.828V20.1512C86.052 16.0813 82.7928 12.8158 78.7322 12.8158ZM81.6904 25.1318V30.8789C81.6904 32.9049 80.3865 33.8678 78.7322 33.8678H71.5711C68.4585 33.8678 68.0603 29.7484 71.0249 29.0434L78.2389 27.1564C79.9011 26.7244 80.8454 26.4629 81.6904 25.1318Z" fill="#2A2D33"/>
<path fill-rule="evenodd" clip-rule="evenodd" d="M89.6362 0.150146C92.0461 0.150146 93.9999 2.10812 93.9999 4.52316V37.9842C91.5907 37.9842 89.6362 36.0262 89.6362 33.6112V0.150146Z" fill="#2A2D33"/>
<path fill-rule="evenodd" clip-rule="evenodd" d="M4.88519 14.4685C2.47529 14.4685 0.521484 16.4264 0.521484 18.8415L9.61136 18.8401C15.7466 18.8401 21.7352 16.9229 32.3686 6.81283L34.7198 9.16913C35.2138 9.66418 35.8944 9.56101 35.8944 8.79158L35.8937 0.716833C35.8937 0.405191 35.6399 0.150146 35.3297 0.150146H27.2707C26.6551 0.150146 26.4299 0.861549 26.8253 1.25773L29.2838 3.72149C23.5368 9.48149 17.0391 14.3166 12.1657 14.4685V7.28567C12.1657 5.62644 13.4689 4.32042 15.1232 4.32042C18.095 4.32042 21.0582 4.324 24.03 4.324C24.03 2.01928 22.1649 0.150146 19.8651 0.150146H15.1232C11.0626 0.150146 7.80339 3.4163 7.80339 7.48627V14.4685H4.88519Z" fill="#2A2D33"/>
<path fill-rule="evenodd" clip-rule="evenodd" d="M12.1651 21.5147V37.9844C9.7552 37.9844 7.80139 36.0265 7.80139 33.6114V21.8206C9.31482 21.759 10.7682 21.6558 12.1651 21.5147Z" fill="#009933"/>
<path fill-rule="evenodd" clip-rule="evenodd" d="M35.8927 11.8829V37.9842C33.4828 37.9842 31.529 36.0262 31.529 33.6111V15.4435C33.2297 14.3409 34.6788 13.1409 35.8927 11.8829Z" fill="#0D6BBD"/>
<path fill-rule="evenodd" clip-rule="evenodd" d="M24.0299 19.0269V37.984C21.62 37.984 19.6662 36.0261 19.6662 33.611V20.2806C21.2139 19.9153 22.668 19.4955 24.0299 19.0269Z" fill="#078278"/>
</svg>
