<svg width="1440" height="378" viewBox="0 0 1440 378" fill="none" xmlns="http://www.w3.org/2000/svg">
<path d="M1440 84.5C1440 84.5 1413.5 167.5 1368 174.5C1322.5 181.5 1288.5 239.5 1237.5 234C1186.5 228.5 1187.5 133 1165.5 118C1143.5 103 1109 184 1084.5 142.5C1060 101 1049.61 11.5 1002 11.5C954.387 11.5 919 112.5 856 118C793 123.5 744.113 239.5 696.5 239.5C647.726 239.5 660.5 342 624.5 341C588.5 340 573 305.5 536 317C499 328.5 471.5 337 431.5 368C391.5 399 372.5 324.5 345 331C317.5 337.5 303.582 399.003 276 361C236.505 306.583 204.266 355.658 161.5 351C118.734 346.342 121 245 86 292C51 339 -1.5 253 -1.5 253" stroke="#428FD7" stroke-width="4"/>
<circle r="9" transform="matrix(-1 0 0 1 1369 173)" fill="#DBFAFC" stroke="#428FD7" stroke-width="4"/>
<circle r="9" transform="matrix(-1 0 0 1 1158 117)" fill="#DBFAFC" stroke="#428FD7" stroke-width="4"/>
<circle r="9" transform="matrix(-1 0 0 1 855 118)" fill="#DBFAFC" stroke="#428FD7" stroke-width="4"/>
<circle r="9" transform="matrix(-1 0 0 1 1003 11)" fill="#DBFAFC" stroke="#428FD7" stroke-width="4"/>
<circle r="9" transform="matrix(-1 0 0 1 689 241)" fill="#DBFAFC" stroke="#428FD7" stroke-width="4"/>
<circle r="9" transform="matrix(-1 0 0 1 550 315)" fill="#DBFAFC" stroke="#428FD7" stroke-width="4"/>
<circle r="9" transform="matrix(-1 0 0 1 349 332)" fill="#DBFAFC" stroke="#428FD7" stroke-width="4"/>
<circle r="9" transform="matrix(-1 0 0 1 245 337)" fill="#DBFAFC" stroke="#428FD7" stroke-width="4"/>
<circle r="9" transform="matrix(-1 0 0 1 101 280)" fill="#DBFAFC" stroke="#428FD7" stroke-width="4"/>
</svg>
