<svg width="608" height="456" viewBox="0 0 608 456" fill="none" xmlns="http://www.w3.org/2000/svg">
<path d="M111.564 0L74.2703 72.5989H81.7987V131.801H43.8579L22 174.35L292.835 312.935L382.4 138.585L111.564 0Z" fill="#1E3953"/>
<path d="M518.914 47.2264H103.69V255.137H518.914V47.2264Z" fill="white"/>
<path opacity="0.3" d="M468.424 121.933H161.948V122.638H468.424V121.933Z" fill="#6C63FF"/>
<path opacity="0.3" d="M468.777 139.553H162.302V140.258H468.777V139.553Z" fill="#6C63FF"/>
<path opacity="0.3" d="M468.777 174.792H162.302V175.497H468.777V174.792Z" fill="#6C63FF"/>
<path opacity="0.3" d="M468.777 190.297H162.302V191.002H468.777V190.297Z" fill="#6C63FF"/>
<path opacity="0.3" d="M468.777 157.172H162.302V157.877H468.777V157.172Z" fill="#6C63FF"/>
<path d="M422.17 456C494.711 456 553.517 450.636 553.517 444.019C553.517 437.402 494.711 432.037 422.17 432.037C349.629 432.037 290.823 437.402 290.823 444.019C290.823 450.636 349.629 456 422.17 456Z" fill="#B0CBD2"/>
<path d="M170.804 190.808L169.83 189.787L215.449 146.392L255.662 175.261L288.182 139.278L302.441 151.374L341.23 128.146L384.316 157.049L451.939 118.66L452.637 119.885L384.254 158.706L341.188 129.816L302.298 153.103L288.311 141.238L255.864 177.142L215.574 148.219L170.804 190.808Z" fill="#6775F2"/>
<path d="M302.175 419.942C305.494 432.187 316.862 439.77 316.862 439.77C316.862 439.77 322.849 427.501 319.531 415.256C316.212 403.011 304.843 395.428 304.843 395.428C304.843 395.428 298.856 407.697 302.175 419.942Z" fill="#6ECF6B"/>
<path d="M307.052 417.31C316.159 426.158 317.272 439.76 317.272 439.76C317.272 439.76 303.618 439.016 294.511 430.168C285.404 421.32 284.292 407.718 284.292 407.718C284.292 407.718 297.945 408.462 307.052 417.31Z" fill="#9EDA9C"/>
<path opacity="0.4" d="M562.344 61.3222C575.409 61.3222 586 50.7516 586 37.712C586 24.6725 575.409 14.1018 562.344 14.1018C549.278 14.1018 538.687 24.6725 538.687 37.712C538.687 50.7516 549.278 61.3222 562.344 61.3222Z" fill="#ACB6CF"/>
<path opacity="0.4" d="M518.561 65.5508C527.726 65.5508 535.156 58.1355 535.156 48.9884C535.156 39.8413 527.726 32.426 518.561 32.426C509.396 32.426 501.967 39.8413 501.967 48.9884C501.967 58.1355 509.396 65.5508 518.561 65.5508Z" fill="#ACB6CF"/>
<path opacity="0.4" d="M498.083 361.559C502.958 361.559 506.91 357.615 506.91 352.749C506.91 347.884 502.958 343.94 498.083 343.94C493.208 343.94 489.255 347.884 489.255 352.749C489.255 357.615 493.208 361.559 498.083 361.559Z" fill="#ACB6CF"/>
<path opacity="0.4" d="M347.67 405.256C351.375 405.256 354.378 402.258 354.378 398.56C354.378 394.862 351.375 391.865 347.67 391.865C343.965 391.865 340.961 394.862 340.961 398.56C340.961 402.258 343.965 405.256 347.67 405.256Z" fill="#ACB6CF"/>
<path opacity="0.4" d="M325.072 318.567C329.947 318.567 333.899 314.623 333.899 309.758C333.899 304.892 329.947 300.948 325.072 300.948C320.197 300.948 316.245 304.892 316.245 309.758C316.245 314.623 320.197 318.567 325.072 318.567Z" fill="#ACB6CF"/>
<path d="M451.476 131.448C456.546 131.448 460.656 127.346 460.656 122.286C460.656 117.226 456.546 113.124 451.476 113.124C446.406 113.124 442.296 117.226 442.296 122.286C442.296 127.346 446.406 131.448 451.476 131.448Z" fill="#6775F2"/>
<path d="M391.828 288.238L384.046 289.101C384.046 289.101 380.587 304.635 384.046 325.347C387.504 346.059 391.828 366.771 391.828 366.771C391.828 366.771 395.287 434.086 397.016 434.949C398.745 435.812 414.31 440.99 415.175 435.812C416.039 430.634 416.039 312.402 416.039 312.402L428.145 369.36C428.145 369.36 429.875 440.99 433.333 440.99C436.792 440.99 448.033 440.127 448.033 434.086C448.033 428.045 450.627 348.648 450.627 348.648C450.627 348.648 449.763 289.964 446.304 288.238C442.845 286.512 391.828 288.238 391.828 288.238Z" fill="#2F2E41"/>
<path d="M398.745 432.36C398.745 432.36 390.963 431.497 389.234 432.36C387.504 433.223 384.91 439.264 389.234 442.716C393.557 446.168 404.798 451.346 408.257 451.346C410.656 451.24 413.008 450.653 415.175 449.62L413.445 434.949L398.745 432.36Z" fill="#2F2E41"/>
<path d="M433.333 436.675L434.198 448.757C434.198 448.757 445.439 450.483 446.304 448.757C447.169 447.031 455.816 442.716 456.68 441.853C457.545 440.99 458.41 431.497 453.221 430.634C448.033 429.771 446.304 432.36 446.304 432.36L433.333 436.675Z" fill="#2F2E41"/>
<path d="M360.699 215.745C360.699 215.745 339.946 235.594 342.54 245.95C345.134 256.307 365.887 286.512 365.887 286.512C365.887 286.512 385.775 296.868 388.369 286.512C390.963 276.156 374.534 278.745 374.534 278.745L361.563 247.676L376.263 226.964L360.699 215.745Z" fill="#FFB8B8"/>
<path d="M453.428 185.547C453.428 185.547 472.333 173.414 471.895 165.078C471.458 156.742 460.061 130.459 460.061 130.459C460.061 130.459 451.145 111.959 447.601 119.52C444.057 127.081 452.259 135.129 452.259 135.129L457.554 160.911L443.165 174.611L453.428 185.547Z" fill="#FFB8B8"/>
<path d="M406.528 168.28C415.124 168.28 422.092 161.325 422.092 152.746C422.092 144.167 415.124 137.212 406.528 137.212C397.932 137.212 390.963 144.167 390.963 152.746C390.963 161.325 397.932 168.28 406.528 168.28Z" fill="#FFB8B8"/>
<path d="M398.745 162.239L401.339 178.636L420.363 175.184C420.363 175.184 419.498 158.787 419.498 157.061C419.498 155.335 398.745 162.239 398.745 162.239Z" fill="#FFB8B8"/>
<path d="M397.881 178.636C397.881 178.636 419.498 173.458 422.092 175.184C424.686 176.91 437.657 178.636 437.657 178.636L452.357 201.074L448.033 229.553C448.033 229.553 447.169 275.293 448.898 283.06C450.627 290.827 460.139 291.69 440.251 293.416C420.363 295.142 416.904 292.553 403.069 296.005C389.234 299.457 377.993 294.279 381.452 290.827C384.91 287.375 390.963 232.142 384.046 226.964C377.128 221.786 374.534 195.033 374.534 195.033C374.534 195.033 397.881 182.951 397.881 178.636Z" fill="#D0CDE1"/>
<path d="M435.063 181.225L437.657 178.636L442.845 173.458C442.845 173.458 459.707 180.793 458.842 183.382C457.977 185.971 452.357 201.074 452.357 201.074L444.574 203.663L435.063 181.225Z" fill="#D0CDE1"/>
<path d="M384.91 196.759L374.534 195.033C374.534 195.033 366.752 203.663 364.158 207.115C361.563 210.567 356.375 219.197 356.375 219.197L374.534 232.142L388.369 217.471L384.91 196.759Z" fill="#D0CDE1"/>
<path d="M411.96 133.926L411.8 132.682C410.742 132.676 409.69 132.841 408.685 133.17C408.582 132.42 408.648 131.656 408.877 130.934C407.856 131.196 406.883 131.618 405.994 132.185L405.365 129.914L396.721 134.166C393.618 135.692 390.347 137.369 388.573 140.333C386.595 143.638 386.939 147.885 388.291 151.49C389.643 155.095 391.889 158.285 393.69 161.689C394.374 163.152 395.195 164.548 396.143 165.856C399.406 169.916 405.758 170.736 410.358 168.286C412.108 167.444 413.504 166.011 414.297 164.24C414.632 163.142 414.895 162.023 415.084 160.89C415.653 158.57 416.313 153.782 418.201 152.314C419.032 151.668 420.679 153.809 421.367 153.014C423.137 150.97 422.765 147.819 421.667 145.351C420.612 142.872 419.379 140.472 417.978 138.17C417.385 137.245 411.94 133.777 411.96 133.926Z" fill="#2F2E41"/>
<path d="M76.1496 81.056H30.9551V126.162H76.1496V81.056Z" fill="#36597A"/>
</svg>
